<svg width="776" height="776" viewBox="0 0 776 776" fill="none" xmlns="http://www.w3.org/2000/svg">
<path d="M581.748 489.889L129.98 489.889C119.582 489.889 111.143 481.45 111.143 471.051L111.143 164.473C111.143 154.075 119.582 145.636 129.98 145.636L562.911 145.636C573.309 145.636 581.748 154.075 581.748 164.473L581.748 489.889Z" fill="#EEEEEE"/>
<path d="M157.598 186H535.402C538.482 186 541 187.604 541 189.566V205.434C541 207.396 538.482 209 535.402 209H157.598C154.518 209 152 207.396 152 205.434V189.566C152 187.604 154.518 186 157.598 186Z" fill="#D2D2DB"/>
<path d="M535.402 221H157.598C154.506 221 152 222.597 152 224.566V240.434C152 242.403 154.506 244 157.598 244H535.402C538.494 244 541 242.403 541 240.434V224.566C541 222.597 538.494 221 535.402 221Z" fill="#D2D2DB"/>
<path d="M535.402 256H157.598C154.506 256 152 257.597 152 259.566V275.434C152 277.403 154.506 279 157.598 279H535.402C538.494 279 541 277.403 541 275.434V259.566C541 257.597 538.494 256 535.402 256Z" fill="#D2D2DB"/>
<path d="M346.445 313.659H151.786V315.599H346.445V313.659Z" fill="#ADA4F7"/>
<path d="M362.625 335.639H151.786V337.579H362.625V335.639Z" fill="#ADA4F7"/>
<path d="M293.619 357.096H151.786V359.036H293.619V357.096Z" fill="#ADA4F7"/>
<path d="M187.676 449.11C205.815 449.11 220.52 434.405 220.52 416.266C220.52 398.126 205.815 383.422 187.676 383.422C169.536 383.422 154.832 398.126 154.832 416.266C154.832 434.405 169.536 449.11 187.676 449.11Z" fill="white"/>
<path d="M183.175 449.11C201.314 449.11 216.019 434.405 216.019 416.266C216.019 398.126 201.314 383.422 183.175 383.422C165.035 383.422 150.331 398.126 150.331 416.266C150.331 434.405 165.035 449.11 183.175 449.11Z" fill="#80BAFF"/>
<path d="M180.44 433.823L164.144 415.393L169.944 410.252L180.343 421.989L198.113 401.231L204.011 406.294L180.44 433.823Z" fill="white"/>
<path d="M55.7363 511.753V581.496C55.7363 583.61 57.6957 585.337 60.1401 585.337H200.072C202.497 585.337 204.457 583.61 204.457 581.496V511.753C204.457 509.638 202.497 507.911 200.072 507.911H60.1401C57.7151 507.911 55.7363 509.638 55.7363 511.753Z" fill="#ADA4F7"/>
<path d="M55.7363 513.052V518.523H204.457V513.052C204.457 510.201 202.497 507.892 200.072 507.892H60.1401C57.7151 507.892 55.7363 510.201 55.7363 513.052Z" fill="#EFEFF4"/>
<path d="M177.529 513.208C177.529 514.604 178.654 515.73 180.051 515.73C181.448 515.73 182.573 514.604 182.573 513.208C182.573 511.811 181.448 510.686 180.051 510.686C178.654 510.686 177.529 511.811 177.529 513.208Z" fill="#FFAF45"/>
<path d="M188.161 515.73C189.554 515.73 190.683 514.6 190.683 513.208C190.683 511.815 189.554 510.686 188.161 510.686C186.768 510.686 185.639 511.815 185.639 513.208C185.639 514.6 186.768 515.73 188.161 515.73Z" fill="#EA366E"/>
<path d="M193.709 513.208C193.709 514.604 194.834 515.73 196.231 515.73C197.628 515.73 198.753 514.604 198.753 513.208C198.753 511.811 197.628 510.686 196.231 510.686C194.834 510.686 193.709 511.811 193.709 513.208Z" fill="#7C4FD3"/>
<path d="M110.541 537.768H190.683V532.996H110.541V537.768Z" fill="#50447E"/>
<path d="M110.541 550.456H190.683V545.683H110.541V550.456Z" fill="#50447E"/>
<path d="M110.541 563.143H190.683V558.371H110.541V563.143Z" fill="#50447E"/>
<path d="M68.1327 563.124H101.753V533.19H68.1327V563.124Z" fill="#E4E4EA"/>
<path d="M483.622 161.078H360.976C357.367 161.078 354.418 158.129 354.418 154.521V77.8522C354.418 74.2438 357.367 71.295 360.976 71.295H483.622C487.231 71.295 490.18 74.2438 490.18 77.8522V154.521C490.18 158.129 487.231 161.078 483.622 161.078ZM360.976 73.235C358.434 73.235 356.358 75.3108 356.358 77.8522V154.521C356.358 157.062 358.434 159.138 360.976 159.138H483.622C486.164 159.138 488.24 157.062 488.24 154.521V77.8522C488.24 75.3108 486.164 73.235 483.622 73.235H360.976Z" fill="#FFAF45"/>
<path d="M489.21 88.1536H355.388C354.845 88.1536 354.418 87.7268 354.418 87.1836C354.418 86.6404 354.845 86.2136 355.388 86.2136H489.21C489.753 86.2136 490.18 86.6404 490.18 87.1836C490.18 87.7268 489.753 88.1536 489.21 88.1536Z" fill="#FFAF45"/>
<path d="M367.28 83.323C367.126 83.323 366.957 83.2648 366.818 83.129L361.166 77.891C360.827 77.5806 360.75 76.9598 360.996 76.533C361.243 76.1062 361.736 76.0092 362.075 76.3196L367.727 81.5576C368.066 81.868 368.143 82.4888 367.896 82.9156C367.742 83.1678 367.511 83.3036 367.28 83.3036V83.323Z" fill="#FFAF45"/>
<path d="M361.63 83.323C361.399 83.323 361.168 83.1872 361.014 82.935C360.768 82.5082 360.83 81.8874 361.184 81.577L366.829 76.339C367.168 76.0286 367.66 76.1062 367.906 76.5524C368.152 76.9792 368.091 77.6 367.737 77.9104L362.091 83.1484C361.953 83.2842 361.799 83.3424 361.63 83.3424V83.323Z" fill="#FFAF45"/>
<path d="M557.634 303.765C557.634 303.765 570.341 298.217 581.573 305.472C592.806 312.728 588.48 329.276 588.48 329.276C588.48 329.276 603.534 344.175 605.086 359.23C606.619 374.284 598.82 378.164 598.82 378.164L573.484 366.485L563.861 319.266L557.653 303.765H557.634Z" fill="black"/>
<path d="M528.805 362.159C528.805 362.159 525.216 349.666 530.532 342.779C536.139 335.523 545.159 335.135 545.179 329.102C545.179 315.075 555.403 308.693 555.403 308.693L555.364 363.905L528.805 362.159Z" fill="black"/>
<path d="M518.31 656.418C518.31 656.418 482.885 673.393 472.409 683.287C461.933 693.181 461.409 699.913 462.612 703.231C463.815 706.548 537.108 703.25 537.108 703.25C537.108 703.25 537.904 683.113 545.702 684.413C553.501 685.712 549.253 703.735 549.253 703.735L571.407 703.522C571.407 703.522 572.436 683.501 570.825 675.663C569.099 667.185 564.171 655.739 564.171 655.739L518.329 656.418H518.31Z" fill="#50447E"/>
<path d="M525.876 650.579C525.876 650.579 495.379 667.787 500.947 669.572C506.515 671.356 537.923 671.667 547.138 668.311C556.353 664.954 564.055 655.41 564.055 655.41L543.142 645.516L525.856 650.598L525.876 650.579Z" fill="#FFAC99"/>
<path d="M564.074 655.39L568.013 637.93L530.551 630.325L525.119 658.009L564.074 655.39Z" fill="#FC8165"/>
<path d="M666.41 592.767C666.41 592.767 687.633 625.825 698.749 634.981C709.866 644.158 716.617 643.847 719.74 642.237C722.883 640.627 710.545 568.323 710.545 568.323C710.545 568.323 690.466 570.03 690.795 562.115C691.125 554.2 709.536 556.198 709.536 556.198L706.587 534.237C706.587 534.237 686.605 535.692 679 538.272C670.813 541.047 660.046 547.332 660.046 547.332L666.39 592.748L666.41 592.767Z" fill="#50447E"/>
<path d="M659.658 585.996C659.658 585.996 680.494 614.126 681.58 608.384C682.666 602.642 679.077 571.427 674.615 562.697C670.153 553.967 659.716 547.507 659.716 547.507L652.48 569.487L659.658 585.996Z" fill="#FFAC99"/>
<path d="M659.716 547.507L641.907 545.741L638.997 583.862L667.127 585.822L659.716 547.507Z" fill="#FC8165"/>
<path d="M453.261 369.822C453.261 369.822 426.877 370.268 422.086 369.822C417.313 369.376 422.086 365.962 422.086 365.962C422.086 365.962 412.987 365.05 416.169 362.547C419.35 360.045 449.44 359.501 456.21 360.452C462.981 361.403 472.817 362.78 472.817 362.78L453.242 369.842L453.261 369.822Z" fill="#FFAC99"/>
<path d="M555.636 351.916C555.636 351.916 539.708 352.537 535.615 353.895C531.521 355.253 502.635 370.831 497.397 370.831C492.159 370.831 470.547 357.096 470.547 357.096L438.692 375.293C438.692 375.293 458.48 415.781 490.102 419.428C521.724 423.075 534.005 410.097 534.005 410.097L555.616 351.916H555.636Z" fill="#ADA4F7"/>
<path d="M445.385 378.979C442.708 378.979 438.828 376.166 438.324 375.797C438.033 375.584 437.974 375.177 438.188 374.866C438.401 374.575 438.828 374.517 439.119 374.73C441.04 376.147 444.609 378.164 446.006 377.543C447.383 376.923 448.082 373.062 448.218 370.773C448.218 370.54 448.353 370.346 448.547 370.23C448.741 370.113 448.974 370.113 449.188 370.23C451.128 371.297 456.598 373.625 458.422 371.801C460.75 369.473 460.187 363.556 460.168 363.498C460.149 363.284 460.226 363.071 460.401 362.935C460.556 362.799 460.789 362.741 461.002 362.799C464.902 363.847 468.723 364.196 469.189 363.517C470.159 362.101 469.946 360.083 469.946 360.064C469.907 359.695 470.159 359.385 470.528 359.327C470.916 359.288 471.207 359.54 471.265 359.909C471.265 360.006 471.536 362.431 470.295 364.254C469.15 365.903 464.106 364.914 461.565 364.293C461.642 366.214 461.565 370.559 459.373 372.732C457.006 375.099 451.651 372.907 449.459 371.84C449.265 373.78 448.606 377.815 446.569 378.746C446.219 378.901 445.831 378.979 445.424 378.979H445.385Z" fill="#7C4FD3"/>
<path d="M574.841 653.062L511.462 651.859C511.462 651.859 497.028 600.275 496.601 552.609C496.349 524.44 503.546 494.506 509.463 474.718C513.576 461.002 517.068 452.175 517.068 452.175L552.842 454.755L559.321 455.221L560 505.351C560 505.351 562.387 579.148 563.298 590.788C564.21 602.448 574.841 653.062 574.841 653.062Z" fill="#F58220"/>
<path d="M553.637 477.706L509.463 474.718C513.576 461.002 517.068 452.175 517.068 452.175L552.842 454.755L553.637 477.706Z" fill="#F58220"/>
<path d="M594.688 436.539C594.688 436.539 601.284 475.242 603.922 497.668C605.707 512.761 618.045 528.495 632.246 533.151C646.447 537.787 659.911 539.96 659.911 539.96L661.734 595.037C661.734 595.037 613.797 607.88 580.138 586.811C563.299 576.277 553.89 560.369 548.613 544.364C543.821 529.795 542.308 511.636 542.25 494.719L546.983 448.586L594.688 436.539Z" fill="#F58220"/>
<path d="M565.801 352.032C542.172 349.743 522.559 366.33 519.358 389.843L519.901 400.707C519.901 400.707 516.021 450.371 517.049 452.175C518.077 453.979 534.742 458.519 555.48 457.491C576.219 456.463 592.787 454.503 593.815 453.727C594.106 453.494 603.709 444.745 603.592 432.853C603.321 404.005 588.286 355.583 588.286 355.039C588.286 354.671 578.469 353.274 565.801 352.032Z" fill="#ADA4F7"/>
<path d="M591.331 472.118C579.362 472.118 578.217 462.787 578.217 462.69C578.178 462.321 578.45 462.011 578.799 461.972C579.187 461.914 579.478 462.205 579.517 462.554C579.556 462.903 580.642 471.168 591.972 470.799C592.36 470.799 592.631 471.071 592.651 471.439C592.651 471.808 592.379 472.099 592.011 472.118C591.778 472.118 591.545 472.118 591.312 472.118H591.331Z" fill="white"/>
<path d="M606.153 533.791C605.94 533.791 605.726 533.772 605.513 533.733C604.368 533.519 603.941 532.84 603.767 532.317C602.68 528.844 610.867 520.153 612.536 518.446C612.73 518.252 613.04 518.193 613.292 518.31C613.544 518.426 613.7 518.717 613.661 518.989C613.603 519.454 612.128 530.26 608.229 533.073C607.569 533.539 606.89 533.791 606.172 533.791H606.153ZM611.992 520.948C608.539 524.751 604.446 530.086 605.008 531.929C605.047 532.045 605.125 532.317 605.746 532.433C606.328 532.549 606.89 532.414 607.433 532.006C609.761 530.338 611.275 524.615 611.973 520.948H611.992Z" fill="white"/>
<path d="M581.496 410.814C581.496 410.814 579.323 404.645 578.508 402.666C577.674 400.688 578.062 394.014 575.676 392.908C573.289 391.802 572.552 402.511 572.552 402.511C572.552 402.511 558.429 386.545 555.81 387.282C553.191 388.019 559.224 398.806 559.224 398.806C559.224 398.806 548.651 387.36 546.653 389.416C544.636 391.473 553.637 402.841 553.637 402.841C553.637 402.841 545.586 395.935 543.995 398.166C542.405 400.397 555.286 417.992 555.286 417.992C555.286 417.992 562.697 436.384 572.901 433.765C583.106 431.146 581.515 410.814 581.515 410.814H581.496Z" fill="#FFAC99"/>
<path d="M422.105 366.621C421.834 366.621 421.582 366.466 421.485 366.194C421.349 365.845 421.523 365.477 421.873 365.341C422.164 365.224 428.022 363.032 433.939 362.062L432.155 361.577C431.805 361.48 431.592 361.112 431.689 360.762C431.786 360.413 432.155 360.2 432.504 360.297L437.509 361.674C437.819 361.752 438.013 362.062 437.994 362.373C437.955 362.683 437.703 362.935 437.373 362.955C430.719 363.401 422.396 366.524 422.319 366.563C422.241 366.582 422.164 366.602 422.086 366.602L422.105 366.621Z" fill="black"/>
<path d="M397.525 356.921H504.924L482.594 348.715H375.215L397.525 356.921Z" fill="#7C4FD3"/>
<path d="M397.06 361.403H504.904V356.902H397.06V361.403Z" fill="white"/>
<path d="M375.215 348.715V353.701L397.079 361.422V356.921L375.215 348.715Z" fill="#FFAF45"/>
<path d="M482.594 348.715L462.341 292.3C462.089 291.601 461.429 291.136 460.672 291.136H360.549C359.366 291.136 358.512 292.28 358.861 293.406L375.235 348.715H482.614H482.594Z" fill="#80BAFF"/>
<path d="M470.43 338.976L455.376 297.072C455.182 296.51 454.639 296.141 454.037 296.141H374.051C373.101 296.141 372.422 297.053 372.693 297.965L385.264 340.451C385.555 341.459 386.487 342.138 387.534 342.138H468.199C469.829 342.138 470.974 340.509 470.43 338.976Z" fill="white"/>
<path d="M588.285 355.02C588.285 355.02 619.81 367.785 638.842 398.573C656.399 426.975 656.748 451.962 627.008 459.237C597.287 466.512 567.527 437.703 567.527 437.703L582.989 406.449L590.012 409.185L588.305 355.02H588.285Z" fill="#ADA4F7"/>
<path d="M573.852 408.273C573.6 408.273 573.367 408.098 573.309 407.846L572.009 402.628C571.931 402.337 572.125 402.026 572.416 401.949C572.727 401.871 573.018 402.046 573.095 402.356L574.395 407.575C574.473 407.866 574.279 408.176 573.988 408.254C573.949 408.254 573.891 408.254 573.852 408.254V408.273Z" fill="black"/>
<path d="M555.635 405.673C555.48 405.673 555.325 405.615 555.228 405.479L553.21 403.21C553.016 402.977 553.036 402.628 553.269 402.434C553.501 402.24 553.851 402.259 554.045 402.492L556.062 404.762C556.256 404.994 556.237 405.344 556.004 405.538C555.907 405.635 555.771 405.673 555.635 405.673Z" fill="black"/>
<path d="M561.339 401.541C561.184 401.541 561.048 401.483 560.932 401.367L558.836 399.174C558.623 398.961 558.623 398.592 558.836 398.379C559.069 398.166 559.399 398.166 559.632 398.379L561.727 400.571C561.94 400.785 561.94 401.153 561.727 401.367C561.611 401.464 561.475 401.522 561.339 401.522V401.541Z" fill="black"/>
<path d="M624.583 419.292C624.467 419.292 624.35 419.253 624.234 419.195C610.46 410.504 590.032 407.128 589.818 407.09C589.45 407.031 589.217 406.702 589.275 406.333C589.333 405.964 589.682 405.732 590.032 405.79C590.245 405.829 610.925 409.224 624.932 418.07C625.243 418.264 625.34 418.671 625.146 418.982C625.029 419.176 624.816 419.292 624.583 419.292Z" fill="#7C4FD3"/>
<path d="M620.102 413.569C616.086 413.569 611.061 412.774 609.024 412.114C608.753 412.017 608.578 411.784 608.578 411.493C608.578 411.202 608.753 410.95 609.024 410.853C609.529 410.679 621.285 406.508 625.049 410.155C626.058 411.125 625.844 411.862 625.611 412.231C625.029 413.201 622.779 413.569 620.102 413.569ZM611.624 411.416C616.493 412.386 623.885 412.58 624.486 411.571C624.486 411.571 624.428 411.416 624.137 411.125C621.964 409.03 615.601 410.291 611.624 411.435V411.416Z" fill="#7C4FD3"/>
<path d="M494.816 383.635C494.254 383.635 493.788 383.402 493.478 382.956C491.945 380.686 495.98 372.208 496.815 370.521C496.95 370.249 497.222 370.113 497.532 370.171C497.823 370.23 498.037 370.462 498.076 370.753C498.173 371.685 498.929 380.007 496.679 382.704C496.213 383.266 495.651 383.557 495.01 383.616C494.952 383.616 494.894 383.616 494.836 383.616L494.816 383.635ZM496.912 373.469C495.204 377.369 493.963 381.326 494.584 382.238C494.603 382.277 494.642 382.355 494.894 382.335C495.185 382.316 495.418 382.18 495.651 381.889C496.834 380.453 497.009 376.438 496.912 373.489V373.469Z" fill="#7C4FD3"/>
<path d="M589.915 453.882C589.818 453.882 589.702 453.863 589.605 453.805C588.964 453.456 573.813 445.366 568.808 438.518C568.653 438.304 568.633 438.013 568.769 437.8C568.905 437.567 569.157 437.451 569.429 437.489C570.534 437.625 573.541 437.683 574.259 436.248C574.899 434.948 573.25 432.077 572.048 430.583C571.892 430.37 571.854 430.098 571.989 429.865C572.106 429.632 572.358 429.497 572.63 429.516C572.688 429.516 579.342 430.098 582.116 427.13C584.289 424.821 580.002 418.012 578.159 415.587C578.003 415.393 577.984 415.102 578.1 414.888C578.217 414.656 578.488 414.52 578.702 414.539C578.741 414.539 582.795 414.656 584.987 412.444C585.337 412.095 585.492 411.687 585.472 411.202C585.395 409.592 583.358 407.613 582.582 406.973C582.291 406.74 582.252 406.333 582.485 406.042C582.718 405.77 583.125 405.712 583.416 405.945C583.552 406.061 586.656 408.622 586.792 411.125C586.83 411.978 586.539 412.735 585.919 413.375C584.134 415.16 581.495 415.664 579.943 415.8C581.767 418.419 585.86 425.054 583.067 428.042C580.681 430.583 576.219 430.893 573.891 430.893C574.899 432.407 576.335 435.064 575.443 436.849C574.608 438.537 572.339 438.867 570.806 438.886C576.393 445.249 590.109 452.583 590.245 452.66C590.575 452.835 590.691 453.223 590.516 453.553C590.4 453.785 590.167 453.902 589.934 453.902L589.915 453.882Z" fill="#7C4FD3"/>
<path d="M578.236 308.382C578.236 308.382 593.582 285.704 601.361 300.351C609.14 314.998 587.451 335.445 579.342 328.132C571.252 320.818 578.236 308.382 578.236 308.382Z" fill="black"/>
<path d="M571.951 341.033L571.388 357.736C571.388 357.736 568.692 359.734 560.117 360.142C553.734 360.452 551.6 358.687 551.6 358.687L553.812 344.389L569.351 341.518L571.951 341.033Z" fill="#FFAC99"/>
<path d="M569.332 341.518C569.273 341.906 569.118 342.371 568.866 342.914C565.355 350.092 556.373 351.373 552.687 351.567L553.792 344.389L569.332 341.518Z" fill="black"/>
<path d="M551.659 311.021C551.659 311.021 543.394 329.063 546.071 339.325C548.749 349.588 558.08 348.152 563.687 346.271C569.293 344.389 571.932 341.033 571.932 341.033C571.932 341.033 577.111 342.895 580.662 338.123C584.231 333.35 582.194 327.763 579.245 326.424C576.297 325.086 572.727 327.181 572.727 327.181L575.598 321.943C575.598 321.943 564.424 294.88 551.659 311.021Z" fill="#FFAC99"/>
<path d="M572.746 327.181C572.746 327.181 564.909 328.694 559.554 319.945C554.2 311.195 554.724 307.626 554.724 307.626L549.234 316.569C549.234 316.569 548.07 310.322 550.592 306.384C553.114 302.427 555.694 303.28 555.694 303.28L572.902 307.723L577.325 321.574L572.727 327.181H572.746Z" fill="black"/>
<path d="M552.085 334.204C551.814 334.204 551.542 334.029 551.465 333.738C550.301 329.8 553.094 325.842 553.23 325.687C553.443 325.396 553.831 325.338 554.142 325.532C554.433 325.745 554.491 326.153 554.297 326.444C554.278 326.483 551.756 330.052 552.726 333.37C552.823 333.719 552.629 334.068 552.279 334.184C552.221 334.184 552.163 334.204 552.105 334.204H552.085Z" fill="black"/>
<path d="M560.291 321.749C560.02 321.749 559.767 321.574 559.67 321.322C558.7 318.529 557.207 318.82 557.149 318.82C556.799 318.897 556.45 318.684 556.373 318.335C556.295 317.985 556.489 317.656 556.819 317.559C556.935 317.52 559.496 316.899 560.893 320.876C561.009 321.206 560.835 321.574 560.485 321.71C560.408 321.73 560.349 321.749 560.272 321.749H560.291Z" fill="black"/>
<path d="M548.845 318.858C548.845 318.858 548.729 318.858 548.69 318.839C548.341 318.742 548.128 318.393 548.225 318.063C548.263 317.908 548.613 316.627 549.757 316.181C550.494 315.89 551.329 316.045 552.24 316.647C552.531 316.841 552.628 317.248 552.434 317.539C552.24 317.85 551.833 317.927 551.542 317.733C551.173 317.5 550.63 317.229 550.242 317.384C549.796 317.559 549.563 318.16 549.505 318.373C549.427 318.664 549.175 318.858 548.884 318.858H548.845Z" fill="black"/>
<path d="M573.425 335.795C573.27 335.795 573.096 335.736 572.979 335.62C572.727 335.368 572.708 334.96 572.979 334.708L577.984 329.528C578.237 329.276 578.644 329.257 578.896 329.528C579.148 329.781 579.168 330.188 578.896 330.44L573.891 335.62C573.755 335.756 573.6 335.814 573.425 335.814V335.795Z" fill="black"/>
<path d="M578.663 334.437C578.663 334.437 578.585 334.437 578.566 334.437L575.152 333.874C574.802 333.816 574.55 333.486 574.608 333.137C574.667 332.788 574.977 332.555 575.346 332.594L578.76 333.156C579.109 333.214 579.361 333.544 579.303 333.893C579.245 334.204 578.973 334.437 578.663 334.437Z" fill="black"/>
<path d="M548.962 327.065C548.962 327.065 548.904 327.065 548.865 327.065C548.516 327.006 548.264 326.677 548.322 326.327L548.787 323.282L547.701 321.924C547.488 321.652 547.526 321.245 547.798 321.012C548.069 320.798 548.477 320.837 548.71 321.109L549.971 322.7C550.087 322.835 550.126 323.029 550.106 323.204L549.583 326.541C549.525 326.851 549.253 327.084 548.942 327.084L548.962 327.065Z" fill="black"/>
<path d="M558.875 327.938C558.429 327.879 558.177 327.55 558.235 327.2L558.643 324.174L557.032 322.544C556.78 322.292 556.78 321.885 557.032 321.633C557.285 321.38 557.692 321.38 557.944 321.633L559.787 323.476C559.923 323.611 560.001 323.825 559.962 324.019L559.516 327.356C559.477 327.685 559.186 327.918 558.875 327.918V327.938Z" fill="black"/>
<path d="M554.529 340.722C552.706 340.722 550.475 339.151 550.184 338.937C549.97 338.782 549.873 338.53 549.932 338.278C549.99 338.026 550.184 337.832 550.436 337.793L558.371 336.299C558.623 336.26 558.894 336.357 559.03 336.59C559.166 336.803 559.166 337.094 559.03 337.308C558.836 337.599 557.032 340.16 555.189 340.664C554.976 340.722 554.743 340.742 554.51 340.742L554.529 340.722ZM552.357 338.743C553.249 339.209 554.258 339.558 554.879 339.384C555.538 339.209 556.295 338.549 556.896 337.89L552.357 338.743Z" fill="black"/>
<path d="M389.125 301.185L399.077 335.795C399.252 336.396 399.873 336.881 400.474 336.881H449.44C450.041 336.881 450.371 336.396 450.216 335.795L440.263 301.185C440.089 300.584 439.468 300.099 438.867 300.099H389.901C389.3 300.099 388.97 300.584 389.125 301.185Z" fill="#D2D2DB"/>
<path d="M389.125 301.185L389.61 302.892H440.729L440.244 301.185C440.069 300.584 439.449 300.099 438.847 300.099H389.882C389.28 300.099 388.95 300.584 389.106 301.185H389.125Z" fill="#E4E4EA"/>
<path d="M406.547 316.433H399.155L397.041 309.042H404.432L406.547 316.433Z" fill="white"/>
<path d="M409.127 325.435H401.735L399.621 318.044H407.012L409.127 325.435Z" fill="white"/>
<path d="M411.61 334.417H404.218L402.084 327.026H409.476L411.61 334.417Z" fill="white"/>
<path d="M437.315 312.437H407.594L407.284 311.331H437.004L437.315 312.437Z" fill="#ADA4F7"/>
<path d="M439.895 321.419H410.174L409.864 320.313H439.585L439.895 321.419Z" fill="#ADA4F7"/>
<path d="M402.104 315.289L398.631 313.232L399.213 312.243L401.697 313.717L403.462 310.749L404.451 311.331L402.104 315.289Z" fill="#EA366E"/>
<path d="M404.858 324.252L401.386 322.195L401.968 321.206L404.47 322.68L406.216 319.712L407.206 320.294L404.858 324.252Z" fill="#EA366E"/>
<path d="M560.02 367.708C559.768 367.708 559.516 367.708 559.263 367.669C557.459 367.455 556.159 366.738 555.345 365.554C554.646 364.507 554.491 363.284 554.51 362.353C552.706 363.556 549.583 365.321 547.934 364.507C547.488 364.293 547.197 363.905 547.061 363.42C546.576 361.558 548.846 358.202 549.292 357.542C549.486 357.27 549.854 357.173 550.145 357.348C550.262 357.406 562.348 363.808 573.542 355.602C573.716 355.486 573.93 355.447 574.143 355.505C574.337 355.563 574.512 355.718 574.57 355.932C574.725 356.436 576.103 360.937 573.484 362.198C571.641 363.071 569.681 361.965 568.672 361.228C567.605 363.071 564.482 367.727 560.02 367.727V367.708ZM555.946 360.607C556.024 360.762 556.062 360.937 556.004 361.112C556.004 361.131 555.422 363.304 556.45 364.817C557.032 365.671 558.022 366.175 559.419 366.35C563.997 366.893 567.373 360.879 567.838 359.986C563.415 361.422 559.205 361.228 555.946 360.588V360.607ZM550.087 358.745C549.156 360.18 548.147 362.217 548.361 363.071C548.399 363.207 548.458 363.265 548.535 363.304C549.622 363.847 553.017 361.888 554.995 360.394C552.667 359.851 550.921 359.113 550.087 358.745ZM568.866 359.637C568.866 359.637 568.925 359.676 568.944 359.695C568.963 359.715 571.194 361.791 572.921 360.976C573.969 360.471 573.813 358.493 573.542 357.193C571.97 358.24 570.399 359.036 568.847 359.637H568.866Z" fill="#7C4FD3"/>
<path d="M519.435 418.322C519.047 418.322 518.775 418.012 518.775 417.643L519.241 400.823C518.853 399.853 516.758 394.111 517.631 385.944C518.95 373.702 526.943 368.697 527.273 368.484C527.583 368.29 527.99 368.387 528.184 368.697C528.378 369.007 528.281 369.415 527.971 369.609C527.893 369.648 520.192 374.498 518.95 386.079C518.038 394.538 520.502 400.397 520.521 400.455C520.56 400.552 520.58 400.629 520.58 400.726L520.095 417.701C520.095 418.051 519.784 418.342 519.435 418.342V418.322Z" fill="#7C4FD3"/>
<path d="M557.304 552.784C554.142 552.784 551.678 552.26 551.445 552.202C551.096 552.124 550.863 551.775 550.941 551.406C551.018 551.057 551.368 550.824 551.736 550.902C551.853 550.941 563.764 553.482 568.828 547.08C570.38 545.121 571.02 543.2 570.709 541.435C570.244 538.719 567.702 537.108 567.683 537.089C567.508 536.992 567.411 536.817 567.373 536.604C567.353 536.41 567.411 536.216 567.547 536.061C567.644 535.964 577.286 525.604 571.156 514.527C569.274 511.132 566.849 509.017 563.919 508.241C559.263 507 554.918 509.58 554.879 509.599C554.646 509.735 554.375 509.716 554.161 509.58C553.948 509.425 553.851 509.172 553.89 508.92C554.297 506.844 554.995 501.024 553.269 499.143C552.861 498.696 552.357 498.522 551.659 498.58C546.809 499.046 542.579 505.486 542.541 505.545C542.347 505.855 541.939 505.933 541.629 505.739C541.318 505.545 541.241 505.137 541.435 504.827C541.609 504.536 546.033 497.785 551.523 497.261C552.609 497.144 553.56 497.494 554.239 498.25C556.179 500.404 555.733 505.428 555.383 507.873C557.129 507.097 560.563 505.991 564.249 506.98C567.528 507.853 570.224 510.181 572.3 513.906C578.062 524.304 570.981 534.024 569.002 536.429C569.933 537.167 571.582 538.796 572.009 541.202C572.397 543.375 571.679 545.644 569.875 547.914C566.732 551.891 561.436 552.784 557.323 552.784H557.304Z" fill="white"/>
<path d="M600.721 583.203C594.882 583.203 590.594 575.035 589.547 572.863C587.704 573.289 581.67 574.434 577.344 571.873C575.191 570.593 573.813 568.595 573.212 565.917C572.63 563.26 573.018 561.106 574.415 559.515C576.723 556.858 581.069 556.547 583.048 556.547C582.679 554.588 581.923 549.893 584.328 547.526C585.861 545.994 588.363 545.741 591.758 546.731C592.845 545.198 596.958 540.232 603.728 541.376C605.494 541.687 606.755 542.54 607.472 543.937C609.199 547.332 607.084 552.9 606.211 554.859C608.462 555.558 615 557.886 616.493 561.727C617.056 563.163 616.862 564.637 615.931 566.131C612.575 571.446 607.395 571.776 605.086 571.602C605.785 573.561 606.968 577.81 605.494 580.603C604.795 581.942 603.592 582.776 601.924 583.106C601.517 583.183 601.129 583.222 600.741 583.222L600.721 583.203ZM589.915 571.427C590.168 571.427 590.42 571.582 590.517 571.815C590.556 571.931 595.464 582.989 601.652 581.787C602.933 581.554 603.786 580.952 604.31 579.982C605.959 576.878 603.495 571.117 603.457 571.058C603.36 570.826 603.398 570.573 603.554 570.379C603.709 570.185 603.961 570.088 604.213 570.147C604.485 570.205 610.906 571.563 614.806 565.413C615.523 564.288 615.659 563.24 615.252 562.193C613.719 558.274 605.203 555.926 605.106 555.907C604.912 555.849 604.756 555.713 604.679 555.538C604.601 555.364 604.601 555.15 604.679 554.976C604.718 554.898 608.054 548.011 606.27 544.519C605.746 543.491 604.834 542.89 603.476 542.657C596.492 541.454 592.728 547.546 592.573 547.817C592.418 548.089 592.088 548.205 591.797 548.108C588.674 547.099 586.462 547.216 585.24 548.438C582.776 550.863 584.6 556.955 584.619 557.013C584.677 557.226 584.619 557.44 584.503 557.614C584.367 557.789 584.154 557.886 583.94 557.866C583.882 557.866 577.926 557.44 575.404 560.369C574.298 561.63 574.007 563.415 574.492 565.626C574.997 567.935 576.2 569.642 578.023 570.729C582.582 573.445 589.663 571.466 589.741 571.446C589.799 571.446 589.857 571.427 589.915 571.427Z" fill="white"/>
<path d="M631.625 547.274C630.326 547.274 629.084 546.983 627.939 546.304C621.479 542.385 623.807 529.872 623.904 529.348C623.982 528.999 624.312 528.766 624.68 528.825C625.029 528.902 625.262 529.232 625.204 529.601C625.185 529.717 622.934 541.745 628.618 545.179C634.264 548.613 644.216 539.689 644.313 539.611C644.468 539.475 644.643 539.417 644.837 539.456C645.031 539.475 645.205 539.592 645.302 539.766C645.322 539.805 647.747 543.588 651.51 543.86C654.071 544.054 656.71 542.599 659.367 539.533C659.6 539.262 660.027 539.223 660.299 539.456C660.57 539.689 660.609 540.115 660.376 540.387C657.447 543.782 654.42 545.412 651.413 545.159C647.96 544.907 645.574 542.288 644.643 541.066C642.8 542.618 636.844 547.274 631.606 547.274H631.625Z" fill="white"/>
<path d="M648.6 598.16C648.212 598.16 647.941 597.85 647.941 597.481C647.941 597.462 647.921 594.94 644.662 591.894C642.082 589.488 635.777 593.504 633.565 595.25C633.39 595.386 633.177 595.425 632.964 595.367C632.75 595.308 632.595 595.134 632.537 594.94C632.44 594.61 629.957 586.966 621.498 586.501C613.001 586.016 607.918 597.171 607.88 597.287C607.724 597.617 607.336 597.772 607.007 597.617C606.677 597.462 606.522 597.074 606.677 596.744C606.89 596.259 611.953 585.162 620.955 585.162C621.168 585.162 621.363 585.162 621.576 585.162C629.22 585.589 632.498 591.448 633.468 593.679C635.641 592.107 642.276 587.801 645.593 590.924C649.318 594.416 649.299 597.384 649.299 597.501C649.299 597.869 648.988 598.141 648.639 598.141L648.6 598.16Z" fill="white"/>
<path d="M598.607 516.506C598.471 516.506 598.335 516.506 598.199 516.506C596.511 516.409 595.289 515.807 594.552 514.701C593.582 513.246 593.757 511.287 594.009 510.142C590.827 510.375 580.894 510.414 579.187 502.091C577.422 493.517 586.423 487.677 588.984 486.203C587.956 484.496 587.102 481.469 589.469 479.161C592.825 475.921 601.73 483.72 602.739 484.612C603.01 484.845 603.03 485.272 602.797 485.543C602.564 485.815 602.137 485.834 601.866 485.601C598.432 482.517 592.263 478.307 590.4 480.111C587.859 482.575 590.362 485.892 590.459 486.028C590.575 486.183 590.614 486.377 590.575 486.571C590.536 486.765 590.4 486.921 590.226 487.018C590.109 487.076 578.663 493.051 580.468 501.82C582.252 510.492 594.649 508.765 594.785 508.746C595.018 508.707 595.25 508.804 595.386 508.978C595.541 509.153 595.58 509.405 595.503 509.619C595.503 509.638 594.571 512.373 595.658 513.984C596.143 514.721 597.035 515.128 598.277 515.206C603.282 515.439 606.638 508.998 606.677 508.94C606.832 508.61 607.24 508.474 607.569 508.649C607.899 508.804 608.016 509.211 607.86 509.541C607.705 509.832 604.252 516.544 598.626 516.544L598.607 516.506Z" fill="white"/>
<path d="M548.516 545.024C547.468 545.024 537.749 544.81 536.798 536.953C535.945 530.047 539.941 522.811 541.124 520.851C538.777 518.853 528.611 509.444 531.541 499.511C534.722 488.705 542.579 484.418 542.928 484.243C543.239 484.069 543.646 484.185 543.821 484.515C543.996 484.845 543.879 485.233 543.549 485.407C543.472 485.446 535.828 489.637 532.821 499.88C529.834 510.007 542.288 520.095 542.405 520.192C542.676 520.405 542.735 520.774 542.541 521.065C542.482 521.142 537.206 529.368 538.117 536.798C538.99 543.879 548.477 543.704 548.593 543.704C548.962 543.704 549.253 543.976 549.272 544.345C549.272 544.713 549.001 545.004 548.632 545.024H548.535H548.516Z" fill="#FFD39F"/>
<path d="M543.782 632.168C539.32 632.168 534.684 627.784 533.287 626.348C531.483 627.648 525.081 631.994 521.201 631.043C520.056 630.772 519.202 630.073 518.678 628.987C516.331 624.098 522.5 618.763 524.983 616.881C522.636 615.737 517.437 612.38 517.417 605.047C517.417 603.359 517.999 601.982 519.163 600.954C521.782 598.645 526.555 598.762 528.262 598.878C528.708 596.531 530.726 588.441 536.856 588.033C538.273 587.956 539.514 588.402 540.523 589.391C543.336 592.204 543.433 598.587 543.375 600.624C545.78 600.915 554.278 602.254 556.858 606.405C557.75 607.821 557.847 609.412 557.207 611.139C554.782 617.483 550.145 618.2 547.876 618.142C549.195 620.897 551.969 628.036 547.1 631.179C546.052 631.858 544.927 632.149 543.782 632.149V632.168ZM533.364 624.816C533.539 624.816 533.733 624.893 533.849 625.029C533.927 625.107 541.396 633.294 546.362 630.093C551.29 626.911 546.207 617.812 546.149 617.715C546.013 617.483 546.033 617.211 546.188 616.998C546.343 616.784 546.615 616.687 546.867 616.745C547.119 616.804 553.133 618.103 555.965 610.693C556.47 609.354 556.392 608.19 555.732 607.123C553.133 602.933 542.735 601.904 542.618 601.885C542.269 601.846 541.997 601.536 542.017 601.187C542.017 601.109 542.463 593.213 539.572 590.361C538.835 589.644 537.982 589.314 536.915 589.391C530.939 589.779 529.445 599.615 529.426 599.732C529.368 600.081 529.077 600.352 528.689 600.294C528.631 600.294 522.714 599.596 519.998 602.001C519.105 602.777 518.678 603.806 518.698 605.105C518.717 613.564 526.167 616.066 526.477 616.163C526.71 616.241 526.885 616.454 526.923 616.707C526.962 616.959 526.846 617.211 526.632 617.347C526.535 617.405 517.476 623.555 519.823 628.482C520.172 629.2 520.696 629.646 521.453 629.821C524.654 630.578 530.804 626.601 532.918 625.01C533.035 624.913 533.17 624.874 533.326 624.874L533.364 624.816Z" fill="#FFD39F"/>
<path d="M502.984 586.908C501.665 586.908 500.21 586.695 498.599 586.287C498.25 586.19 498.037 585.841 498.134 585.492C498.231 585.143 498.58 584.929 498.929 585.026C502.984 586.074 506.01 585.686 507.911 583.882C511.617 580.351 510.045 572.455 510.026 572.378C509.987 572.184 510.026 571.99 510.142 571.854C510.259 571.699 510.433 571.602 510.627 571.602C511.015 571.582 519.92 570.806 522.248 560.873C524.576 551.018 512.917 546.323 512.412 546.11C512.238 546.032 512.102 545.897 512.024 545.722C511.966 545.547 511.966 545.353 512.063 545.179C512.063 545.14 513.77 542.017 512.897 539.107C512.451 537.593 511.365 536.371 509.677 535.479C508.668 534.955 507.64 534.877 506.515 535.265C501.626 536.914 497.28 546.285 497.241 546.362C497.086 546.692 496.698 546.847 496.368 546.692C496.039 546.537 495.883 546.149 496.039 545.819C496.233 545.412 500.675 535.847 506.088 534.024C507.562 533.519 508.978 533.636 510.298 534.334C512.315 535.401 513.615 536.895 514.178 538.757C514.954 541.376 514.061 544.015 513.537 545.198C516.176 546.44 525.779 551.658 523.528 561.203C521.356 570.379 513.809 572.416 511.442 572.843C511.772 574.977 512.412 581.476 508.823 584.891C507.368 586.268 505.409 586.966 502.984 586.966V586.908Z" fill="#FFD39F"/>
<path d="M500.753 515.148C500.578 515.148 500.403 515.148 500.248 515.148C499.88 515.148 499.608 514.818 499.627 514.449C499.627 514.081 499.899 513.77 500.326 513.828C502.499 513.925 504.283 513.266 505.641 511.83C509.871 507.368 508.862 496.97 508.862 496.873C508.823 496.582 508.998 496.291 509.289 496.194C509.483 496.116 514.197 494.273 515.535 487.949C516.835 481.76 509.327 478.346 509.25 478.307C508.92 478.152 508.765 477.764 508.92 477.434C509.075 477.104 509.463 476.949 509.793 477.104C509.871 477.143 518.348 480.984 516.816 488.22C515.574 494.157 511.597 496.562 510.22 497.222C510.375 499.414 510.763 508.358 506.611 512.742C505.079 514.352 503.139 515.167 500.791 515.167L500.753 515.148Z" fill="#FFD39F"/>
<path d="M561.611 568.536C561.417 568.536 561.223 568.439 561.087 568.284C536.953 536.934 540.775 500.695 542.831 481.236C542.967 479.975 543.084 478.773 543.2 477.667L526.186 476.697C525.818 476.677 525.546 476.367 525.565 475.998C525.565 475.63 525.837 475.319 526.264 475.378L543.957 476.386C544.131 476.386 544.306 476.483 544.422 476.619C544.539 476.755 544.597 476.93 544.577 477.104C544.461 478.404 544.306 479.84 544.151 481.372C542.114 500.656 538.331 536.546 562.154 567.489C562.367 567.78 562.328 568.187 562.037 568.42C561.921 568.517 561.785 568.556 561.63 568.556L561.611 568.536Z" fill="white"/>
<path d="M273.23 402.511H418.439C423.929 402.511 428.371 406.973 428.371 412.444V606.483C428.371 611.973 423.909 616.416 418.439 616.416H273.23C267.739 616.416 263.297 611.954 263.297 606.483V412.444C263.297 406.954 267.759 402.511 273.23 402.511Z" fill="#D2D2DB"/>
<path d="M308.092 421.969H280.291C278.288 421.969 276.664 423.594 276.664 425.597V453.397C276.664 455.401 278.288 457.025 280.291 457.025H308.092C310.095 457.025 311.719 455.401 311.719 453.397V425.597C311.719 423.594 310.095 421.969 308.092 421.969Z" fill="white"/>
<path d="M308.092 475.746H280.291C278.288 475.746 276.664 477.37 276.664 479.374V507.174C276.664 509.178 278.288 510.802 280.291 510.802H308.092C310.095 510.802 311.719 509.178 311.719 507.174V479.374C311.719 477.37 310.095 475.746 308.092 475.746Z" fill="white"/>
<path d="M308.092 529.523H280.291C278.288 529.523 276.664 531.147 276.664 533.151V560.951C276.664 562.955 278.288 564.579 280.291 564.579H308.092C310.095 564.579 311.719 562.955 311.719 560.951V533.151C311.719 531.147 310.095 529.523 308.092 529.523Z" fill="white"/>
<path d="M293.425 450.875L282.406 439.74L286.557 435.646L292.882 442.048L301.573 430.738L306.19 434.288L293.425 450.875Z" fill="#7C4FD3"/>
<path d="M293.425 504.652L282.406 493.517L286.557 489.423L292.882 495.825L301.573 484.515L306.19 488.065L293.425 504.652Z" fill="#7C4FD3"/>
<path d="M293.425 558.429L282.406 547.293L286.557 543.2L292.882 549.602L301.573 538.292L306.19 541.842L293.425 558.429Z" fill="#7C4FD3"/>
<path d="M404.954 427.377L327.957 427.874L327.994 433.694L404.991 433.197L404.954 427.377Z" fill="#EA366E"/>
<path d="M385.036 443.471L327.963 443.84L328 449.66L385.074 449.291L385.036 443.471Z" fill="#EA366E"/>
<path d="M387.238 480.956L330.165 481.325L330.202 487.145L387.276 486.776L387.238 480.956Z" fill="#EFEFF4"/>
<path d="M404.975 496.808L330.17 497.291L330.208 503.111L405.013 502.628L404.975 496.808Z" fill="#EFEFF4"/>
<path d="M407.157 534.293L330.16 534.79L330.198 540.61L407.195 540.113L407.157 534.293Z" fill="#EFEFF4"/>
<path d="M387.241 550.387L330.167 550.756L330.205 556.576L387.278 556.207L387.241 550.387Z" fill="#EFEFF4"/>
<path d="M518.465 229.192L519.183 223.934L602.118 121.657C603.942 119.407 607.356 119.135 609.742 121.056C612.128 122.977 612.555 126.372 610.732 128.641L527.777 230.899L522.753 232.664L518.97 234.022C518.426 234.216 517.844 233.751 517.922 233.169L518.465 229.192Z" fill="#7C4FD3"/>
<path d="M593.33 155.86C593 155.86 592.67 155.743 592.398 155.51C591.836 155.006 591.797 154.133 592.301 153.551C592.418 153.435 603.689 140.96 607.821 134.423C611.236 129.029 606.851 125.731 606.347 125.382C605.726 124.936 605.571 124.082 605.998 123.462C606.425 122.841 607.298 122.686 607.918 123.112C610.402 124.82 614.088 129.708 610.15 135.916C605.882 142.648 594.804 154.909 594.338 155.413C594.067 155.724 593.698 155.86 593.31 155.86H593.33Z" fill="#FFAF45"/>
<path d="M523.722 221.626C523.722 221.626 523.528 221.587 523.451 221.529C523.276 221.393 523.237 221.121 523.393 220.947L539.068 201.624C539.204 201.45 539.475 201.411 539.65 201.566C539.824 201.702 539.863 201.973 539.708 202.148L524.033 221.47C523.955 221.567 523.839 221.626 523.703 221.626H523.722Z" fill="white"/>
<path d="M390 705L719 705" stroke="black" stroke-width="2" stroke-linecap="round"/>
<path d="M390 705L719 705" stroke="black" stroke-width="2" stroke-linecap="round"/>
</svg>
