<svg width="711" height="711" viewBox="0 0 711 711" fill="none" xmlns="http://www.w3.org/2000/svg">
<path d="M522.425 155.105H125.758C116.226 155.105 108.499 162.832 108.499 172.364V453.263C108.499 462.795 116.226 470.522 125.758 470.522H522.425C531.957 470.522 539.684 462.795 539.684 453.263V172.364C539.684 162.832 531.957 155.105 522.425 155.105Z" fill="#EEEEEE"/>
<path d="M254.574 188.219V284.578C254.574 288.933 251.036 292.452 246.699 292.452H150.341C148.617 292.452 147.035 291.901 145.737 290.959C143.747 289.537 142.467 287.208 142.467 284.578V188.219C142.467 183.865 146.004 180.327 150.341 180.327H246.699C251.054 180.327 254.574 183.865 254.574 188.219Z" fill="#EFEFF4"/>
<path d="M244.477 292.452H150.341C148.617 292.452 147.035 291.901 145.737 290.959C150.91 263.621 161.735 246.966 172.578 243.126C183.811 239.145 202.315 240.958 214.633 243.322C223.627 245.046 231.342 250.787 235.466 258.964C239.234 266.447 243.073 277.397 244.477 292.434V292.452Z" fill="#ADA4F7"/>
<path d="M212.056 206.919C212.056 206.919 219.877 193.712 213.389 190.886C206.883 188.06 199.151 195.294 199.151 195.294C199.151 195.294 184.629 196.592 179.119 204.359C173.609 212.127 187.171 225.76 187.171 225.76L212.056 206.919Z" fill="black"/>
<path d="M189.748 228.711L188.931 242.096C188.931 242.096 191.099 246.095 198.902 247.197C204.697 248.032 206.83 246.841 206.83 246.841L206.439 240.016L206.048 233.368L192.112 229.386L189.766 228.711H189.748Z" fill="#FC8165"/>
<path d="M192.077 229.386C192.077 229.76 192.201 230.186 192.379 230.702C194.956 237.563 203.062 239.518 206.403 240.016L206.012 233.368L192.077 229.386Z" fill="black"/>
<path d="M210.883 203.044C210.883 203.044 216.873 220.25 213.531 229.404C210.189 238.558 201.782 236.425 196.823 234.221C191.863 232.017 189.73 228.711 189.73 228.711C189.73 228.711 184.842 229.955 181.998 225.28C179.154 220.606 181.501 215.682 184.309 214.722C187.117 213.762 190.193 215.984 190.193 215.984L188.024 210.954C188.024 210.954 200.573 187.189 210.847 203.044H210.883Z" fill="#FC8165"/>
<path d="M189.322 223.236C189.18 223.236 189.055 223.201 188.948 223.094L183.189 218.384C182.923 218.17 182.887 217.797 183.1 217.53C183.314 217.264 183.687 217.228 183.954 217.442L189.713 222.152C189.979 222.365 190.015 222.739 189.802 223.005C189.677 223.147 189.517 223.218 189.339 223.218L189.322 223.236Z" fill="black"/>
<path d="M183.829 222.827C183.545 222.827 183.296 222.632 183.243 222.347C183.172 222.028 183.385 221.708 183.723 221.636L187.758 220.854C188.095 220.783 188.397 221.014 188.469 221.334C188.54 221.654 188.326 221.974 187.989 222.045L183.954 222.827C183.954 222.827 183.883 222.827 183.847 222.827H183.829Z" fill="black"/>
<path d="M199.294 210.207C199.151 210.207 199.009 210.154 198.903 210.065C198.654 209.852 198.618 209.461 198.849 209.212C200.84 206.937 203.275 207.523 204.271 208.163C204.555 208.341 204.644 208.714 204.466 208.998C204.288 209.283 203.915 209.372 203.648 209.194C203.56 209.141 201.569 207.967 199.756 210.012C199.631 210.154 199.471 210.225 199.311 210.225L199.294 210.207Z" fill="black"/>
<path d="M212.287 209.656C212.145 209.656 211.985 209.603 211.878 209.496C210.563 208.27 209.034 209.016 209.034 209.034C208.732 209.194 208.377 209.07 208.217 208.767C208.074 208.465 208.181 208.11 208.483 207.95C208.572 207.896 210.776 206.812 212.714 208.607C212.962 208.838 212.962 209.212 212.749 209.461C212.625 209.585 212.465 209.656 212.305 209.656H212.287Z" fill="black"/>
<path d="M208.554 222.916C208.554 222.916 208.412 222.916 208.341 222.881C208.021 222.774 207.861 222.419 207.985 222.116C209.692 217.442 207.47 214.74 207.363 214.633C207.15 214.384 207.185 213.993 207.434 213.78C207.683 213.567 208.056 213.584 208.288 213.851C208.394 213.975 211.078 217.175 209.123 222.543C209.034 222.792 208.803 222.934 208.554 222.934V222.916Z" fill="black"/>
<path d="M211.825 216.073C211.54 216.073 211.292 215.877 211.238 215.593L210.581 212.482C210.509 212.162 210.723 211.842 211.043 211.771C211.38 211.7 211.683 211.914 211.754 212.234L212.411 215.344C212.483 215.664 212.269 215.984 211.949 216.055C211.914 216.055 211.86 216.055 211.825 216.055V216.073Z" fill="black"/>
<path d="M202.066 216.304C201.782 216.304 201.533 216.108 201.479 215.824L200.822 212.713C200.751 212.393 200.964 212.074 201.284 212.002C201.622 211.931 201.924 212.145 201.995 212.465L202.653 215.575C202.724 215.895 202.51 216.215 202.19 216.286C202.155 216.286 202.102 216.286 202.066 216.286V216.304Z" fill="black"/>
<path d="M212.056 206.919C212.056 206.919 210.776 204.146 207.434 203.915C204.093 203.684 202.013 205.923 202.013 205.923C202.013 205.923 203.133 211.629 198.405 214.331C193.676 217.033 190.228 215.984 190.228 215.984L187.011 214.615L184.896 209.656L195.045 199.987L207.772 194.245L213.709 200.324L212.073 206.919H212.056Z" fill="black"/>
<path d="M205.568 227.36C205.052 227.36 201.995 227.236 200.804 224.232C200.68 223.929 200.84 223.574 201.142 223.45C201.444 223.325 201.8 223.485 201.924 223.787C202.884 226.205 205.497 226.169 205.603 226.169C205.941 226.169 206.208 226.436 206.226 226.756C206.226 227.093 205.977 227.36 205.639 227.378C205.639 227.378 205.603 227.378 205.568 227.378V227.36Z" fill="black"/>
<path d="M202.902 248.228C194.529 248.228 188.788 242.789 188.504 242.522C188.273 242.291 188.255 241.918 188.504 241.687C188.735 241.456 189.108 241.438 189.339 241.687C189.41 241.758 197.107 249.01 207.274 246.539C207.594 246.468 207.914 246.664 207.985 246.966C208.056 247.268 207.861 247.606 207.541 247.677C205.923 248.068 204.359 248.246 202.884 248.246L202.902 248.228Z" fill="white"/>
<path d="M229.777 291.439C229.458 291.439 229.191 291.172 229.191 290.852V276.135C229.191 275.815 229.458 275.548 229.777 275.548C230.097 275.548 230.364 275.815 230.364 276.135V290.852C230.364 291.172 230.097 291.439 229.777 291.439Z" fill="white"/>
<path d="M272.349 191.686H499.087C500.935 191.686 502.446 193.196 502.446 195.045V209.994C502.446 211.842 500.935 213.353 499.087 213.353H272.349C270.5 213.353 268.989 211.842 268.989 209.994V195.045C268.989 193.196 270.5 191.686 272.349 191.686Z" fill="white"/>
<path d="M499.069 223.894H272.349C270.493 223.894 268.989 225.398 268.989 227.253V242.202C268.989 244.058 270.493 245.562 272.349 245.562H499.069C500.924 245.562 502.428 244.058 502.428 242.202V227.253C502.428 225.398 500.924 223.894 499.069 223.894Z" fill="white"/>
<path d="M499.069 256.084H272.349C270.493 256.084 268.989 257.588 268.989 259.444V274.393C268.989 276.248 270.493 277.752 272.349 277.752H499.069C500.924 277.752 502.428 276.248 502.428 274.393V259.444C502.428 257.588 500.924 256.084 499.069 256.084Z" fill="white"/>
<path d="M385.718 309.054H145.737V310.831H385.718V309.054Z" fill="#ADA4F7"/>
<path d="M338.916 329.193H145.737V330.97H338.916V329.193Z" fill="#ADA4F7"/>
<path d="M275.69 348.87H145.737V350.647H275.69V348.87Z" fill="#ADA4F7"/>
<path d="M295.794 363.143H151.727C148.419 363.143 145.737 365.825 145.737 369.133V379.585C145.737 382.893 148.419 385.575 151.727 385.575H295.794C299.102 385.575 301.784 382.893 301.784 379.585V369.133C301.784 365.825 299.102 363.143 295.794 363.143Z" fill="#D2D2DB"/>
<path d="M295.794 392.419H151.727C148.419 392.419 145.737 395.101 145.737 398.409V408.861C145.737 412.169 148.419 414.851 151.727 414.851H295.794C299.102 414.851 301.784 412.169 301.784 408.861V398.409C301.784 395.101 299.102 392.419 295.794 392.419Z" fill="#D2D2DB"/>
<path d="M166.285 374.359C166.285 376.759 164.348 378.696 161.948 378.696C159.548 378.696 157.611 376.759 157.611 374.359C157.611 371.96 159.548 370.022 161.948 370.022C164.348 370.022 166.285 371.96 166.285 374.359Z" fill="#7C4FD3"/>
<path d="M182.141 374.359C182.141 376.759 180.203 378.696 177.803 378.696C175.404 378.696 173.466 376.759 173.466 374.359C173.466 371.96 175.404 370.022 177.803 370.022C180.203 370.022 182.141 371.96 182.141 374.359Z" fill="#7C4FD3"/>
<path d="M197.836 374.359C197.836 376.759 195.898 378.696 193.499 378.696C191.099 378.696 189.162 376.759 189.162 374.359C189.162 371.96 191.099 370.022 193.499 370.022C195.898 370.022 197.836 371.96 197.836 374.359Z" fill="#7C4FD3"/>
<path d="M213.673 374.359C213.673 376.759 211.736 378.696 209.336 378.696C206.936 378.696 204.999 376.759 204.999 374.359C204.999 371.96 206.936 370.022 209.336 370.022C211.736 370.022 213.673 371.96 213.673 374.359Z" fill="#7C4FD3"/>
<path d="M230.631 374.359C230.631 376.759 228.693 378.696 226.294 378.696C223.894 378.696 221.957 376.759 221.957 374.359C221.957 371.96 223.894 370.022 226.294 370.022C228.693 370.022 230.631 371.96 230.631 374.359Z" fill="#7C4FD3"/>
<path d="M246.486 374.359C246.486 376.759 244.548 378.696 242.149 378.696C239.749 378.696 237.812 376.759 237.812 374.359C237.812 371.96 239.749 370.022 242.149 370.022C244.548 370.022 246.486 371.96 246.486 374.359Z" fill="#7C4FD3"/>
<path d="M165.61 403.635C165.61 406.034 163.672 407.972 161.273 407.972C158.873 407.972 156.936 406.034 156.936 403.635C156.936 401.235 158.873 399.298 161.273 399.298C163.672 399.298 165.61 401.235 165.61 403.635Z" fill="#E4E4EA"/>
<path d="M181.447 403.635C181.447 406.034 179.51 407.972 177.11 407.972C174.71 407.972 172.773 406.034 172.773 403.635C172.773 401.235 174.71 399.298 177.11 399.298C179.51 399.298 181.447 401.235 181.447 403.635Z" fill="#E4E4EA"/>
<path d="M197.142 403.635C197.142 406.034 195.205 407.972 192.805 407.972C190.406 407.972 188.468 406.034 188.468 403.635C188.468 401.235 190.406 399.298 192.805 399.298C195.205 399.298 197.142 401.235 197.142 403.635Z" fill="#E4E4EA"/>
<path d="M212.998 403.635C212.998 406.034 211.06 407.972 208.661 407.972C206.261 407.972 204.324 406.034 204.324 403.635C204.324 401.235 206.261 399.298 208.661 399.298C211.06 399.298 212.998 401.235 212.998 403.635Z" fill="#E4E4EA"/>
<path d="M229.955 403.635C229.955 406.034 228.017 407.972 225.618 407.972C223.218 407.972 221.281 406.034 221.281 403.635C221.281 401.235 223.218 399.298 225.618 399.298C228.017 399.298 229.955 401.235 229.955 403.635Z" fill="#E4E4EA"/>
<path d="M245.793 403.635C245.793 406.034 243.855 407.972 241.456 407.972C239.056 407.972 237.119 406.034 237.119 403.635C237.119 401.235 239.056 399.298 241.456 399.298C243.855 399.298 245.793 401.235 245.793 403.635Z" fill="#E4E4EA"/>
<path d="M261.488 403.635C261.488 406.034 259.551 407.972 257.151 407.972C254.751 407.972 252.814 406.034 252.814 403.635C252.814 401.235 254.751 399.298 257.151 399.298C259.551 399.298 261.488 401.235 261.488 403.635Z" fill="#E4E4EA"/>
<path d="M277.681 403.635C277.681 406.034 275.744 407.972 273.344 407.972C270.944 407.972 269.007 406.034 269.007 403.635C269.007 401.235 270.944 399.298 273.344 399.298C275.744 399.298 277.681 401.235 277.681 403.635Z" fill="#E4E4EA"/>
<path d="M163.05 525.127H65.323C59.7416 525.127 55.209 520.594 55.209 515.013V463.163C55.209 457.582 59.7416 453.049 65.323 453.049H163.05C168.631 453.049 173.164 457.582 173.164 463.163V515.013C173.164 520.594 168.631 525.127 163.05 525.127ZM65.323 454.844C60.7192 454.844 56.9865 458.577 56.9865 463.181V515.031C56.9865 519.617 60.7192 523.367 65.323 523.367H163.05C167.636 523.367 171.386 519.634 171.386 515.031V463.181C171.386 458.595 167.654 454.844 163.05 454.844H65.323Z" fill="#7C4FD3"/>
<path d="M172.275 474.912H56.0977C55.6 474.912 55.209 474.521 55.209 474.024C55.209 473.526 55.6 473.135 56.0977 473.135H172.275C172.773 473.135 173.164 473.526 173.164 474.024C173.164 474.521 172.773 474.912 172.275 474.912Z" fill="#7C4FD3"/>
<path d="M70.5133 470.238C67.3849 470.238 64.8608 467.696 64.8608 464.567C64.8608 461.439 67.4027 458.915 70.5133 458.915C73.6239 458.915 76.1835 461.457 76.1835 464.567C76.1835 467.678 73.6417 470.238 70.5133 470.238ZM70.5133 460.692C68.3803 460.692 66.6383 462.434 66.6383 464.567C66.6383 466.7 68.3803 468.46 70.5133 468.46C72.6463 468.46 74.406 466.718 74.406 464.567C74.406 462.417 72.6641 460.692 70.5133 460.692Z" fill="#7C4FD3"/>
<path d="M570.88 376.386H421.765C413.372 376.386 406.567 383.19 406.567 391.583V530.939C406.567 539.333 413.372 546.137 421.765 546.137H570.88C579.273 546.137 586.077 539.333 586.077 530.939V391.583C586.077 383.19 579.273 376.386 570.88 376.386Z" fill="#BEBECC"/>
<path d="M539.24 376.386H390.126C381.732 376.386 374.928 383.19 374.928 391.583V530.939C374.928 539.333 381.732 546.137 390.126 546.137H539.24C547.634 546.137 554.438 539.333 554.438 530.939V391.583C554.438 383.19 547.634 376.386 539.24 376.386Z" fill="#D2D2DB"/>
<path d="M419.383 400.169C418.637 401.502 412.469 413.82 419.508 423.987C429.088 437.869 437.034 427.418 437.034 427.418V406.568L419.383 400.151V400.169Z" fill="#FC8165"/>
<path d="M419.044 429.985L431.139 424.906C432.47 424.347 433.095 422.816 432.537 421.485L419.653 390.806C419.094 389.475 417.563 388.85 416.232 389.409L404.137 394.488C402.807 395.047 402.181 396.578 402.74 397.909L415.624 428.588C416.182 429.918 417.714 430.544 419.044 429.985Z" fill="#80BAFF"/>
<path d="M422.281 428.614L434.376 423.535C435.707 422.976 436.332 421.445 435.773 420.114L422.89 389.435C422.331 388.104 420.799 387.479 419.469 388.037L407.374 393.116C406.044 393.675 405.418 395.207 405.977 396.537L418.86 427.217C419.419 428.547 420.951 429.173 422.281 428.614Z" fill="white"/>
<path d="M429.817 420.894C429.977 422.227 429.017 423.436 427.684 423.578C426.351 423.738 425.143 422.778 425 421.445C424.84 420.112 425.8 418.903 427.133 418.761C428.466 418.601 429.675 419.561 429.817 420.894Z" fill="#80BAFF"/>
<path d="M443.078 426.511C443.078 426.511 444.997 413.678 442.1 409.945C439.203 406.212 431.417 402.319 426.494 404.079C421.57 405.839 432.377 412.256 432.377 412.256C432.377 412.256 428.52 424.663 432.661 429.782C436.803 434.901 443.06 426.529 443.06 426.529L443.078 426.511Z" fill="#FFA28C"/>
<path d="M434.812 431.861C434.812 431.861 434.723 431.861 434.67 431.861C429.569 430.671 430.244 420.468 430.28 420.041C430.297 419.721 430.599 419.472 430.919 419.49C431.239 419.508 431.488 419.792 431.47 420.13C431.275 422.796 431.542 429.906 434.954 430.706C435.274 430.777 435.47 431.097 435.399 431.417C435.328 431.684 435.097 431.879 434.812 431.879V431.861Z" fill="black"/>
<path d="M482.911 407.172C482.911 407.172 460.55 425.391 459.146 424.698C457.742 424.005 445.815 415.651 445.815 415.651L424.769 431.364C424.769 431.364 440.66 471.464 463.43 470.504C486.199 469.562 493.683 442.58 493.683 442.58L482.929 407.172H482.911Z" fill="#7C4FD3"/>
<path d="M457.617 439.665C457.617 439.665 457.493 439.665 457.44 439.665C456.888 439.611 456.426 439.327 456.124 438.829C454.364 436.003 458.168 425.658 458.595 424.485C458.684 424.236 458.95 424.058 459.217 424.112C459.484 424.147 459.697 424.36 459.733 424.627C459.892 425.853 461.261 436.678 458.915 439.114C458.559 439.487 458.115 439.682 457.617 439.682V439.665ZM458.844 427.347C457.493 431.506 456.213 436.75 457.12 438.189C457.226 438.367 457.368 438.456 457.546 438.474C457.742 438.509 457.902 438.438 458.062 438.26C459.27 436.998 459.235 431.648 458.844 427.347Z" fill="#50447E"/>
<path d="M364.992 524.736L349.705 540.218L327.113 521.874L343.466 501.717L364.992 524.736Z" fill="#FFA28C"/>
<path d="M585.793 540.2V550.403C585.793 553.087 585.615 555.7 585.295 558.188C583.624 570.826 578.025 580.123 571.359 580.123H408.754C402.088 580.123 396.471 570.826 394.8 558.188C394.48 555.7 394.303 553.087 394.303 550.403V540.2C394.303 523.794 400.773 510.48 408.754 510.48H571.359C579.323 510.48 585.793 523.794 585.793 540.2Z" fill="#AFAFBF"/>
<path d="M495.247 474.575C495.247 474.575 428.591 448.303 404.488 448.303C380.367 448.303 335.646 502.375 335.646 502.375L369.845 527.402L421.41 493.025L495.247 474.557V474.575Z" fill="#EA366E"/>
<path d="M346.044 510.587C345.919 510.587 345.795 510.551 345.706 510.48C345.511 510.338 345.422 510.107 345.475 509.876C345.919 507.796 346.808 501.966 345.546 499.922C345.422 499.709 345.226 499.584 344.924 499.513C342.827 499.015 337.743 501.788 335.965 502.89C335.699 503.068 335.326 502.979 335.148 502.695C334.97 502.41 335.059 502.055 335.343 501.877C336.037 501.433 342.205 497.664 345.191 498.358C345.795 498.5 346.257 498.82 346.559 499.3C347.91 501.486 347.27 506.499 346.862 508.863C348.621 507.921 351.75 506.499 353.278 507.174C353.581 507.316 353.705 507.654 353.581 507.956C353.438 508.258 353.101 508.383 352.798 508.258C351.767 507.778 348.408 509.289 346.364 510.516C346.275 510.569 346.168 510.605 346.062 510.605L346.044 510.587Z" fill="#FFAF45"/>
<path d="M562.739 540.627V550.829C562.739 553.514 562.561 556.126 562.223 558.615C560.517 571.253 554.776 580.549 547.95 580.549H381.398C374.573 580.549 368.814 571.253 367.107 558.615C366.77 556.126 366.592 553.514 366.592 550.829V540.627C366.592 524.22 373.222 510.907 381.398 510.907H547.95C556.109 510.907 562.739 524.22 562.739 540.627Z" fill="#BEBECC"/>
<path d="M405.685 512.273C408.214 496.761 397.69 482.136 382.178 479.607C366.666 477.077 352.04 487.602 349.511 503.114C346.982 518.626 357.507 533.251 373.019 535.78C388.531 538.309 403.156 527.785 405.685 512.273Z" fill="#D2D2DB"/>
<path d="M390.25 507.725C390.25 514.693 384.598 520.363 377.612 520.363C370.627 520.363 364.974 514.711 364.974 507.725C364.974 500.74 370.627 495.087 377.612 495.087C384.598 495.087 390.25 500.74 390.25 507.725Z" fill="#AFAFBF"/>
<path d="M396.596 608.367H395.405C392.472 608.367 389.983 606.199 389.592 603.283L385.433 572.355H403.795L402.462 602.75C402.319 605.879 399.742 608.349 396.614 608.349L396.596 608.367Z" fill="#BEBECC"/>
<path d="M432.59 608.367H431.399C428.466 608.367 425.978 606.199 425.587 603.283L421.427 572.355H439.789L438.456 602.75C438.313 605.879 435.736 608.349 432.608 608.349L432.59 608.367Z" fill="#BEBECC"/>
<path d="M533.57 608.367H534.761C537.694 608.367 540.182 606.199 540.573 603.283L544.733 572.355H526.371L527.704 602.75C527.846 605.879 530.424 608.349 533.552 608.349L533.57 608.367Z" fill="#BEBECC"/>
<path d="M569.92 606.216H571.111C574.043 606.216 576.532 604.048 576.923 601.133L581.082 570.204H562.721L564.054 600.599C564.196 603.728 566.773 606.199 569.902 606.199L569.92 606.216Z" fill="#AFAFBF"/>
<path d="M522.745 520.967C522.745 525.411 502.108 529.02 476.672 529.02C451.236 529.02 430.6 525.411 430.6 520.967C430.6 516.524 451.236 512.915 476.672 512.915C502.108 512.915 522.745 516.524 522.745 520.967Z" fill="#AFAFBF"/>
<path d="M423.507 588.566L421.41 610.198H392.294V584.246L423.507 588.566Z" fill="#FFA28C"/>
<path d="M530.389 478.432C530.389 478.432 533.392 509.058 524.967 512.986C516.542 516.915 460.017 522.887 456.889 525.34C453.76 527.793 432.822 595.907 432.822 595.907L381.576 591.321C381.576 591.321 400.098 500.757 413.589 492.421C423.721 486.164 481.098 475.303 481.098 475.303L530.406 478.414L530.389 478.432Z" fill="#EA366E"/>
<path d="M456.249 526.264C456.142 526.264 456.035 526.229 455.946 526.176C455.591 525.962 447.13 520.79 446.348 516.47C446.17 515.493 446.383 514.604 446.97 513.857C447.681 512.969 448.463 512.88 448.979 512.969C452.463 513.538 456.373 524.256 456.817 525.482C456.906 525.713 456.817 525.98 456.64 526.14C456.533 526.229 456.391 526.282 456.266 526.282L456.249 526.264ZM448.659 514.124C448.463 514.124 448.197 514.213 447.894 514.604C447.521 515.084 447.397 515.635 447.503 516.275C447.983 518.888 452.267 522.318 455.058 524.22C453.369 519.937 450.632 514.462 448.783 514.16C448.748 514.16 448.694 514.16 448.659 514.16V514.124Z" fill="#FFAF45"/>
<path d="M418.032 487.266C418.032 487.266 417.926 487.266 417.872 487.248C417.019 487.017 409.554 484.849 408.487 481.56C408.203 480.672 408.398 479.747 409.056 478.912C409.874 477.863 410.798 477.739 411.42 477.81C414.744 478.219 418.21 485.595 418.583 486.431C418.672 486.644 418.637 486.893 418.495 487.07C418.388 487.213 418.21 487.284 418.05 487.284L418.032 487.266ZM411.1 478.965C410.816 478.965 410.407 479.072 409.98 479.641C409.554 480.174 409.447 480.671 409.607 481.187C410.229 483.089 414.317 484.831 416.895 485.702C415.597 483.196 413.162 479.214 411.26 478.983C411.207 478.983 411.153 478.983 411.1 478.983V478.965Z" fill="#FFAF45"/>
<path d="M527.491 480.618C527.491 480.618 536.094 423.756 533.321 419.401C524.771 405.963 496.385 399.973 482.911 407.172C474.486 411.669 477.134 427.169 473.633 452.569C471.66 466.878 471.446 472.104 471.446 472.104L527.491 480.618Z" fill="#7C4FD3"/>
<path d="M497.291 398.427L497.256 398.729L496.758 404.577L496.349 409.163C496.349 409.163 495.816 410.176 501.166 410.514C508.347 410.94 511.031 408.185 511.031 408.185L512.72 397.538L510.516 397.662L497.291 398.409V398.427Z" fill="#FFA28C"/>
<path d="M497.256 398.747L496.758 404.595C500.259 404.63 506.747 403.937 510 398.835C510.249 398.427 510.427 398.036 510.516 397.716L497.291 398.658L497.256 398.747Z" fill="black"/>
<path d="M498.624 370.626C498.624 370.626 490.039 384.9 491.319 393.716C492.598 402.533 500.526 402.195 505.361 401.164C510.213 400.115 512.737 397.556 512.737 397.556C512.737 397.556 516.879 399.582 520.292 395.938C523.705 392.294 522.531 387.424 520.185 386.055C517.857 384.669 514.675 386.073 514.675 386.073L517.554 381.967C517.554 381.967 510.764 358.344 498.606 370.626H498.624Z" fill="#FFA28C"/>
<path d="M586.059 479.267H512.844V536.165H586.059V479.267Z" fill="#BEBECC"/>
<path d="M532.972 527.854C544.085 516.741 544.085 498.722 532.972 487.609C521.858 476.495 503.84 476.495 492.726 487.609C481.613 498.722 481.613 516.741 492.726 527.854C503.84 538.968 521.858 538.968 532.972 527.854Z" fill="#D2D2DB"/>
<path d="M525.482 507.725C525.482 514.693 519.83 520.363 512.844 520.363C505.858 520.363 500.206 514.711 500.206 507.725C500.206 500.74 505.858 495.087 512.844 495.087C519.83 495.087 525.482 500.74 525.482 507.725Z" fill="#AFAFBF"/>
<path d="M503.05 411.509C498.304 411.509 494.891 409.838 494.678 409.732C494.376 409.589 494.269 409.234 494.411 408.932C494.554 408.647 494.927 408.523 495.211 408.665C495.282 408.701 502.908 412.416 511.049 408.487C511.333 408.345 511.706 408.47 511.831 408.772C511.973 409.074 511.849 409.429 511.546 409.554C508.525 411.011 505.592 411.491 503.032 411.491L503.05 411.509Z" fill="#50447E"/>
<path d="M472.317 461.866C472.317 461.866 472.264 461.866 472.229 461.866C471.909 461.812 471.677 461.51 471.731 461.19L474.699 441.655C474.753 441.335 475.055 441.104 475.375 441.158C475.695 441.211 475.926 441.513 475.872 441.833L472.904 461.368C472.868 461.67 472.602 461.866 472.317 461.866Z" fill="#50447E"/>
<path d="M627.363 493.639C620.2 508.054 608.379 516.764 600.949 513.085C593.537 509.405 593.324 494.723 600.487 480.29C607.651 465.857 619.471 457.165 626.901 460.844C634.313 464.523 634.526 479.206 627.363 493.639Z" fill="#EEEEEE"/>
<path d="M550.824 492.608C564.866 500.5 572.936 512.765 568.883 519.981C564.813 527.198 550.149 526.647 536.106 518.755C522.064 510.863 513.994 498.598 518.047 491.381C522.117 484.165 536.782 484.716 550.824 492.608Z" fill="white"/>
<path d="M547.874 550.91C536.071 549.132 527.237 542.769 528.161 536.69C529.085 530.611 539.395 527.145 551.198 528.922C563 530.7 571.834 537.063 570.91 543.142C569.986 549.221 559.676 552.687 547.874 550.91Z" fill="white"/>
<path d="M616.023 509.316C628.892 499.629 643.361 497.123 648.338 503.735C653.332 510.347 646.933 523.572 634.082 533.259C621.213 542.947 606.744 545.453 601.767 538.841C596.772 532.228 603.171 519.004 616.023 509.316Z" fill="#EEEEEE"/>
<path d="M584.294 561.93C584.045 561.93 583.814 561.77 583.725 561.522C575.282 534.184 546.095 538.29 545.811 538.325C545.491 538.379 545.189 538.147 545.136 537.827C545.082 537.508 545.313 537.205 545.633 537.152C545.935 537.099 576.117 532.851 584.863 561.166C584.952 561.486 584.792 561.806 584.472 561.913C584.418 561.93 584.347 561.93 584.294 561.93Z" fill="#484451"/>
<path d="M586.747 559.869C586.48 559.869 586.232 559.691 586.178 559.406C578.375 525.918 549.153 506.899 548.851 506.704C548.566 506.526 548.495 506.152 548.673 505.886C548.851 505.601 549.224 505.53 549.491 505.708C549.793 505.904 579.406 525.172 587.334 559.14C587.405 559.46 587.209 559.78 586.889 559.851C586.836 559.851 586.8 559.851 586.747 559.851V559.869Z" fill="#484451"/>
<path d="M584.756 573.378C584.454 573.378 584.205 573.164 584.17 572.862C579.975 539.943 614.316 480.805 614.672 480.219C614.832 479.934 615.205 479.846 615.489 480.006C615.774 480.165 615.862 480.539 615.702 480.823C615.365 481.41 581.201 540.209 585.361 572.72C585.396 573.04 585.165 573.342 584.845 573.378C584.827 573.378 584.792 573.378 584.774 573.378H584.756Z" fill="#484451"/>
<path d="M588.205 557.451C587.796 557.398 587.583 557.113 587.618 556.776C587.654 556.527 591.351 532.051 630.865 513.902C631.167 513.76 631.522 513.902 631.647 514.187C631.789 514.489 631.647 514.844 631.362 514.969C592.417 532.851 588.827 556.687 588.791 556.936C588.756 557.238 588.489 557.451 588.205 557.451Z" fill="#484451"/>
<path d="M607.278 608.27H574.074C572.279 608.27 570.768 606.99 570.59 605.301L565.506 556.936C565.311 554.998 566.928 553.327 568.99 553.327H612.361C614.423 553.327 616.041 554.998 615.845 556.936L610.761 605.301C610.584 606.99 609.073 608.27 607.278 608.27Z" fill="#C7C7D1"/>
<path d="M599.918 608.27H566.714C564.919 608.27 563.408 606.99 563.231 605.301L558.147 556.936C557.951 554.998 559.569 553.327 561.631 553.327H605.002C607.064 553.327 608.681 554.998 608.486 556.936L603.402 605.301C603.224 606.99 601.713 608.27 599.918 608.27Z" fill="#D2D2DB"/>
<path d="M420 402C420 403.107 418.884 404 417.5 404C416.116 404 415 403.107 415 402C415 400.893 416.116 400 417.5 400C418.884 400 420 400.893 420 402Z" fill="#ADA4F7"/>
<path d="M427 410.375L419.528 413L417.318 408.669C416.456 406.962 417.406 404.98 419.462 404.264C421.518 403.548 423.905 404.337 424.767 406.044L426.978 410.375H427Z" fill="#ADA4F7"/>
<path d="M513.538 393.29C513.36 393.29 513.2 393.219 513.076 393.076C512.862 392.828 512.898 392.454 513.164 392.241L518.017 388.242C518.266 388.028 518.639 388.064 518.852 388.33C519.066 388.579 519.03 388.953 518.764 389.166L513.911 393.165C513.804 393.254 513.662 393.307 513.538 393.307V393.29Z" fill="black"/>
<path d="M518.443 392.632C518.443 392.632 518.372 392.632 518.337 392.632L514.977 392.028C514.657 391.974 514.444 391.654 514.497 391.334C514.551 391.014 514.853 390.783 515.191 390.854L518.55 391.459C518.87 391.512 519.083 391.832 519.03 392.152C518.977 392.436 518.728 392.632 518.443 392.632Z" fill="black"/>
<path d="M507.156 379.141C507.156 379.141 507.032 379.141 506.961 379.105L503.477 377.896C503.174 377.79 502.997 377.452 503.103 377.15C503.21 376.848 503.548 376.688 503.85 376.777L507.334 377.985C507.636 378.092 507.814 378.43 507.707 378.732C507.618 378.981 507.387 379.123 507.138 379.123L507.156 379.141Z" fill="black"/>
<path d="M499.051 377.577L496.349 377.381C496.029 377.363 495.78 377.079 495.798 376.741C495.816 376.421 496.083 376.155 496.438 376.19L499.104 376.386C499.424 376.403 499.673 376.688 499.655 377.026C499.638 377.328 499.371 377.577 499.069 377.577H499.051Z" fill="black"/>
<path d="M498.358 389.308C498.091 389.308 497.86 389.13 497.789 388.881C496.776 385.309 499.442 382.18 499.549 382.056C499.762 381.807 500.135 381.789 500.384 382.003C500.633 382.216 500.651 382.589 500.437 382.838C500.42 382.874 498.073 385.611 498.909 388.562C498.998 388.881 498.82 389.201 498.5 389.29C498.447 389.29 498.393 389.308 498.34 389.308H498.358Z" fill="black"/>
<path d="M504.526 385.22C504.526 385.22 504.437 385.22 504.384 385.22C504.064 385.131 503.868 384.811 503.957 384.491L504.65 381.789C504.739 381.469 505.059 381.274 505.379 381.363C505.699 381.451 505.895 381.771 505.806 382.091L505.112 384.793C505.041 385.06 504.81 385.238 504.544 385.238L504.526 385.22Z" fill="black"/>
<path d="M496.118 383.638C496.118 383.638 496.029 383.638 495.976 383.638C495.656 383.549 495.46 383.229 495.549 382.909L496.243 380.207C496.331 379.887 496.651 379.692 496.971 379.781C497.291 379.87 497.487 380.189 497.398 380.509L496.705 383.211C496.634 383.478 496.402 383.656 496.136 383.656L496.118 383.638Z" fill="black"/>
<path d="M386.18 603.23C386.18 603.23 387.921 593.649 392.472 593.187C397.022 592.725 403.546 603.23 403.546 603.23C403.546 603.23 421.321 601.861 422.583 603.23C423.845 604.599 423.845 634.727 422.583 635.19C421.321 635.652 347.608 635.652 344.248 635.19C340.889 634.727 345.688 619.21 352.3 616.473C358.913 613.735 366.023 613.717 366.023 613.717L386.18 603.23Z" fill="#F58220"/>
<path d="M328.66 510.711C328.66 510.711 336.019 504.312 339.858 506.801C343.697 509.289 342.222 521.554 342.222 521.554C342.222 521.554 356.958 531.579 357.082 533.445C357.206 535.294 338.383 558.828 337.121 558.402C335.859 557.975 278.268 511.938 275.939 509.485C273.611 507.032 287.048 497.913 293.91 499.886C300.789 501.877 306.352 506.303 306.352 506.303L328.642 510.693L328.66 510.711Z" fill="#F58220"/>
<path d="M406.976 502.304C406.869 502.304 406.763 502.286 406.674 502.215C406.39 502.037 406.301 501.681 406.478 501.397C406.887 500.722 416.539 484.777 423.347 482.644C429.977 480.565 457.937 475.854 459.128 475.659C459.483 475.606 459.75 475.819 459.803 476.139C459.857 476.459 459.643 476.761 459.324 476.814C459.039 476.868 430.244 481.702 423.702 483.764C417.321 485.773 407.598 501.842 407.492 502.001C407.385 502.179 407.189 502.286 406.976 502.286V502.304Z" fill="#FFAF45"/>
<path d="M483.249 464.23C483.249 464.23 476.37 465.669 472.957 466.256C467.803 467.145 457.653 471.34 453.565 473.046C449.477 474.735 441.247 483.64 442.971 484.529C444.695 485.417 453.529 480.032 453.529 480.032C453.529 480.032 448.286 489.755 449.992 490.75C451.698 491.745 454.063 489.097 454.063 489.097C454.063 489.097 452.374 492.03 454.987 492.065C457.6 492.101 464.336 482.751 464.336 482.751C464.336 482.751 462.541 490.821 464.39 490.981C466.238 491.159 470.362 483.018 470.362 483.018C470.362 483.018 480.032 486.146 483.285 480.423C486.537 474.699 486.591 470.984 486.591 470.984L483.249 464.212V464.23Z" fill="#FFA28C"/>
<path d="M524.114 411.029C524.114 411.029 559.628 432.715 547.132 466.38C537.907 491.265 486.537 483.444 486.537 483.444L472.317 461.279C472.317 461.279 505.201 443.753 507.725 442.829C512.613 441.051 524.096 411.029 524.096 411.029H524.114Z" fill="#7C4FD3"/>
<path d="M502.446 452.943C502.197 452.943 501.948 452.783 501.877 452.516C501.788 452.196 501.966 451.876 502.268 451.769C502.375 451.734 512.88 448.57 528.788 445.193C529.108 445.122 529.428 445.335 529.499 445.655C529.57 445.975 529.357 446.295 529.037 446.366C513.182 449.725 502.712 452.871 502.606 452.907C502.552 452.907 502.499 452.925 502.428 452.925L502.446 452.943Z" fill="#50447E"/>
<path d="M516.097 449.352C515.937 449.352 515.777 449.281 515.653 449.156C515.457 448.961 515.439 448.641 515.599 448.428C516.648 446.899 522.016 439.327 525.269 440.411C525.98 440.642 526.122 441.122 526.158 441.389C526.353 443.397 519.385 447.574 516.381 449.263C516.292 449.316 516.186 449.334 516.097 449.334V449.352ZM524.647 441.46C523.118 441.46 520.47 444.055 518.301 446.757C522.087 444.428 524.949 442.206 524.967 441.495C524.86 441.46 524.753 441.442 524.647 441.442V441.46Z" fill="#50447E"/>
<path d="M454.062 489.683C453.973 489.683 453.867 489.666 453.778 489.612C453.493 489.452 453.387 489.097 453.547 488.812L459.821 477.49C459.981 477.205 460.337 477.099 460.621 477.259C460.906 477.419 461.012 477.774 460.852 478.059L454.578 489.381C454.471 489.577 454.276 489.683 454.062 489.683Z" fill="black"/>
<path d="M453.529 480.618C453.44 480.618 453.334 480.6 453.245 480.547C452.96 480.387 452.854 480.032 453.014 479.747L455.271 475.677C455.431 475.392 455.786 475.286 456.071 475.446C456.355 475.606 456.462 475.961 456.302 476.246L454.045 480.316C453.938 480.512 453.742 480.618 453.529 480.618Z" fill="black"/>
<path d="M513.822 387.211C513.822 387.211 509.574 384.331 509.823 379.976C510.072 375.621 511.031 374.501 511.031 374.501C511.031 374.501 506.072 374.253 501.966 372.902C499.3 372.031 498.145 371.071 498.145 371.071L496.776 373.933C495.532 373.879 492.883 364.779 494.767 363.428C496.652 362.077 506.748 365.596 506.748 365.596C506.748 365.596 517.377 363.09 523.581 370.644C529.784 378.199 522.123 388.686 522.123 388.686C522.123 388.686 521.003 383.211 513.804 387.175L513.822 387.211Z" fill="black"/>
<path d="M500.26 395.156C498.624 395.156 497.327 393.592 497.256 393.521C497.131 393.361 497.096 393.165 497.149 392.97C497.202 392.774 497.362 392.632 497.558 392.579L502.499 391.174C502.695 391.121 502.89 391.174 503.033 391.281C503.175 391.405 503.264 391.601 503.246 391.779C503.246 391.885 503.015 394.392 501.024 395.032C500.757 395.12 500.508 395.156 500.26 395.156ZM498.891 393.432C499.371 393.787 500.029 394.125 500.668 393.912C501.308 393.698 501.664 393.112 501.859 392.579L498.891 393.414V393.432Z" fill="black"/>
<path d="M432.821 596.511C432.821 596.511 432.697 596.511 432.643 596.493C432.323 596.405 432.163 596.067 432.252 595.747C432.306 595.587 433.408 591.801 430.297 590.059C429.781 589.775 429.248 589.721 428.679 589.899C426.635 590.557 424.645 594.041 424.058 595.338C423.951 595.569 423.738 595.711 423.471 595.676C423.223 595.658 423.009 595.48 422.956 595.231C422.583 593.756 421.072 589.792 418.761 589.277C416.486 588.797 413.677 592.156 412.789 593.49C412.646 593.703 412.415 593.792 412.166 593.738C411.918 593.685 411.74 593.489 411.704 593.241C411.704 593.17 410.798 586.557 405.874 584.798C401.057 583.056 395.174 591.588 395.102 591.659C394.978 591.836 394.765 591.943 394.534 591.908C394.32 591.872 394.125 591.73 394.054 591.516C394.054 591.481 392.792 587.979 389.948 586.344C387.815 585.1 383.407 589.899 382.038 591.676C381.842 591.943 381.469 591.979 381.202 591.783C380.936 591.588 380.9 591.214 381.096 590.948C381.7 590.166 387.104 583.322 390.534 585.313C392.774 586.611 394.107 588.832 394.729 590.13C396.471 587.855 401.537 581.989 406.247 583.66C410.425 585.153 412.024 589.49 412.593 591.712C413.855 590.148 416.432 587.517 418.992 588.086C421.463 588.637 422.956 591.694 423.631 593.525C424.538 591.943 426.262 589.401 428.288 588.726C429.177 588.441 430.048 588.513 430.866 588.975C434.03 590.752 433.888 594.378 433.372 596.049C433.301 596.298 433.052 596.458 432.803 596.458L432.821 596.511Z" fill="#FFAF45"/>
<path d="M495.247 483.551C495.052 483.551 494.874 483.462 494.749 483.285L478.894 459.75C478.716 459.484 478.788 459.111 479.054 458.933C479.321 458.755 479.694 458.826 479.872 459.093L495.727 482.627C495.905 482.893 495.834 483.267 495.567 483.445C495.46 483.516 495.354 483.551 495.229 483.551H495.247Z" fill="#50447E"/>
<path d="M490.057 414.317C489.914 414.317 489.79 414.264 489.683 414.175C489.434 413.962 489.399 413.589 489.612 413.34L491.976 410.514C492.19 410.265 492.563 410.229 492.812 410.443C493.061 410.656 493.096 411.029 492.883 411.278L490.519 414.104C490.394 414.246 490.234 414.317 490.057 414.317Z" fill="#50447E"/>
<path d="M494.945 416.29C494.945 416.29 494.803 416.29 494.732 416.255C494.429 416.131 494.287 415.793 494.412 415.491L495.78 412.113C495.905 411.811 496.243 411.669 496.545 411.793C496.847 411.918 496.989 412.256 496.865 412.558L495.496 415.935C495.407 416.166 495.176 416.308 494.945 416.308V416.29Z" fill="#50447E"/>
<path d="M503.672 417.286C503.37 417.286 503.121 417.073 503.086 416.77L502.552 412.398C502.517 412.078 502.748 411.776 503.068 411.74C503.388 411.687 503.69 411.936 503.726 412.256L504.259 416.628C504.294 416.948 504.063 417.25 503.743 417.286C503.726 417.286 503.69 417.286 503.672 417.286Z" fill="#50447E"/>
<path d="M510.516 415.1C510.338 415.1 510.16 415.028 510.036 414.868L508.365 412.682C508.169 412.416 508.223 412.042 508.471 411.847C508.738 411.651 509.111 411.705 509.307 411.953L510.978 414.14C511.173 414.406 511.12 414.78 510.871 414.975C510.764 415.064 510.64 415.1 510.516 415.1Z" fill="#50447E"/>
<path d="M515.084 413.429C514.942 413.429 514.817 413.393 514.711 413.287L512.364 411.349C512.115 411.136 512.08 410.763 512.275 410.514C512.489 410.265 512.862 410.229 513.111 410.425L515.457 412.362C515.706 412.576 515.741 412.949 515.546 413.198C515.422 413.34 515.262 413.411 515.084 413.411V413.429Z" fill="#50447E"/>
<path d="M428.218 439.434C428.04 439.434 427.88 439.362 427.755 439.22C427.542 438.971 427.596 438.598 427.844 438.385L451.165 419.614C451.414 419.401 451.787 419.454 452.001 419.703C452.214 419.952 452.161 420.325 451.912 420.539L428.591 439.309C428.484 439.398 428.342 439.434 428.218 439.434Z" fill="#50447E"/>
<path d="M431.666 436.661C431.47 436.661 431.275 436.572 431.168 436.394L426.902 429.693C426.724 429.408 426.813 429.053 427.08 428.875C427.364 428.697 427.72 428.786 427.897 429.053L432.163 435.754C432.341 436.039 432.252 436.394 431.986 436.572C431.879 436.643 431.772 436.661 431.666 436.661Z" fill="#50447E"/>
<path d="M437.638 431.861C437.443 431.861 437.247 431.755 437.123 431.577L433.177 424.983C433.017 424.698 433.106 424.343 433.39 424.165C433.674 423.987 434.03 424.094 434.208 424.378L438.154 430.973C438.314 431.257 438.225 431.613 437.94 431.79C437.851 431.844 437.745 431.879 437.638 431.879V431.861Z" fill="#50447E"/>
<path d="M443.7 426.973C443.504 426.973 443.309 426.867 443.184 426.689L439.362 420.379C439.185 420.094 439.291 419.739 439.558 419.561C439.842 419.401 440.198 419.472 440.376 419.757L444.197 426.067C444.375 426.351 444.268 426.707 444.002 426.884C443.913 426.938 443.806 426.973 443.7 426.973Z" fill="#50447E"/>
<path d="M449.548 422.281C449.352 422.281 449.157 422.174 449.05 421.996L445.317 415.935C445.14 415.651 445.228 415.295 445.513 415.117C445.797 414.94 446.153 415.028 446.33 415.313L450.063 421.374C450.241 421.659 450.152 422.014 449.868 422.192C449.779 422.245 449.654 422.281 449.566 422.281H449.548Z" fill="#50447E"/>
<path d="M475.286 465.723C475.072 465.723 474.859 465.598 474.752 465.385C474.61 465.083 474.735 464.727 475.019 464.585L481.009 461.67C481.311 461.528 481.667 461.652 481.809 461.937C481.951 462.239 481.827 462.594 481.543 462.737L475.552 465.652C475.552 465.652 475.375 465.705 475.286 465.705V465.723Z" fill="#50447E"/>
<path d="M479.392 471.784C479.196 471.784 478.983 471.677 478.876 471.482C478.716 471.197 478.805 470.842 479.09 470.664L484.76 467.376C485.044 467.216 485.4 467.305 485.578 467.589C485.737 467.874 485.649 468.229 485.364 468.407L479.694 471.695C479.605 471.749 479.499 471.766 479.392 471.766V471.784Z" fill="#50447E"/>
<path d="M482.84 478.272C482.609 478.272 482.378 478.13 482.289 477.899C482.164 477.596 482.307 477.241 482.627 477.134L489.594 474.344C489.897 474.219 490.252 474.379 490.359 474.681C490.483 474.984 490.341 475.339 490.021 475.446L483.053 478.236C483.053 478.236 482.911 478.272 482.84 478.272Z" fill="#50447E"/>
<path d="M486.537 484.031C486.306 484.031 486.075 483.889 485.986 483.658C485.862 483.356 486.022 483 486.324 482.893L493.47 480.067C493.772 479.943 494.127 480.103 494.234 480.405C494.358 480.707 494.198 481.063 493.896 481.169L486.751 483.995C486.751 483.995 486.608 484.031 486.537 484.031Z" fill="#50447E"/>
<path d="M349.812 199.613H237.421C234.114 199.613 231.413 196.911 231.413 193.605V123.358C231.413 120.052 234.114 117.351 237.421 117.351H349.812C353.118 117.351 355.82 120.052 355.82 123.358V193.605C355.82 196.911 353.118 199.613 349.812 199.613ZM237.421 119.128C235.092 119.128 233.19 121.03 233.19 123.358V193.605C233.19 195.934 235.092 197.836 237.421 197.836H349.812C352.14 197.836 354.042 195.934 354.042 193.605V123.358C354.042 121.03 352.14 119.128 349.812 119.128H237.421Z" fill="#EA366E"/>
<path d="M354.931 132.815H232.319C231.822 132.815 231.431 132.424 231.431 131.926C231.431 131.428 231.822 131.037 232.319 131.037H354.931C355.429 131.037 355.82 131.428 355.82 131.926C355.82 132.424 355.429 132.815 354.931 132.815Z" fill="#EA366E"/>
<path d="M244.744 128.371C244.566 128.371 244.371 128.318 244.211 128.193L237.687 123.394C237.296 123.11 237.207 122.541 237.492 122.15C237.776 121.759 238.345 121.67 238.736 121.954L245.26 126.754C245.651 127.038 245.739 127.607 245.455 127.998C245.277 128.229 245.011 128.353 244.744 128.353V128.371Z" fill="#EA366E"/>
<path d="M238.221 128.371C237.954 128.371 237.687 128.247 237.51 128.016C237.225 127.624 237.296 127.056 237.705 126.771L244.229 121.972C244.62 121.688 245.189 121.759 245.473 122.168C245.757 122.559 245.686 123.127 245.277 123.412L238.754 128.211C238.594 128.335 238.416 128.389 238.221 128.389V128.371Z" fill="#EA366E"/>
<path d="M430.51 79.2943V201.586C430.51 203.684 432.217 205.39 434.314 205.39H607.318C609.416 205.39 611.122 203.684 611.122 201.586V79.2943C611.122 77.1791 609.416 75.4727 607.318 75.4727H434.314C432.217 75.4727 430.51 77.1791 430.51 79.2943Z" fill="#D2D2DB"/>
<path d="M589.401 170.658H484.387V174.55H589.401V170.658Z" fill="#C5C5D1"/>
<path d="M430.51 79.2943V85.3556H611.14V79.2943C611.14 77.1791 609.433 75.4727 607.336 75.4727H434.332C432.234 75.4727 430.528 77.1791 430.528 79.2943H430.51Z" fill="#EFEFF4"/>
<path d="M476.601 107.112H450.49V133.224H476.601V107.112Z" fill="white"/>
<path d="M476.601 138.858H450.49V164.97H476.601V138.858Z" fill="white"/>
<path d="M476.228 170.622H450.116V196.734H476.228V170.622Z" fill="white"/>
<path d="M589.401 107.112H484.387V111.005H589.401V107.112Z" fill="white"/>
<path d="M589.401 115.164H484.387V119.057H589.401V115.164Z" fill="#ADA4F7"/>
<path d="M589.401 138.858H484.387V142.751H589.401V138.858Z" fill="#C5C5D1"/>
<path d="M589.401 146.91H484.387V150.803H589.401V146.91Z" fill="#ADA4F7"/>
<path d="M589.401 123.927H484.387V127.82H589.401V123.927Z" fill="white"/>
<path d="M462.47 129.118L452.25 121.812L454.596 118.524L461.848 123.696L471.429 112.8L474.451 115.466L462.47 129.118Z" fill="#EA366E"/>
<path d="M463.128 160.757L452.889 153.452L455.235 150.163L462.505 155.336L472.068 144.457L475.108 147.124L463.128 160.757Z" fill="#EA366E"/>
<path d="M451.485 80.4141C451.485 81.8361 452.64 82.9915 454.062 82.9915C455.484 82.9915 456.64 81.8361 456.64 80.4141C456.64 78.9921 455.484 77.8367 454.062 77.8367C452.64 77.8367 451.485 78.9921 451.485 80.4141Z" fill="#EA366E"/>
<path d="M444.02 80.4141C444.02 81.8361 445.175 82.9915 446.597 82.9915C448.019 82.9915 449.174 81.8361 449.174 80.4141C449.174 78.9921 448.019 77.8367 446.597 77.8367C445.175 77.8367 444.02 78.9921 444.02 80.4141Z" fill="#80BAFF"/>
<path d="M436.572 80.4141C436.572 81.8361 437.727 82.9915 439.149 82.9915C440.571 82.9915 441.727 81.8361 441.727 80.4141C441.727 78.9921 440.571 77.8367 439.149 77.8367C437.727 77.8367 436.572 78.9921 436.572 80.4141Z" fill="#FFAF45"/>
<path d="M439.771 361.757C456.391 361.757 469.864 348.284 469.864 331.664C469.864 315.044 456.391 301.571 439.771 301.571C423.151 301.571 409.678 315.044 409.678 331.664C409.678 348.284 423.151 361.757 439.771 361.757Z" fill="white"/>
<path d="M435.665 361.757C452.285 361.757 465.758 348.284 465.758 331.664C465.758 315.044 452.285 301.571 435.665 301.571C419.045 301.571 405.572 315.044 405.572 331.664C405.572 348.284 419.045 361.757 435.665 361.757Z" fill="#80BAFF"/>
<path d="M433.141 347.75L418.21 330.864L423.525 326.153L433.052 336.925L449.334 317.906L454.738 322.527L433.141 347.75Z" fill="white"/>
<path d="M108.499 88.6795L102.722 93.3721C96.1627 98.7046 88.715 102.828 80.734 105.566L70.5845 109.032V128.513C70.5845 151.194 84.7156 171.618 106.081 179.208C107.61 179.741 108.499 179.972 108.499 179.972C108.499 179.972 110.24 179.492 112.96 178.39C133.241 170.196 146.43 150.359 146.43 128.495V109.05L135.819 105.299C128.62 102.757 121.865 99.0601 115.822 94.3852L108.499 88.715V88.6795Z" fill="#80BAFF"/>
<path d="M108.498 100.34L104.197 103.824C99.3087 107.788 93.7629 110.863 87.8083 112.907L80.2539 115.484V129.989C80.2539 146.875 90.7767 162.09 106.685 167.743C107.823 168.134 108.481 168.311 108.481 168.311C108.481 168.311 109.778 167.956 111.805 167.138C126.913 161.041 136.725 146.253 136.725 129.971V115.484L128.815 112.694C123.447 110.792 118.417 108.054 113.92 104.57L108.463 100.34H108.498Z" fill="#BDDEFF"/>
<path d="M106.561 147.941L92.6968 135.89L96.4295 131.588L106.01 139.925L121.457 122.274L125.74 126.007L106.561 147.941Z" fill="#9364ED"/>
<path d="M460 609L645 609" stroke="black" stroke-width="2" stroke-linecap="round"/>
<path d="M460 609L645 609" stroke="black" stroke-width="2" stroke-linecap="round"/>
<path d="M188 636L449 636" stroke="black" stroke-width="2" stroke-linecap="round"/>
<path d="M188 636L449 636" stroke="black" stroke-width="2" stroke-linecap="round"/>
</svg>
