<svg width="230" height="48" viewBox="0 0 230 48" fill="none" xmlns="http://www.w3.org/2000/svg">
<path fill-rule="evenodd" clip-rule="evenodd" d="M24.0333 1.02013C30.2107 1.02013 36.1352 3.44871 40.5033 7.7716C44.8714 12.0945 47.3253 17.9576 47.3253 24.0711C47.3253 30.1846 44.8714 36.0477 40.5033 40.3706C36.1352 44.6935 30.2107 47.1221 24.0333 47.1221C17.8558 47.1221 11.9314 44.6935 7.5633 40.3706C3.19519 36.0477 0.741211 30.1846 0.741211 24.0711C0.741211 17.9576 3.19519 12.0945 7.5633 7.7716C11.9314 3.44871 17.8558 1.02013 24.0333 1.02013Z" fill="#F58220"/>
<path d="M60.9712 34.9566H67.3616C69.65 34.9566 70.7935 33.8531 70.7935 31.6792V28.8591C70.7935 26.6594 69.5843 25.5817 67.1882 25.5817H60.9712C60.6255 25.5817 60.4756 25.7325 60.4756 26.0341V34.5299C60.4744 34.8009 60.6466 34.9566 60.9712 34.9566ZM60.9712 21.9107H66.9082C69.2176 21.9107 70.3834 20.7888 70.3834 18.5683V16.4765C70.3834 14.2769 69.2609 13.1991 66.9937 13.1991H60.9489C60.6032 13.1991 60.4533 13.35 60.4533 13.6516V21.457C60.4517 21.5222 60.4645 21.5869 60.4908 21.6467C60.5171 21.7065 60.5563 21.7598 60.6057 21.803C60.655 21.8462 60.7133 21.8783 60.7764 21.8969C60.8395 21.9155 60.906 21.9202 60.9712 21.9107ZM56.0489 37.9728V10.1559C56.0333 10.0511 56.0425 9.94406 56.0759 9.84336C56.1093 9.74266 56.166 9.65104 56.2413 9.57574C56.3167 9.50045 56.4087 9.44354 56.5102 9.40953C56.6116 9.37552 56.7196 9.36533 56.8257 9.37979H67.6627C68.62 9.32127 69.5795 9.45334 70.4843 9.76819C71.3892 10.083 72.221 10.5743 72.9307 11.2128C73.5832 11.8983 74.0866 12.709 74.4097 13.5948C74.7328 14.4806 74.8686 15.4226 74.8089 16.3625V18.6161C74.9032 19.7716 74.5761 20.9224 73.887 21.8599C73.198 22.7973 72.1924 23.4596 71.0524 23.7266C72.2011 23.8554 73.2578 24.41 74.0098 25.2788C74.8277 26.2815 75.2429 27.5477 75.1757 28.8346V31.7674C75.2354 32.7073 75.0995 33.6493 74.7764 34.5352C74.4533 35.421 73.95 36.2317 73.2974 36.9171C72.5966 37.5495 71.7755 38.0372 70.882 38.352C69.9886 38.6667 69.0407 38.8021 68.0938 38.7502H56.8468C56.7395 38.7666 56.6298 38.758 56.5265 38.7251C56.4231 38.6922 56.329 38.6359 56.2515 38.5607C56.174 38.4854 56.1154 38.3933 56.0802 38.2917C56.045 38.1901 56.0343 38.0817 56.0489 37.9753V37.9728ZM81.7817 38.749H78.4985C78.0673 38.749 77.9162 38.4902 78.045 37.9728L85.9903 10.1559C86.0479 9.91652 86.1912 9.70592 86.3938 9.56319C86.5963 9.42046 86.8443 9.35529 87.0917 9.37979H91.6684C91.9167 9.34923 92.1675 9.41203 92.3713 9.55576C92.575 9.69949 92.7168 9.91367 92.7686 10.1559L100.713 37.9728C100.837 38.4902 100.669 38.749 100.217 38.749H96.9785C96.6985 38.749 96.504 38.706 96.4173 38.5981C96.2735 38.4178 96.1837 38.2012 96.1583 37.9728L94.4312 32.0433H84.3711L82.644 37.9728C82.494 38.4927 82.2153 38.7514 81.7817 38.7514V38.749ZM89.2946 13.7791L85.278 28.4005H93.5454L89.4879 13.7815L89.2946 13.7791ZM116.084 38.749H110.773C109.819 38.8078 108.862 38.6716 107.963 38.3488C107.065 38.0261 106.242 37.5237 105.548 36.873C104.905 36.1723 104.41 35.352 104.091 34.4598C103.772 33.5677 103.635 32.6216 103.69 31.6767V16.4729C103.632 15.5243 103.766 14.5738 104.085 13.6775C104.404 12.7812 104.902 11.9573 105.548 11.2545C106.247 10.6114 107.07 10.1155 107.968 9.7968C108.866 9.47812 109.821 9.34333 110.773 9.40063H116.083C117.032 9.34513 117.982 9.48081 118.877 9.79948C119.771 10.1181 120.591 10.6131 121.286 11.2545C121.94 11.9533 122.444 12.7761 122.766 13.6731C123.089 14.57 123.225 15.5225 123.165 16.4729V18.6725C123.18 18.783 123.169 18.8954 123.133 19.001C123.098 19.1067 123.038 19.2029 122.959 19.282C122.879 19.3612 122.783 19.4213 122.676 19.4576C122.57 19.4939 122.456 19.5055 122.345 19.4916H119.474C118.956 19.4916 118.697 19.2108 118.697 18.6725V16.6703C118.697 14.4277 117.597 13.285 115.416 13.285H111.442C109.24 13.285 108.161 14.4056 108.161 16.6703V31.5063C108.161 33.7488 109.263 34.8916 111.442 34.8916H115.419C117.62 34.8916 118.7 33.7709 118.7 31.5063V29.5004C118.7 28.9609 118.959 28.6813 119.476 28.6813H122.347C122.459 28.6673 122.572 28.679 122.679 28.7153C122.785 28.7516 122.882 28.8117 122.961 28.8909C123.04 28.97 123.1 29.0662 123.136 29.1718C123.172 29.2775 123.182 29.3899 123.167 29.5004V31.7C123.262 32.6455 123.145 33.6001 122.823 34.4954C122.502 35.3907 121.984 36.2045 121.307 36.8785C120.631 37.5524 119.812 38.0699 118.909 38.3937C118.006 38.7175 117.043 38.8397 116.087 38.7514L116.084 38.749ZM129.361 38.749H126.074C125.642 38.749 125.491 38.4902 125.62 37.9728L133.569 10.1559C133.627 9.91652 133.77 9.70592 133.973 9.56319C134.175 9.42046 134.423 9.35529 134.671 9.37979H139.247C139.496 9.3489 139.747 9.41155 139.951 9.55531C140.155 9.69906 140.297 9.91343 140.349 10.1559L148.293 37.9728C148.417 38.4902 148.25 38.749 147.797 38.749H144.559C144.277 38.749 144.084 38.706 143.997 38.5981C143.854 38.4178 143.764 38.2012 143.739 37.9728L142.011 32.0433H131.953L130.225 37.9728C130.051 38.4927 129.77 38.7514 129.359 38.7514L129.361 38.749ZM136.853 13.7815L132.836 28.4005H141.103L137.045 13.7803L136.853 13.7815ZM155.331 38.7514H152.503C152.397 38.7659 152.289 38.7557 152.187 38.7217C152.086 38.6877 151.994 38.6307 151.918 38.5555C151.843 38.4802 151.786 38.3885 151.753 38.2878C151.72 38.1871 151.71 38.0801 151.726 37.9753V10.1559C151.71 10.0511 151.72 9.94406 151.753 9.84336C151.786 9.74266 151.843 9.65104 151.918 9.57574C151.994 9.50045 152.086 9.44354 152.187 9.40953C152.289 9.37552 152.397 9.36533 152.503 9.37979H155.065C155.263 9.36025 155.463 9.39578 155.643 9.4824C155.822 9.56903 155.973 9.70332 156.08 9.87023L167.132 29.7333H167.304V10.1804C167.289 10.0756 167.298 9.96858 167.331 9.86788C167.365 9.76719 167.421 9.67556 167.497 9.60027C167.572 9.52497 167.664 9.46806 167.766 9.43405C167.867 9.40004 167.975 9.38986 168.081 9.40431H170.91C171.016 9.38986 171.124 9.40004 171.225 9.43405C171.327 9.46806 171.419 9.52497 171.494 9.60027C171.57 9.67556 171.626 9.76719 171.66 9.86788C171.693 9.96858 171.702 10.0756 171.687 10.1804V37.9973C171.702 38.1022 171.693 38.2092 171.66 38.3099C171.626 38.4106 171.57 38.5022 171.494 38.5775C171.419 38.6528 171.327 38.7097 171.225 38.7437C171.124 38.7777 171.016 38.7879 170.91 38.7735H168.448C168.201 38.772 167.959 38.7024 167.749 38.5725C167.539 38.4426 167.37 38.2574 167.261 38.0378L156.304 18.3954H156.132V37.9753C156.143 38.0814 156.13 38.1888 156.093 38.2893C156.057 38.3897 155.998 38.4807 155.921 38.5554C155.844 38.63 155.75 38.6864 155.648 38.7204C155.546 38.7543 155.437 38.765 155.33 38.7514H155.331ZM189.201 38.7514H183.891C182.937 38.8102 181.981 38.674 181.082 38.3513C180.183 38.0285 179.361 37.5262 178.667 36.8754C178.024 36.1748 177.528 35.3545 177.209 34.4623C176.89 33.5701 176.754 32.624 176.808 31.6792V16.4753C176.75 15.5267 176.885 14.5762 177.204 13.6799C177.523 12.7837 178.02 11.9598 178.667 11.257C179.365 10.6139 180.189 10.1179 181.087 9.79925C181.985 9.48057 182.939 9.34579 183.891 9.40308H189.201C190.15 9.34758 191.101 9.48327 191.995 9.80193C192.89 10.1206 193.71 10.6156 194.405 11.257C195.059 11.9557 195.562 12.7785 195.885 13.6755C196.208 14.5725 196.343 15.525 196.283 16.4753V18.675C196.298 18.7854 196.288 18.8978 196.252 19.0035C196.216 19.1092 196.156 19.2053 196.077 19.2845C195.998 19.3636 195.901 19.4237 195.795 19.46C195.688 19.4964 195.575 19.508 195.463 19.494H192.592C192.075 19.494 191.816 19.2132 191.816 18.675V16.6703C191.816 14.4277 190.714 13.285 188.534 13.285H184.562C182.36 13.285 181.28 14.4056 181.28 16.6703V31.5063C181.28 33.7488 182.381 34.8916 184.562 34.8916H188.534C190.735 34.8916 191.816 33.7709 191.816 31.5063V29.5004C191.816 28.9609 192.075 28.6813 192.592 28.6813H195.463C195.575 28.6673 195.688 28.679 195.795 28.7153C195.901 28.7516 195.998 28.8117 196.077 28.8909C196.156 28.97 196.216 29.0662 196.252 29.1718C196.288 29.2775 196.298 29.3899 196.283 29.5004V31.7C196.341 32.6468 196.205 33.5955 195.882 34.4886C195.559 35.3817 195.057 36.2008 194.405 36.8963C193.711 37.5397 192.891 38.0361 191.996 38.3551C191.101 38.6741 190.15 38.8089 189.2 38.7514H189.201ZM210.617 38.7514H207.68C207.574 38.7659 207.466 38.7557 207.365 38.7217C207.263 38.6877 207.171 38.6307 207.096 38.5555C207.02 38.4802 206.964 38.3885 206.93 38.2878C206.897 38.1871 206.888 38.0801 206.903 37.9753V27.8843L198.355 10.2025C198.291 10.1145 198.257 10.0091 198.257 9.90089C198.257 9.79272 198.291 9.68726 198.355 9.59926C198.413 9.52427 198.488 9.46381 198.574 9.42272C198.66 9.38163 198.755 9.36104 198.85 9.36262H202.499C202.887 9.36262 203.19 9.62133 203.406 10.1388L209.018 22.6881H209.3L214.825 10.1388C214.866 9.92723 214.978 9.73553 215.142 9.59467C215.307 9.45381 215.515 9.37205 215.732 9.36262H219.381C219.48 9.35618 219.58 9.37446 219.67 9.41579C219.761 9.45712 219.839 9.52019 219.899 9.59926C219.954 9.69143 219.981 9.79721 219.977 9.90411C219.973 10.011 219.938 10.1146 219.876 10.2025L211.328 27.8843V37.9753C211.392 38.4927 211.133 38.7514 210.615 38.7514H210.617Z" fill="black"/>
<path d="M225.164 13.8024V10.9995H226.351C226.571 10.9831 226.791 11.0123 226.999 11.0853C227.134 11.1319 227.249 11.2233 227.324 11.344C227.406 11.4729 227.449 11.6229 227.447 11.7756C227.452 11.8704 227.437 11.9651 227.404 12.054C227.37 12.1429 227.319 12.2242 227.253 12.293C227.099 12.4375 226.902 12.5284 226.692 12.5517C226.805 12.6129 226.908 12.693 226.994 12.7884C227.119 12.9268 227.228 13.0786 227.319 13.2408L227.664 13.7803H226.995L226.585 13.1771C226.493 13.0344 226.392 12.8976 226.283 12.7675C226.24 12.7126 226.179 12.6744 226.111 12.6596C226.018 12.6387 225.924 12.6313 225.829 12.6376H225.722V13.8024H225.164ZM225.725 12.1851H226.135C226.309 12.1912 226.483 12.1768 226.653 12.1422C226.687 12.1334 226.718 12.1171 226.744 12.0945C226.77 12.072 226.791 12.0439 226.804 12.0123C226.848 11.9487 226.871 11.8733 226.869 11.7965C226.871 11.7533 226.864 11.7102 226.849 11.6696C226.834 11.6289 226.812 11.5916 226.782 11.5598C226.726 11.4994 226.649 11.4611 226.567 11.4519H225.724L225.725 12.1851Z" fill="white"/>
<path d="M226.244 15.3767C225.644 15.3823 225.055 15.2113 224.554 14.8853C224.052 14.5593 223.659 14.093 223.425 13.5458C223.192 12.9985 223.128 12.3949 223.241 11.8115C223.355 11.2281 223.641 10.6913 224.064 10.2692C224.486 9.84716 225.026 9.55883 225.614 9.44085C226.203 9.32287 226.813 9.38057 227.368 9.60662C227.923 9.83267 228.398 10.2169 228.732 10.7105C229.066 11.204 229.245 11.7848 229.245 12.3789C229.248 12.771 229.172 13.1597 229.023 13.5228C228.873 13.8859 228.653 14.2163 228.374 14.4948C228.095 14.7734 227.763 14.9947 227.398 15.146C227.033 15.2974 226.64 15.3758 226.244 15.3767ZM226.244 10.0505C225.778 10.0461 225.32 10.179 224.93 10.4323C224.54 10.6856 224.235 11.0479 224.054 11.4732C223.872 11.8985 223.822 12.3676 223.911 12.8209C223.999 13.2743 224.221 13.6914 224.55 14.0194C224.878 14.3474 225.297 14.5715 225.754 14.6632C226.212 14.7549 226.686 14.7101 227.118 14.5344C227.549 14.3588 227.918 14.0602 228.178 13.6766C228.437 13.2931 228.576 12.8418 228.576 12.3801C228.578 11.7655 228.334 11.1751 227.897 10.7384C227.459 10.3018 226.865 10.0544 226.244 10.0505Z" fill="white"/>
<mask id="mask0_2_11" style="mask-type:alpha" maskUnits="userSpaceOnUse" x="0" y="1" width="48" height="47">
<path fill-rule="evenodd" clip-rule="evenodd" d="M24.0333 1.02017C30.2107 1.02017 36.1352 3.44875 40.5033 7.77165C44.8714 12.0945 47.3253 17.9577 47.3253 24.0712C47.3253 30.1847 44.8714 36.0478 40.5033 40.3707C36.1352 44.6936 30.2107 47.1221 24.0333 47.1221C17.8558 47.1221 11.9314 44.6936 7.5633 40.3707C3.19519 36.0478 0.741211 30.1847 0.741211 24.0712C0.741211 17.9577 3.19519 12.0945 7.5633 7.77165C11.9314 3.44875 17.8558 1.02017 24.0333 1.02017Z" fill="#F58220"/>
</mask>
<g mask="url(#mask0_2_11)">
<path fill-rule="evenodd" clip-rule="evenodd" d="M9.6993 29.4991C9.67824 35.7744 13.5636 40.0658 20.1906 43.0195V0L9.6993 0.129968V29.4991ZM23.8827 25.6614V16.0425C41.9712 13.0238 48.514 42.0913 23.9471 42.9754V33.6569C31.9792 34.178 32.4958 24.6903 23.8827 25.6602V25.6614Z" fill="white"/>
</g>
</svg>
