<svg width="1440" height="122" viewBox="0 0 1440 122" fill="none" xmlns="http://www.w3.org/2000/svg">
<rect width="1440" height="122" fill="#31314C"/>
<g opacity="0.1" clip-path="url(#clip0_40_1549)">
<mask id="mask0_40_1549" style="mask-type:luminance" maskUnits="userSpaceOnUse" x="0" y="-236" width="720" height="360">
<path d="M720 -236H0V124H720V-236Z" fill="white"/>
</mask>
<g mask="url(#mask0_40_1549)">
<path d="M600 61.1665L540 61.1665V1.33305C573.115 1.33305 600 28.1432 600 61.1665Z" stroke="white" stroke-width="2" stroke-linecap="round" stroke-linejoin="round"/>
<path d="M570 61.1665H600V121H570C553.442 121 540 107.595 540 91.0832C540 74.5716 553.442 61.1665 570 61.1665Z" stroke="white" stroke-width="2" stroke-linecap="round" stroke-linejoin="round"/>
<path d="M720 1.33307L690 1.33307C673.442 1.33307 660 -12.072 660 -28.5837V-58.5004H690C706.558 -58.5004 720 -45.0953 720 -28.5837V1.33307Z" stroke="white" stroke-width="2" stroke-linecap="round" stroke-linejoin="round"/>
<path d="M660 1.33307H600V61.1665H660V1.33307Z" stroke="white" stroke-width="2" stroke-linecap="round" stroke-linejoin="round"/>
<path d="M660 91.0832C660 74.5607 646.569 61.1665 630 61.1665C613.431 61.1665 600 74.5607 600 91.0832C600 107.606 613.431 121 630 121C646.569 121 660 107.606 660 91.0832Z" stroke="white" stroke-width="2" stroke-linecap="round" stroke-linejoin="round"/>
<path d="M660 -58.5004C660 -25.4771 633.115 1.33309 600 1.33309C600 -31.6902 626.885 -58.5004 660 -58.5004Z" stroke="white" stroke-width="2" stroke-linecap="round" stroke-linejoin="round"/>
<path d="M660 61.1665V1.33305L720 1.33305C720 34.3563 693.115 61.1665 660 61.1665Z" stroke="white" stroke-width="2" stroke-linecap="round" stroke-linejoin="round"/>
<path d="M660 61.1665C693.115 61.1665 720 87.9767 720 121C686.885 121 660 94.1898 660 61.1665Z" stroke="white" stroke-width="2" stroke-linecap="round" stroke-linejoin="round"/>
<path d="M240 1.33307L180 1.33307C180 -31.6902 206.885 -58.5004 240 -58.5004V1.33307Z" stroke="white" stroke-width="2" stroke-linecap="round" stroke-linejoin="round"/>
<path d="M240 61.1665L180 61.1665V1.33305C213.115 1.33305 240 28.1432 240 61.1665Z" stroke="white" stroke-width="2" stroke-linecap="round" stroke-linejoin="round"/>
<path d="M210 61.1665H240V121H210C193.442 121 180 107.595 180 91.0832C180 74.5716 193.442 61.1665 210 61.1665Z" stroke="white" stroke-width="2" stroke-linecap="round" stroke-linejoin="round"/>
<path d="M360 1.33307L330 1.33307C313.442 1.33307 300 -12.072 300 -28.5837V-58.5004H330C346.558 -58.5004 360 -45.0953 360 -28.5837V1.33307Z" stroke="white" stroke-width="2" stroke-linecap="round" stroke-linejoin="round"/>
<path d="M300 1.33307H240V61.1665H300V1.33307Z" stroke="white" stroke-width="2" stroke-linecap="round" stroke-linejoin="round"/>
<path d="M300 91.0832C300 74.5607 286.569 61.1665 270 61.1665C253.431 61.1665 240 74.5607 240 91.0832C240 107.606 253.431 121 270 121C286.569 121 300 107.606 300 91.0832Z" stroke="white" stroke-width="2" stroke-linecap="round" stroke-linejoin="round"/>
<path d="M300 -58.5004C300 -25.4771 273.115 1.33309 240 1.33309C240 -31.6902 266.885 -58.5004 300 -58.5004Z" stroke="white" stroke-width="2" stroke-linecap="round" stroke-linejoin="round"/>
<path d="M300 61.1665V1.33305L360 1.33305C360 34.3563 333.115 61.1665 300 61.1665Z" stroke="white" stroke-width="2" stroke-linecap="round" stroke-linejoin="round"/>
<path d="M300 61.1665C333.115 61.1665 360 87.9767 360 121C326.885 121 300 94.1898 300 61.1665Z" stroke="white" stroke-width="2" stroke-linecap="round" stroke-linejoin="round"/>
<path d="M360 121V61.1665C393.115 61.1665 420 87.9767 420 121H360Z" stroke="white" stroke-width="2" stroke-linecap="round" stroke-linejoin="round"/>
<path d="M420 121V61.1665L480 61.1665C480 94.1898 453.115 121 420 121Z" stroke="white" stroke-width="2" stroke-linecap="round" stroke-linejoin="round"/>
<path d="M480 91.0833V61.1665L540 61.1665V91.0833C540 107.595 526.558 121 510 121C493.442 121 480 107.595 480 91.0833Z" stroke="white" stroke-width="2" stroke-linecap="round" stroke-linejoin="round"/>
<path d="M420 1.33305V61.1665L480 61.1665V1.33305L420 1.33305Z" stroke="white" stroke-width="2" stroke-linecap="round" stroke-linejoin="round"/>
<path d="M510 1.33305C493.431 1.33305 480 14.7272 480 31.2498C480 47.7723 493.431 61.1665 510 61.1665C526.569 61.1665 540 47.7723 540 31.2498C540 14.7272 526.569 1.33305 510 1.33305Z" stroke="white" stroke-width="2" stroke-linecap="round" stroke-linejoin="round"/>
<path d="M360 1.33307C393.115 1.33307 420 28.1432 420 61.1665C386.885 61.1665 360 34.3563 360 1.33307Z" stroke="white" stroke-width="2" stroke-linecap="round" stroke-linejoin="round"/>
<path d="M480 1.33309L420 1.33309V-58.5004C453.115 -58.5004 480 -31.6902 480 1.33309Z" stroke="white" stroke-width="2" stroke-linecap="round" stroke-linejoin="round"/>
<path d="M180 121L120 121C120 87.9767 146.885 61.1665 180 61.1665V121Z" stroke="white" stroke-width="2" stroke-linecap="round" stroke-linejoin="round"/>
<path d="M180 1.33307V61.1665H120C120 28.1432 146.885 1.33307 180 1.33307Z" stroke="white" stroke-width="2" stroke-linecap="round" stroke-linejoin="round"/>
<path d="M0 61.1665H30C46.5576 61.1665 60 74.5716 60 91.0832V121H30C13.4424 121 0 107.595 0 91.0832V61.1665Z" stroke="white" stroke-width="2" stroke-linecap="round" stroke-linejoin="round"/>
<path d="M60 61.1665L120 61.1665L120 1.33305L60 1.33305L60 61.1665Z" stroke="white" stroke-width="2" stroke-linecap="round" stroke-linejoin="round"/>
<path d="M60 -28.5837C60 -12.0611 73.4315 1.33307 90 1.33307C106.569 1.33307 120 -12.0611 120 -28.5837C120 -45.1062 106.569 -58.5004 90 -58.5004C73.4315 -58.5004 60 -45.1062 60 -28.5837Z" stroke="white" stroke-width="2" stroke-linecap="round" stroke-linejoin="round"/>
<path d="M60 121C60 87.9767 86.8848 61.1665 120 61.1665C120 94.1898 93.1152 121 60 121Z" stroke="white" stroke-width="2" stroke-linecap="round" stroke-linejoin="round"/>
<path d="M1.3411e-06 1.33307V61.1665H60C60 28.1432 33.1152 1.33307 1.3411e-06 1.33307Z" stroke="white" stroke-width="2" stroke-linecap="round" stroke-linejoin="round"/>
<path d="M630 104.912C637.659 104.912 643.867 98.7207 643.867 91.0833C643.867 83.4459 637.659 77.2546 630 77.2546C622.341 77.2546 616.133 83.4459 616.133 91.0833C616.133 98.7207 622.341 104.912 630 104.912Z" stroke="white" stroke-width="2" stroke-linecap="round" stroke-linejoin="round"/>
<path d="M510 45.0786C517.659 45.0786 523.867 38.8872 523.867 31.2499C523.867 23.6125 517.659 17.4211 510 17.4211C502.341 17.4211 496.133 23.6125 496.133 31.2499C496.133 38.8872 502.341 45.0786 510 45.0786Z" stroke="white" stroke-width="2" stroke-linecap="round" stroke-linejoin="round"/>
<path d="M270 104.912C277.659 104.912 283.867 98.7207 283.867 91.0833C283.867 83.4459 277.659 77.2546 270 77.2546C262.341 77.2546 256.133 83.4459 256.133 91.0833C256.133 98.7207 262.341 104.912 270 104.912Z" stroke="white" stroke-width="2" stroke-linecap="round" stroke-linejoin="round"/>
<path d="M299.868 1.33307H332.659C332.659 19.3812 317.967 34.0333 299.871 34.0333V1.33307H299.868Z" stroke="white" stroke-width="2" stroke-linecap="round" stroke-linejoin="round"/>
<path d="M660 1.06982H692.791C692.791 19.118 678.098 33.77 660.002 33.77V1.06982H660Z" stroke="white" stroke-width="2" stroke-linecap="round" stroke-linejoin="round"/>
<path d="M59.7363 1.33307H92.5275C92.5275 19.3812 77.8347 34.0333 59.7387 34.0333V1.33307H59.7363Z" stroke="white" stroke-width="2" stroke-linecap="round" stroke-linejoin="round"/>
<path d="M240 1.33307L300 61.1665" stroke="white" stroke-width="2" stroke-linecap="round" stroke-linejoin="round"/>
<path d="M600 1.33307L660 61.1665" stroke="white" stroke-width="2" stroke-linecap="round" stroke-linejoin="round"/>
<path d="M240 61.1665H180C180 44.6549 193.442 31.2498 210 31.2498C226.558 31.2498 240 44.6549 240 61.1665Z" stroke="white" stroke-width="2" stroke-linecap="round" stroke-linejoin="round"/>
<path d="M480 61.1665H420C420 44.6549 433.442 31.2498 450 31.2498C466.558 31.2498 480 44.6549 480 61.1665Z" stroke="white" stroke-width="2" stroke-linecap="round" stroke-linejoin="round"/>
<path d="M600 61.1665V121C583.442 121 570 107.595 570 91.0832C570 74.5716 583.442 61.1665 600 61.1665Z" stroke="white" stroke-width="2" stroke-linecap="round" stroke-linejoin="round"/>
</g>
</g>
<g opacity="0.1" clip-path="url(#clip1_40_1549)">
<mask id="mask1_40_1549" style="mask-type:luminance" maskUnits="userSpaceOnUse" x="720" y="-236" width="720" height="360">
<path d="M720 -236H1440V124H720V-236Z" fill="white"/>
</mask>
<g mask="url(#mask1_40_1549)">
<path d="M840 61.1665L900 61.1665V1.33305C866.885 1.33305 840 28.1432 840 61.1665Z" stroke="white" stroke-width="2" stroke-linecap="round" stroke-linejoin="round"/>
<path d="M870 61.1665H840V121H870C886.558 121 900 107.595 900 91.0832C900 74.5716 886.558 61.1665 870 61.1665Z" stroke="white" stroke-width="2" stroke-linecap="round" stroke-linejoin="round"/>
<path d="M720 1.33307L750 1.33307C766.558 1.33307 780 -12.072 780 -28.5837V-58.5004H750C733.442 -58.5004 720 -45.0953 720 -28.5837V1.33307Z" stroke="white" stroke-width="2" stroke-linecap="round" stroke-linejoin="round"/>
<path d="M780 1.33307H840V61.1665H780V1.33307Z" stroke="white" stroke-width="2" stroke-linecap="round" stroke-linejoin="round"/>
<path d="M780 91.0832C780 74.5607 793.431 61.1665 810 61.1665C826.569 61.1665 840 74.5607 840 91.0832C840 107.606 826.569 121 810 121C793.431 121 780 107.606 780 91.0832Z" stroke="white" stroke-width="2" stroke-linecap="round" stroke-linejoin="round"/>
<path d="M780 -58.5004C780 -25.4771 806.885 1.33309 840 1.33309C840 -31.6902 813.115 -58.5004 780 -58.5004Z" stroke="white" stroke-width="2" stroke-linecap="round" stroke-linejoin="round"/>
<path d="M780 61.1665V1.33305L720 1.33305C720 34.3563 746.885 61.1665 780 61.1665Z" stroke="white" stroke-width="2" stroke-linecap="round" stroke-linejoin="round"/>
<path d="M780 61.1665C746.885 61.1665 720 87.9767 720 121C753.115 121 780 94.1898 780 61.1665Z" stroke="white" stroke-width="2" stroke-linecap="round" stroke-linejoin="round"/>
<path d="M1200 1.33307L1260 1.33307C1260 -31.6902 1233.12 -58.5004 1200 -58.5004V1.33307Z" stroke="white" stroke-width="2" stroke-linecap="round" stroke-linejoin="round"/>
<path d="M1200 61.1665L1260 61.1665V1.33305C1226.88 1.33305 1200 28.1432 1200 61.1665Z" stroke="white" stroke-width="2" stroke-linecap="round" stroke-linejoin="round"/>
<path d="M1230 61.1665H1200V121H1230C1246.56 121 1260 107.595 1260 91.0832C1260 74.5716 1246.56 61.1665 1230 61.1665Z" stroke="white" stroke-width="2" stroke-linecap="round" stroke-linejoin="round"/>
<path d="M1080 1.33307L1110 1.33307C1126.56 1.33307 1140 -12.072 1140 -28.5837V-58.5004H1110C1093.44 -58.5004 1080 -45.0953 1080 -28.5837V1.33307Z" stroke="white" stroke-width="2" stroke-linecap="round" stroke-linejoin="round"/>
<path d="M1140 1.33307H1200V61.1665H1140V1.33307Z" stroke="white" stroke-width="2" stroke-linecap="round" stroke-linejoin="round"/>
<path d="M1140 91.0832C1140 74.5607 1153.43 61.1665 1170 61.1665C1186.57 61.1665 1200 74.5607 1200 91.0832C1200 107.606 1186.57 121 1170 121C1153.43 121 1140 107.606 1140 91.0832Z" stroke="white" stroke-width="2" stroke-linecap="round" stroke-linejoin="round"/>
<path d="M1140 -58.5004C1140 -25.4771 1166.88 1.33309 1200 1.33309C1200 -31.6902 1173.12 -58.5004 1140 -58.5004Z" stroke="white" stroke-width="2" stroke-linecap="round" stroke-linejoin="round"/>
<path d="M1140 61.1665V1.33305L1080 1.33305C1080 34.3563 1106.88 61.1665 1140 61.1665Z" stroke="white" stroke-width="2" stroke-linecap="round" stroke-linejoin="round"/>
<path d="M1140 61.1665C1106.88 61.1665 1080 87.9767 1080 121C1113.12 121 1140 94.1898 1140 61.1665Z" stroke="white" stroke-width="2" stroke-linecap="round" stroke-linejoin="round"/>
<path d="M1080 121V61.1665C1046.88 61.1665 1020 87.9767 1020 121H1080Z" stroke="white" stroke-width="2" stroke-linecap="round" stroke-linejoin="round"/>
<path d="M1020 121V61.1665L960 61.1665C960 94.1898 986.885 121 1020 121Z" stroke="white" stroke-width="2" stroke-linecap="round" stroke-linejoin="round"/>
<path d="M960 91.0833V61.1665L900 61.1665V91.0833C900 107.595 913.442 121 930 121C946.558 121 960 107.595 960 91.0833Z" stroke="white" stroke-width="2" stroke-linecap="round" stroke-linejoin="round"/>
<path d="M1020 1.33305V61.1665L960 61.1665V1.33305L1020 1.33305Z" stroke="white" stroke-width="2" stroke-linecap="round" stroke-linejoin="round"/>
<path d="M930 1.33305C946.569 1.33305 960 14.7272 960 31.2498C960 47.7723 946.569 61.1665 930 61.1665C913.431 61.1665 900 47.7723 900 31.2498C900 14.7272 913.431 1.33305 930 1.33305Z" stroke="white" stroke-width="2" stroke-linecap="round" stroke-linejoin="round"/>
<path d="M1080 1.33307C1046.88 1.33307 1020 28.1432 1020 61.1665C1053.12 61.1665 1080 34.3563 1080 1.33307Z" stroke="white" stroke-width="2" stroke-linecap="round" stroke-linejoin="round"/>
<path d="M960 1.33309L1020 1.33309V-58.5004C986.885 -58.5004 960 -31.6902 960 1.33309Z" stroke="white" stroke-width="2" stroke-linecap="round" stroke-linejoin="round"/>
<path d="M1260 121L1320 121C1320 87.9767 1293.12 61.1665 1260 61.1665V121Z" stroke="white" stroke-width="2" stroke-linecap="round" stroke-linejoin="round"/>
<path d="M1260 1.33307V61.1665H1320C1320 28.1432 1293.12 1.33307 1260 1.33307Z" stroke="white" stroke-width="2" stroke-linecap="round" stroke-linejoin="round"/>
<path d="M1440 61.1665H1410C1393.44 61.1665 1380 74.5716 1380 91.0832V121H1410C1426.56 121 1440 107.595 1440 91.0832V61.1665Z" stroke="white" stroke-width="2" stroke-linecap="round" stroke-linejoin="round"/>
<path d="M1380 61.1665L1320 61.1665V1.33305L1380 1.33305V61.1665Z" stroke="white" stroke-width="2" stroke-linecap="round" stroke-linejoin="round"/>
<path d="M1380 -28.5837C1380 -12.0611 1366.57 1.33307 1350 1.33307C1333.43 1.33307 1320 -12.0611 1320 -28.5837C1320 -45.1062 1333.43 -58.5004 1350 -58.5004C1366.57 -58.5004 1380 -45.1062 1380 -28.5837Z" stroke="white" stroke-width="2" stroke-linecap="round" stroke-linejoin="round"/>
<path d="M1380 121C1380 87.9767 1353.12 61.1665 1320 61.1665C1320 94.1898 1346.88 121 1380 121Z" stroke="white" stroke-width="2" stroke-linecap="round" stroke-linejoin="round"/>
<path d="M1440 1.33307V61.1665H1380C1380 28.1432 1406.88 1.33307 1440 1.33307Z" stroke="white" stroke-width="2" stroke-linecap="round" stroke-linejoin="round"/>
<path d="M810 104.912C802.341 104.912 796.133 98.7207 796.133 91.0833C796.133 83.4459 802.341 77.2546 810 77.2546C817.659 77.2546 823.867 83.4459 823.867 91.0833C823.867 98.7207 817.659 104.912 810 104.912Z" stroke="white" stroke-width="2" stroke-linecap="round" stroke-linejoin="round"/>
<path d="M930 45.0786C922.341 45.0786 916.133 38.8872 916.133 31.2499C916.133 23.6125 922.341 17.4211 930 17.4211C937.659 17.4211 943.867 23.6125 943.867 31.2499C943.867 38.8872 937.659 45.0786 930 45.0786Z" stroke="white" stroke-width="2" stroke-linecap="round" stroke-linejoin="round"/>
<path d="M1170 104.912C1162.34 104.912 1156.13 98.7207 1156.13 91.0833C1156.13 83.4459 1162.34 77.2546 1170 77.2546C1177.66 77.2546 1183.87 83.4459 1183.87 91.0833C1183.87 98.7207 1177.66 104.912 1170 104.912Z" stroke="white" stroke-width="2" stroke-linecap="round" stroke-linejoin="round"/>
<path d="M1140.13 1.33307H1107.34C1107.34 19.3812 1122.03 34.0333 1140.13 34.0333V1.33307H1140.13Z" stroke="white" stroke-width="2" stroke-linecap="round" stroke-linejoin="round"/>
<path d="M780 1.06982H747.209C747.209 19.118 761.902 33.77 779.998 33.77V1.06982H780Z" stroke="white" stroke-width="2" stroke-linecap="round" stroke-linejoin="round"/>
<path d="M1380.26 1.33307H1347.47C1347.47 19.3812 1362.17 34.0333 1380.26 34.0333V1.33307H1380.26Z" stroke="white" stroke-width="2" stroke-linecap="round" stroke-linejoin="round"/>
<path d="M1200 1.33307L1140 61.1665" stroke="white" stroke-width="2" stroke-linecap="round" stroke-linejoin="round"/>
<path d="M840 1.33307L780 61.1665" stroke="white" stroke-width="2" stroke-linecap="round" stroke-linejoin="round"/>
<path d="M1200 61.1665H1260C1260 44.6549 1246.56 31.2498 1230 31.2498C1213.44 31.2498 1200 44.6549 1200 61.1665Z" stroke="white" stroke-width="2" stroke-linecap="round" stroke-linejoin="round"/>
<path d="M960 61.1665H1020C1020 44.6549 1006.56 31.2498 990 31.2498C973.442 31.2498 960 44.6549 960 61.1665Z" stroke="white" stroke-width="2" stroke-linecap="round" stroke-linejoin="round"/>
<path d="M840 61.1665V121C856.558 121 870 107.595 870 91.0832C870 74.5716 856.558 61.1665 840 61.1665Z" stroke="white" stroke-width="2" stroke-linecap="round" stroke-linejoin="round"/>
</g>
</g>
<defs>
<clipPath id="clip0_40_1549">
<rect width="720" height="124" fill="white"/>
</clipPath>
<clipPath id="clip1_40_1549">
<rect width="720" height="124" fill="white" transform="matrix(-1 0 0 1 1440 0)"/>
</clipPath>
</defs>
</svg>
