<svg width="401" height="405" viewBox="0 0 401 405" fill="none" xmlns="http://www.w3.org/2000/svg">
<path d="M400.838 138.036C401.381 144.847 400.458 150.895 399.538 157.104C399.246 159.084 398.874 161.043 398.422 162.975C398.219 163.845 398.016 164.699 397.813 165.555C395.198 176.6 390.113 186.657 382.757 194.805C382.522 195.065 382.285 195.324 382.045 195.581C374.985 203.062 367.289 209.769 357.997 214.788C348.812 220.307 338.925 224.893 328.647 229.434C327.332 230.015 326.038 230.642 324.768 231.305C320.702 233.431 316.903 235.451 313.432 237.988C299.151 247.404 291.226 261.457 286.246 277.239C283.756 285.13 281.985 293.439 280.48 301.792C280.341 367.455 219.035 415.487 152.11 402.196C149.469 401.571 147.298 400.498 144.745 399.589C136.581 396.325 129.149 391.763 122.542 385.618C111.371 375.067 104.934 362.408 100.218 348.9C98.6454 344.398 97.2642 339.803 95.9626 335.16C92.1713 321.306 89.0626 306.507 78.413 295.613C62.4396 279.273 41.8032 271.581 22.7271 258.278C-7.4743 237.256 -5.39255 197.481 16.1654 177.283C19.5467 173.882 22.944 170.968 26.4268 167.766C44.4641 152.523 69.071 151.114 92.4877 145.995C106.353 142.653 118.735 135.475 124.21 122.027C136.015 94.5242 143.823 66.4703 162.706 44.377C165.319 41.0414 168.06 37.8193 170.934 34.7444C179.555 25.5238 189.361 17.6466 200.413 12.0641C204.833 9.83104 209.454 7.96622 214.276 6.52929C266.266 -11.1875 333.945 7.2378 368.812 60.7425C375.15 70.4706 381.107 80.3599 385.916 90.7309C389.788 99.2649 393.367 107.673 396.195 116.892C396.971 119.788 397.833 122.399 398.559 125.287C399.763 129.984 400.538 134.269 400.838 138.034V138.036Z" fill="#13B46C"/>
<path d="M122.094 86.9355C116.93 94.4346 110.213 99.5952 103.478 101.902C96.743 104.207 89.9345 103.675 84.5649 99.8002C79.1954 95.9253 76.2757 89.4392 75.9513 82.0595C75.6289 74.6799 77.9515 66.3887 83.0842 58.8956C88.2189 51.4024 95.2165 46.1184 102.316 43.6605C109.415 41.2046 116.538 41.6027 121.911 45.4816C127.285 49.3605 129.924 55.9699 129.906 63.4929C129.888 71.0159 127.257 79.4345 122.092 86.9355H122.094Z" fill="#13B46C"/>
<path d="M355.241 269.268C361.546 281.751 353.111 297.272 339.825 303.832C332.785 307.353 325.29 308.155 318.764 306.732C312.238 305.307 306.64 301.683 303.491 296.182C300.343 290.679 300.231 284.336 302.596 278.535C307.977 265.568 324.17 258.171 338.933 259.648C346.048 260.434 352.124 263.626 355.243 269.268H355.241Z" fill="#13B46C"/>
<mask id="mask0_40_1224" style="mask-type:luminance" maskUnits="userSpaceOnUse" x="0" y="0" width="401" height="405">
<path d="M400.838 138.036C401.381 144.847 400.458 150.895 399.538 157.104C399.246 159.084 398.874 161.043 398.422 162.975C398.219 163.845 398.016 164.699 397.813 165.555C395.198 176.6 390.113 186.657 382.757 194.805C382.522 195.065 382.285 195.324 382.045 195.581C374.985 203.062 367.289 209.769 357.997 214.788C348.812 220.307 338.925 224.893 328.647 229.434C327.332 230.015 326.038 230.642 324.768 231.305C320.702 233.431 316.903 235.451 313.432 237.988C299.151 247.404 291.226 261.457 286.246 277.239C283.756 285.13 281.985 293.439 280.48 301.792C280.341 367.455 219.035 415.487 152.11 402.196C149.469 401.571 147.298 400.498 144.745 399.589C136.581 396.325 129.149 391.763 122.542 385.618C111.371 375.067 104.934 362.408 100.218 348.9C98.6454 344.398 97.2642 339.803 95.9626 335.16C92.1713 321.306 89.0626 306.507 78.413 295.613C62.4396 279.273 41.8032 271.581 22.7271 258.278C-7.4743 237.256 -5.39255 197.481 16.1654 177.283C19.5467 173.882 22.944 170.968 26.4268 167.766C44.4641 152.523 69.071 151.114 92.4877 145.995C106.353 142.653 118.735 135.475 124.21 122.027C136.015 94.5242 143.823 66.4703 162.706 44.377C165.319 41.0414 168.06 37.8193 170.934 34.7444C179.555 25.5238 189.361 17.6466 200.413 12.0641C204.833 9.83104 209.454 7.96622 214.276 6.52929C266.266 -11.1875 333.945 7.2378 368.812 60.7425C375.15 70.4706 381.107 80.3599 385.916 90.7309C389.788 99.2649 393.367 107.673 396.195 116.892C396.971 119.788 397.833 122.399 398.559 125.287C399.763 129.984 400.538 134.269 400.838 138.034V138.036ZM129.908 63.4929C129.925 55.97 127.284 49.3605 121.913 45.4816C116.539 41.6027 109.416 41.2026 102.317 43.6605C95.2183 46.1165 88.2207 51.4024 83.086 58.8956C77.9512 66.3887 75.6307 74.6799 75.9531 82.0595C76.2755 89.4392 79.1951 95.9253 84.5667 99.8002C89.9383 103.675 96.7448 104.207 103.48 101.902C110.214 99.5972 116.931 94.4366 122.096 86.9355C127.261 79.4365 129.892 71.0159 129.91 63.4929H129.908ZM338.931 259.65C324.169 258.171 307.977 265.568 302.594 278.537C300.231 284.336 300.343 290.681 303.489 296.184C306.638 301.687 312.234 305.309 318.762 306.734C325.288 308.159 332.783 307.357 339.822 303.834C353.111 297.272 361.543 281.753 355.239 269.27C352.12 263.63 346.044 260.436 338.929 259.65H338.931Z" fill="white"/>
</mask>
<g mask="url(#mask0_40_1224)">
<g style="mix-blend-mode:multiply" opacity="0.19">
<path d="M326.588 72.5483H157.896C144.137 72.5483 132.982 83.7024 132.982 97.4617V303.691C132.982 317.45 144.137 328.604 157.896 328.604H326.588C340.347 328.604 351.501 317.45 351.501 303.691V97.4617C351.501 83.7024 340.347 72.5483 326.588 72.5483Z" fill="#065F37"/>
</g>
</g>
<path d="M309.641 55.95H140.95C127.19 55.95 116.036 67.1041 116.036 80.8634V287.092C116.036 300.852 127.19 312.006 140.95 312.006H309.641C323.401 312.006 334.555 300.852 334.555 287.092V80.8634C334.555 67.1041 323.401 55.95 309.641 55.95Z" fill="#F8F8F8"/>
<path d="M168 240.873H281.485" stroke="#D4D4D4" stroke-width="20" stroke-miterlimit="10" stroke-linecap="square"/>
<path d="M186.169 265.657H263.315" stroke="#D4D4D4" stroke-width="10" stroke-miterlimit="10" stroke-linecap="square"/>
<path d="M224.464 197.463C250.549 197.463 271.696 176.317 271.696 150.232C271.696 124.146 250.549 103 224.464 103C198.379 103 177.232 124.146 177.232 150.232C177.232 176.317 198.379 197.463 224.464 197.463Z" fill="#43FFAB" stroke="#11F18D" stroke-width="10" stroke-miterlimit="10" stroke-linecap="round"/>
<path d="M203.736 150.232L219.728 166.223L279.778 103" stroke="#13B46C" stroke-width="10" stroke-miterlimit="10" stroke-linecap="square"/>
</svg>
