<svg width="93" height="158" viewBox="0 0 93 158" fill="none" xmlns="http://www.w3.org/2000/svg">
<g clip-path="url(#clip0_7_484)">
<path d="M0 0H92.328V92.238C91.593 92.327 90.849 92.252 90.11 92.276H0V0ZM11.951 6.863C10.0344 7.52949 8.42227 8.86438 7.41 10.623C6.38244 12.4832 6.06275 14.6524 6.51 16.73C6.85023 18.2721 7.62395 19.6849 8.74007 20.8021C9.85618 21.9192 11.2682 22.6943 12.81 23.036C14.8418 23.5031 16.9707 23.2906 18.87 22.431C19.7954 21.9786 20.6133 21.3335 21.2687 20.5389C21.9242 19.7442 22.4019 18.8186 22.67 17.824C22.935 16.6469 23.0323 15.4383 22.959 14.234H14.84V17.064H19.74C19.4619 18.0069 18.8553 18.8189 18.03 19.353C16.8227 20.0395 15.417 20.2928 14.046 20.071C13.3763 20.0005 12.7271 19.7984 12.1358 19.4762C11.5444 19.1541 11.0225 18.7184 10.6 18.194C10.1489 17.5911 9.82524 16.9026 9.64868 16.1706C9.47212 15.4386 9.44637 14.6783 9.573 13.936C9.72763 12.7471 10.3043 11.6533 11.198 10.854C11.7655 10.3508 12.434 9.97496 13.1588 9.7516C13.8836 9.52823 14.6477 9.46256 15.4 9.559C16.1524 9.61575 16.8816 9.84464 17.5315 10.228C18.1814 10.6114 18.7344 11.1389 19.148 11.77C20.06 11.246 20.9713 10.7207 21.882 10.194C20.788 8.44518 19.0553 7.19177 17.052 6.7C15.3702 6.27623 13.6023 6.3327 11.951 6.863ZM62.621 9.046C62.632 9.819 62.621 10.594 62.621 11.367H60.614C60.614 12.324 60.619 13.28 60.609 14.237C61.282 14.259 61.958 14.237 62.631 14.252C62.62 15.514 62.631 16.775 62.631 18.036C62.5705 18.9626 62.6408 19.8931 62.84 20.8C62.9417 21.2021 63.1329 21.5759 63.3994 21.8937C63.6659 22.2114 64.0008 22.4649 64.379 22.635C65.6173 23.0574 66.9422 23.1605 68.231 22.935C68.231 22.0303 68.231 21.1263 68.231 20.223C67.5304 20.3183 66.8177 20.2669 66.138 20.072C65.9582 19.9694 65.8129 19.8159 65.7204 19.6308C65.6278 19.4457 65.5922 19.2373 65.618 19.032C65.613 17.432 65.618 15.832 65.618 14.232C66.491 14.225 67.365 14.242 68.238 14.223C68.227 13.266 68.238 12.31 68.233 11.353C67.364 11.353 66.492 11.353 65.625 11.353C65.611 10.275 65.618 9.198 65.625 8.119C64.625 8.413 63.625 8.71 62.625 9.027M37.3 11.212C35.9099 11.5237 34.6857 12.3418 33.866 13.507C33.3837 14.209 33.0452 14.9995 32.87 15.8329C32.6948 16.6664 32.6863 17.5263 32.845 18.363C32.9778 19.1589 33.2744 19.9186 33.7161 20.5939C34.1578 21.2692 34.735 21.8454 35.411 22.286C36.9503 23.1932 38.7716 23.4968 40.522 23.138C41.2512 23.0082 41.9471 22.7337 42.5687 22.3308C43.1902 21.9279 43.7248 21.4047 44.141 20.792C43.341 20.3253 42.5377 19.8613 41.731 19.4C41.2233 19.9494 40.5614 20.3327 39.8321 20.4995C39.1028 20.6664 38.3401 20.609 37.644 20.335C37.2075 20.1876 36.8156 19.9317 36.5051 19.5913C36.1947 19.2509 35.9758 18.8372 35.869 18.389C38.78 18.381 41.689 18.389 44.599 18.389C44.7554 17.5094 44.7466 16.6084 44.573 15.732C44.2497 14.1731 43.3253 12.8043 42 11.922C40.5866 11.079 38.8977 10.8274 37.3 11.222M50.482 11.183C49.7471 11.3706 49.0567 11.7022 48.4509 12.1587C47.8451 12.6151 47.336 13.1873 46.953 13.842C46.1416 15.2506 45.8724 16.907 46.196 18.5C46.356 19.3572 46.6999 20.1696 47.204 20.8812C47.7081 21.5928 48.3604 22.1867 49.116 22.622C50.2794 23.2448 51.6266 23.4327 52.916 23.152C53.9166 22.9586 54.8123 22.4067 55.435 21.6C55.487 22.045 55.454 22.495 55.463 22.943H58.452V11.368H55.463V12.723C54.8596 12.0247 54.0722 11.5099 53.1905 11.2371C52.3089 10.9643 51.3684 10.9445 50.476 11.18M29.129 11.644C28.5027 12.0327 28.0155 12.6096 27.737 13.292C27.752 12.651 27.744 12.01 27.744 11.368H24.9V22.942C25.844 22.942 26.792 22.935 27.734 22.947C27.757 21.055 27.734 19.158 27.746 17.264C27.7226 16.5352 27.9788 15.8251 28.462 15.279C28.8111 14.9566 29.228 14.7166 29.6821 14.5766C30.1363 14.4366 30.616 14.4002 31.086 14.47C31.072 13.353 31.11 12.235 31.066 11.119C30.387 11.1332 29.7217 11.313 29.128 11.643M8.451 43.272C9.517 43.284 10.584 43.272 11.651 43.272V37.963C12.802 37.932 13.957 37.991 15.108 37.931C16.141 37.8361 17.1255 37.4484 17.946 36.8136C18.7664 36.1788 19.3888 35.3231 19.74 34.347C20.0714 33.3313 20.1215 32.2449 19.885 31.203C19.637 30.2029 19.1089 29.2943 18.3627 28.5839C17.6165 27.8734 16.683 27.3906 15.672 27.192C14.957 27.085 14.2332 27.0482 13.511 27.082C11.829 27.082 10.147 27.089 8.465 27.082C8.444 32.482 8.465 37.882 8.453 43.282M22.2 27.232V43.276H25.189V27.232H22.2ZM28.692 34.112C27.847 35.5386 27.5646 37.2292 27.9 38.853C28.0568 39.6749 28.3824 40.4552 28.8563 41.1448C29.3301 41.8343 29.9419 42.4181 30.653 42.859C31.2872 43.2282 31.9883 43.468 32.7157 43.5645C33.4432 43.661 34.1825 43.6122 34.891 43.421C35.7867 43.1783 36.5831 42.6594 37.167 41.938C37.162 42.384 37.167 42.83 37.167 43.278H40.158C40.1527 39.4233 40.1527 35.5683 40.158 31.713C39.158 31.713 38.165 31.708 37.168 31.713V33.047C36.8591 32.6791 36.4983 32.3581 36.097 32.094C35.028 31.4677 33.7722 31.2389 32.551 31.448C31.7539 31.5888 30.9965 31.8997 30.3304 32.3596C29.6643 32.8195 29.1051 33.4175 28.691 34.113M47.065 31.613C46.1833 31.8614 45.3706 32.3094 44.69 32.9224C44.0093 33.5355 43.4789 34.297 43.14 35.148C42.7128 36.3006 42.606 37.5475 42.831 38.756C43.0079 39.7006 43.4105 40.5884 44.0046 41.3437C44.5987 42.0991 45.3667 42.6996 46.243 43.094C47.4803 43.6195 48.8498 43.7498 50.164 43.467C50.979 43.2908 51.7476 42.9447 52.4196 42.4512C53.0917 41.9577 53.652 41.3279 54.064 40.603C53.201 40.103 52.334 39.612 51.464 39.117C51.2255 39.5184 50.9005 39.8614 50.5126 40.1212C50.1246 40.3809 49.6836 40.5508 49.2217 40.6185C48.7598 40.6861 48.2885 40.6498 47.8424 40.5122C47.3963 40.3746 46.9865 40.1391 46.643 39.823C46.3188 39.4916 46.0676 39.096 45.9057 38.6616C45.7438 38.2272 45.6747 37.7637 45.703 37.3009C45.7313 36.8382 45.8562 36.3865 46.0698 35.975C46.2834 35.5636 46.5808 35.2014 46.943 34.912C47.295 34.6583 47.6963 34.4813 48.121 34.3924C48.5456 34.3035 48.9842 34.3048 49.4084 34.3961C49.8326 34.4875 50.2328 34.6668 50.5833 34.9226C50.9338 35.1784 51.2267 35.5049 51.443 35.881C52.297 35.374 53.162 34.881 54.016 34.367C53.5462 33.4916 52.85 32.7584 52 32.244C51.261 31.8157 50.4441 31.5389 49.597 31.4298C48.7498 31.3206 47.8895 31.3811 47.066 31.608M58.854 32.053C58.0691 32.4716 57.3883 33.0613 56.862 33.7784C56.3356 34.4955 55.9771 35.3217 55.813 36.196C55.4849 37.8144 55.7822 39.497 56.645 40.905C57.0716 41.5625 57.6267 42.1271 58.277 42.5648C58.9272 43.0025 59.6592 43.3042 60.429 43.452C61.9389 43.7755 63.5122 43.6193 64.929 43.005C65.7989 42.5765 66.5448 41.9328 67.096 41.135C66.296 40.654 65.489 40.203 64.685 39.735C64.182 40.2812 63.5262 40.6635 62.803 40.832C62.0798 41.0005 61.3227 40.9476 60.63 40.68C60.2107 40.5476 59.8304 40.3142 59.5224 40.0003C59.2145 39.6864 58.9884 39.3017 58.864 38.88C58.758 38.71 59.015 38.717 59.11 38.729C61.921 38.734 64.734 38.729 67.544 38.729C67.8228 37.2808 67.6117 35.781 66.944 34.466C66.5782 33.7554 66.0668 33.1299 65.443 32.6302C64.8193 32.1306 64.0973 31.7679 63.324 31.566C61.82 31.2064 60.2377 31.3807 58.848 32.059M6.323 48.225V51.138H10.675V63.618C11.742 63.611 12.811 63.633 13.875 63.607C13.856 59.454 13.875 55.299 13.865 51.144C15.324 51.127 16.782 51.144 18.241 51.136C18.241 50.167 18.241 49.198 18.241 48.229C14.267 48.217 10.295 48.229 6.316 48.229M22.316 51.781C21.1622 51.9411 20.0789 52.4301 19.1958 53.1897C18.3126 53.9492 17.6669 54.9471 17.336 56.064C17.0363 57.1741 17.0225 58.3421 17.296 59.459C17.4966 60.2315 17.8488 60.9564 18.332 61.5916C18.8153 62.2268 19.42 62.7596 20.111 63.159C21.5119 63.9282 23.1477 64.1526 24.704 63.789C25.511 63.5972 26.27 63.2417 26.9339 62.7446C27.5979 62.2475 28.1527 61.6193 28.564 60.899C29.319 59.5315 29.5437 57.9337 29.195 56.411C29.0035 55.6117 28.6535 54.8589 28.1656 54.1974C27.6778 53.5359 27.0621 52.9791 26.355 52.56C25.1343 51.8563 23.7123 51.5841 22.318 51.787M6.768 68.7C8.268 74.1 9.778 79.5 11.298 84.9H14.936C15.5413 82.7747 16.1443 80.649 16.745 78.523C17.164 77.105 17.521 75.667 17.979 74.262C18.979 77.811 20.003 81.355 21.014 84.9C22.225 84.9 23.442 84.905 24.656 84.9C26.1593 79.5 27.6693 74.1 29.186 68.7C28.064 68.7 26.942 68.7 25.821 68.7C24.799 72.7 23.752 76.687 22.735 80.685C21.5963 76.699 20.4663 72.7087 19.345 68.714C18.429 68.688 17.51 68.707 16.592 68.704C15.474 72.704 14.336 76.693 13.228 80.693C12.178 76.693 11.17 72.693 10.118 68.693C9.002 68.703 7.885 68.693 6.769 68.693M51.939 68.693V84.893H54.939V79.673C56.358 81.398 57.739 83.154 59.139 84.895H62.62C61.0247 82.941 59.428 80.9883 57.83 79.037C59.373 77.128 60.94 75.237 62.468 73.318C61.287 73.318 60.105 73.327 58.925 73.313C57.58 74.992 56.276 76.705 54.937 78.39V68.7H51.937M34.001 73.07C32.7681 73.2639 31.6255 73.8348 30.7302 74.7043C29.8349 75.5739 29.2308 76.6993 29.001 77.926C28.85 78.8045 28.8694 79.7038 29.058 80.575C29.3116 81.6698 29.8681 82.6713 30.6638 83.4649C31.4596 84.2585 32.4625 84.8123 33.558 85.063C34.6498 85.2985 35.7825 85.2642 36.858 84.963C38.3329 84.5109 39.5817 83.5169 40.353 82.181C41.1177 80.8037 41.3443 79.1917 40.989 77.657C40.7971 76.8686 40.4509 76.126 39.9703 75.4722C39.4897 74.8184 38.8843 74.2664 38.189 73.848C36.927 73.1085 35.4466 72.8327 34.003 73.068M47.557 73.673C46.961 74.0519 46.4981 74.6074 46.233 75.262C46.242 74.613 46.238 73.962 46.233 73.316C45.233 73.325 44.233 73.306 43.233 73.326C43.244 77.182 43.233 81.038 43.238 84.893H46.238C46.2347 83.0157 46.2347 81.1377 46.238 79.259C46.2211 78.8858 46.2799 78.513 46.4108 78.1631C46.5418 77.8132 46.7422 77.4934 47 77.223C47.3748 76.9002 47.8145 76.6617 48.2895 76.5237C48.7645 76.3857 49.2636 76.3513 49.753 76.423V73.084C48.9811 73.074 48.2215 73.2775 47.558 73.672M65.472 80.318C64.9734 80.4888 64.5375 80.8053 64.2208 81.2267C63.9041 81.648 63.7212 82.1547 63.6958 82.6812C63.6704 83.2076 63.8036 83.7296 64.0783 84.1795C64.3529 84.6293 64.7563 84.9864 65.2362 85.2044C65.7161 85.4224 66.2504 85.4913 66.7699 85.4021C67.2894 85.313 67.7701 85.0699 68.1499 84.7044C68.5297 84.3389 68.7909 83.8678 68.8999 83.3521C69.0089 82.8364 68.9605 82.2999 68.761 81.812C68.5045 81.1925 68.0222 80.6936 67.4117 80.4164C66.8012 80.1392 66.1082 80.1044 65.473 80.319L65.472 80.318Z" fill="#E60000"/>
<path d="M37.3808 14.039C37.9089 13.7925 38.4928 13.6899 39.0733 13.7415C39.6538 13.7932 40.2104 13.9972 40.6868 14.333C41.215 14.7748 41.5795 15.3812 41.7218 16.055C39.7538 16.081 37.7868 16.06 35.8218 16.065C35.9108 15.6308 36.0978 15.2227 36.3685 14.8718C36.6392 14.5208 36.9865 14.2363 37.3838 14.04L37.3808 14.039Z" fill="#E60000"/>
<path d="M51.3 14.018C51.7555 13.8894 52.2327 13.8565 52.7016 13.9216C53.1704 13.9867 53.6207 14.1482 54.024 14.396C54.6848 14.8287 55.1588 15.4941 55.352 16.26C55.4929 16.7937 55.5046 17.3532 55.3862 17.8923C55.2678 18.4314 55.0226 18.9345 54.671 19.36C54.0714 20.0047 53.2405 20.385 52.3608 20.4174C51.481 20.4498 50.6244 20.1318 49.979 19.533C49.3576 18.8695 49.0224 17.9882 49.0456 17.0796C49.0688 16.1709 49.4486 15.3079 50.103 14.677C50.4448 14.3645 50.8561 14.1379 51.303 14.016L51.3 14.018Z" fill="#E60000"/>
<path d="M11.6499 30.07C12.5999 30.07 13.5499 30.07 14.5009 30.07C14.8135 30.0672 15.1235 30.1278 15.4121 30.2481C15.7006 30.3684 15.9618 30.546 16.1799 30.77C16.5464 31.1769 16.7768 31.6879 16.839 32.232C16.9012 32.776 16.7921 33.3259 16.5269 33.805C16.335 34.1468 16.0582 34.4332 15.7233 34.6368C15.3884 34.8403 15.0066 34.9541 14.6149 34.967C13.6309 34.976 12.6399 34.967 11.6529 34.967C11.6516 33.335 11.6506 31.7027 11.6499 30.07Z" fill="#E60000"/>
<path d="M60.3701 34.359C60.8951 34.1212 61.4732 34.0251 62.0469 34.0802C62.6206 34.1353 63.1699 34.3397 63.6401 34.673C64.1685 35.1149 64.5313 35.7231 64.6691 36.398H58.769C58.8594 35.9572 59.0512 35.5435 59.329 35.1896C59.6069 34.8357 59.9633 34.5514 60.3701 34.359Z" fill="#E60000"/>
<path d="M33.3739 34.275C33.8492 34.1864 34.3383 34.2051 34.8054 34.3297C35.2725 34.4543 35.7059 34.6816 36.074 34.995C36.408 35.302 36.6774 35.6726 36.8662 36.0851C37.055 36.4977 37.1596 36.9438 37.1736 37.3972C37.1877 37.8507 37.111 38.3024 36.9481 38.7259C36.7852 39.1493 36.5393 39.5359 36.225 39.863C35.5959 40.449 34.7642 40.7684 33.9046 40.7542C33.0451 40.74 32.2244 40.3934 31.6149 39.787C31.0273 39.1178 30.7202 38.2478 30.7574 37.3579C30.7947 36.4681 31.1734 35.6268 31.815 35.009C32.2485 34.6128 32.7915 34.3567 33.373 34.274L33.3739 34.275Z" fill="#E60000"/>
<path d="M22.3038 54.759C22.8894 54.6054 23.5044 54.6019 24.0918 54.749C24.6213 54.8928 25.1025 55.1764 25.485 55.5699C25.8674 55.9635 26.1371 56.4525 26.2658 56.986C26.404 57.5205 26.4076 58.081 26.2762 58.6173C26.1448 59.1536 25.8825 59.6489 25.5128 60.059C24.9412 60.6401 24.1709 60.9833 23.3566 61.0194C22.5423 61.0556 21.7446 60.7821 21.1238 60.254C20.8049 59.9457 20.55 59.5775 20.3736 59.1705C20.1971 58.7635 20.1027 58.3258 20.0956 57.8823C20.0886 57.4388 20.1691 56.9982 20.3324 56.5858C20.4958 56.1734 20.7389 55.7973 21.0478 55.479C21.4007 55.1392 21.8322 54.8919 22.3038 54.759Z" fill="#E60000"/>
<path d="M34.1568 76.026C34.7035 75.8934 35.2735 75.8897 35.8218 76.015C36.3827 76.1542 36.8928 76.4494 37.2928 76.8666C37.6928 77.2837 37.9663 77.8057 38.0818 78.372C38.2522 79.1667 38.1412 79.996 37.7678 80.718C37.5594 81.0938 37.2743 81.4216 36.9309 81.68C36.5875 81.9385 36.1937 82.1218 35.7748 82.218C35.2923 82.3338 34.7897 82.3374 34.3055 82.2287C33.8214 82.12 33.3685 81.9019 32.9818 81.591C32.6454 81.2835 32.3748 80.9109 32.1867 80.4958C31.9986 80.0806 31.8968 79.6316 31.8874 79.1759C31.8781 78.7203 31.9614 78.2674 32.1323 77.8449C32.3033 77.4224 32.5582 77.039 32.8818 76.718C33.2426 76.3848 33.6808 76.147 34.1568 76.026Z" fill="#E60000"/>
<path d="M65.9228 80.653C66.2566 80.5922 66.5998 80.609 66.9262 80.7019C67.2525 80.7948 67.5531 80.9615 67.8048 81.189C68.0266 81.4158 68.1988 81.6864 68.3104 81.9834C68.422 82.2804 68.4706 82.5974 68.453 82.9142C68.4354 83.231 68.3521 83.5406 68.2083 83.8235C68.0645 84.1063 67.8634 84.3561 67.6177 84.557C67.204 84.8555 66.7005 85.0033 66.1911 84.9758C65.6817 84.9483 65.197 84.7472 64.8178 84.406C64.4012 83.978 64.1675 83.4048 64.166 82.8076C64.1645 82.2104 64.3954 81.636 64.8098 81.206C65.116 80.9142 65.5039 80.7226 65.9218 80.657M65.4158 81.48V84.067H65.9828C65.9828 83.727 65.9828 83.386 65.9938 83.048L66.2598 83.076C66.4598 83.407 66.6688 83.732 66.8648 84.064H67.4698C67.2478 83.705 67.0267 83.344 66.7947 82.992C66.925 82.9462 67.0409 82.8666 67.1302 82.7613C67.2195 82.656 67.2792 82.5288 67.3032 82.3927C67.3271 82.2567 67.3143 82.1168 67.2663 81.9873C67.2183 81.8578 67.1367 81.7435 67.0298 81.656C66.514 81.4661 65.9596 81.4047 65.4147 81.477L65.4158 81.48Z" fill="#E60000"/>
<path d="M65.9839 81.914C66.1872 81.9007 66.3914 81.9193 66.5889 81.969C66.6488 82.0087 66.6961 82.0646 66.7253 82.1301C66.7545 82.1957 66.7645 82.2683 66.754 82.3393C66.7435 82.4103 66.713 82.4769 66.6661 82.5312C66.6191 82.5855 66.5577 82.6253 66.489 82.646C66.3203 82.6647 66.1507 82.6741 65.981 82.674C65.9816 82.4194 65.9826 82.166 65.9839 81.914Z" fill="#E60000"/>
<path d="M11.9519 6.86401C13.6031 6.33371 15.3701 6.27723 17.0519 6.70101C19.055 7.19325 20.7873 8.44702 21.8809 10.196L19.1469 11.772C18.7329 11.1401 18.1791 10.612 17.5283 10.2284C16.8775 9.84482 16.1472 9.61612 15.3939 9.56001C14.6415 9.46329 13.8772 9.52873 13.1522 9.75192C12.4273 9.97511 11.7585 10.3509 11.1909 10.854C10.2972 11.6533 9.72049 12.7471 9.56586 13.936C9.43895 14.6782 9.46437 15.4384 9.64059 16.1704C9.8168 16.9024 10.1401 17.5909 10.5909 18.194C11.0143 18.721 11.5381 19.1587 12.1318 19.4819C12.7255 19.8051 13.3774 20.0074 14.0499 20.077C15.4209 20.2988 16.8265 20.0455 18.0339 19.359C18.8591 18.8249 19.4658 18.0129 19.7439 17.07H14.8439V14.236H22.9669C23.0401 15.4403 22.9428 16.6489 22.6779 17.826C22.4104 18.8209 21.9331 19.7471 21.278 20.5422C20.6229 21.3374 19.8052 21.9831 18.8799 22.436C16.9805 23.2956 14.8516 23.5081 12.8199 23.041C11.2781 22.6993 9.86604 21.9242 8.74992 20.8071C7.63381 19.6899 6.86009 18.2771 6.51986 16.735C6.07261 14.6575 6.39229 12.4882 7.41986 10.628C8.43047 8.86806 10.0416 7.53136 11.9579 6.863L11.9519 6.86401Z" fill="white"/>
<path d="M62.623 9.046C63.617 8.728 64.623 8.431 65.623 8.138C65.623 9.216 65.613 10.293 65.623 11.372C66.492 11.364 67.364 11.372 68.231 11.372C68.231 12.329 68.226 13.285 68.236 14.242C67.363 14.261 66.489 14.242 65.616 14.251V19.051C65.5902 19.2564 65.626 19.4649 65.7188 19.65C65.8115 19.8351 65.957 19.9886 66.137 20.091C66.8166 20.2859 67.5294 20.3373 68.23 20.242V22.954C66.9412 23.1796 65.6163 23.0764 64.378 22.654C63.9998 22.4839 63.6649 22.2304 63.3984 21.9127C63.1319 21.5949 62.9407 21.2211 62.839 20.819C62.6382 19.9109 62.5665 18.9791 62.626 18.051C62.626 16.789 62.619 15.528 62.626 14.267C61.952 14.247 61.277 14.274 60.604 14.252C60.615 13.295 60.604 12.339 60.609 11.382H62.621C62.626 10.594 62.634 9.82 62.623 9.046Z" fill="white"/>
<path d="M37.2941 11.212C38.8918 10.8174 40.5807 11.069 41.9941 11.912C43.3194 12.7943 44.2438 14.1631 44.5671 15.722C44.7407 16.5984 44.7495 17.4994 44.5931 18.379C41.6824 18.379 38.7724 18.379 35.8631 18.379C35.9697 18.8278 36.1888 19.242 36.4997 19.5828C36.8105 19.9236 37.203 20.1797 37.6401 20.327C38.3363 20.6006 39.0989 20.6578 39.8281 20.4909C40.5572 20.3241 41.2191 19.9411 41.7271 19.392C42.5311 19.8547 43.3344 20.3187 44.1371 20.784C43.7209 21.3967 43.1863 21.9199 42.5647 22.3228C41.9432 22.7258 41.2473 23.0002 40.5181 23.13C38.7677 23.4889 36.9464 23.1853 35.4071 22.278C34.7309 21.8376 34.1536 21.2615 33.7119 20.5861C33.2702 19.9108 32.9736 19.151 32.8411 18.355C32.6823 17.5183 32.6908 16.6584 32.8661 15.8249C33.0413 14.9915 33.3798 14.201 33.8621 13.499C34.6818 12.3339 35.9061 11.5158 37.2961 11.204M37.3821 14.031C36.9853 14.2275 36.6385 14.5119 36.3681 14.8627C36.0978 15.2134 35.9111 15.6212 35.8221 16.055C37.7901 16.055 39.7571 16.072 41.7221 16.045C41.5798 15.3713 41.2153 14.7648 40.6871 14.323C40.2099 13.9876 39.6524 13.7843 39.0713 13.7338C38.4902 13.6832 37.9061 13.7871 37.3781 14.035L37.3821 14.031Z" fill="white"/>
<path d="M50.4751 11.179C51.3675 10.9435 52.308 10.9633 53.1896 11.2361C54.0713 11.5089 54.8587 12.0237 55.4621 12.722C55.4621 12.268 55.4621 11.822 55.4621 11.367H58.4511V22.942H55.4611C55.4521 22.494 55.4851 22.042 55.4331 21.599C54.8097 22.4042 53.9141 22.9546 52.9141 23.147C51.6247 23.4277 50.2775 23.2398 49.1141 22.617C48.3585 22.1817 47.7061 21.5878 47.2021 20.8762C46.698 20.1646 46.3541 19.3523 46.1941 18.495C45.8705 16.902 46.1397 15.2456 46.9511 13.837C47.334 13.1823 47.8431 12.61 48.4489 12.1536C49.0547 11.6971 49.7451 11.3655 50.4801 11.178M51.3061 14.018C50.8618 14.1406 50.453 14.3668 50.1131 14.678C49.4587 15.3089 49.0789 16.1719 49.0557 17.0806C49.0325 17.9893 49.3678 18.8706 49.9891 19.534C50.6345 20.1328 51.4911 20.4509 52.3709 20.4184C53.2506 20.386 54.0816 20.0057 54.6811 19.361C55.0327 18.9355 55.2779 18.4324 55.3963 17.8933C55.5147 17.3542 55.503 16.7947 55.3621 16.261C55.1691 15.495 54.695 14.8297 54.0341 14.397C53.6302 14.1492 53.1793 13.988 52.7099 13.9234C52.2405 13.8589 51.7629 13.8924 51.3071 14.022L51.3061 14.018Z" fill="white"/>
<path d="M29.1289 11.644C29.7225 11.314 30.3878 11.1342 31.0669 11.12C31.1109 12.236 31.0719 13.354 31.0869 14.471C30.6168 14.4011 30.1371 14.4375 29.683 14.5775C29.2289 14.7175 28.8119 14.9575 28.4629 15.28C27.9796 15.8261 27.7235 16.5362 27.7469 17.265C27.7329 19.157 27.7579 21.054 27.7349 22.948C26.7909 22.936 25.8429 22.948 24.9009 22.943V11.37H27.7429C27.7429 12.012 27.7519 12.657 27.7359 13.294C28.0146 12.6114 28.5022 12.0345 29.1289 11.646V11.644Z" fill="white"/>
<path d="M8.44978 43.272C8.46478 37.872 8.44078 32.472 8.46178 27.072C10.1438 27.083 11.8258 27.072 13.5068 27.072C14.229 27.0385 14.9528 27.0757 15.6678 27.183C16.6788 27.3816 17.6122 27.8644 18.3585 28.5749C19.1047 29.2854 19.6328 30.1939 19.8808 31.194C20.1174 32.2359 20.0673 33.3224 19.7358 34.338C19.3846 35.3141 18.7622 36.1698 17.9418 36.8046C17.1213 37.4395 16.1368 37.8271 15.1038 37.922C13.9528 37.982 12.7978 37.922 11.6468 37.954C11.6518 39.725 11.6468 41.497 11.6468 43.267C10.5798 43.267 9.51278 43.275 8.44678 43.267M11.6468 30.067V34.967C12.6308 34.967 13.6218 34.972 14.6088 34.967C15.0005 34.9541 15.3823 34.8403 15.7172 34.6368C16.0521 34.4332 16.3289 34.1468 16.5208 33.805C16.786 33.3259 16.8951 32.776 16.8329 32.232C16.7707 31.688 16.5403 31.1769 16.1738 30.77C15.9557 30.5459 15.6945 30.3684 15.4059 30.2481C15.1174 30.1278 14.8074 30.0672 14.4948 30.07C13.5508 30.064 12.5948 30.07 11.6488 30.07L11.6468 30.067Z" fill="white"/>
<path d="M22.1988 27.233H25.1878V43.277H22.1988C22.1955 37.929 22.1955 32.581 22.1988 27.233Z" fill="white"/>
<path d="M28.6879 34.112C29.1021 33.4165 29.6612 32.8185 30.3273 32.3586C30.9934 31.8987 31.7508 31.5878 32.5479 31.447C33.7691 31.238 35.0249 31.4668 36.0939 32.093C36.4949 32.3572 36.8553 32.6782 37.1639 33.046V31.712C38.1639 31.703 39.1569 31.712 40.1539 31.712V43.277C39.1539 43.284 38.1609 43.277 37.1629 43.277V41.938C36.5791 42.6594 35.7826 43.1783 34.8869 43.421C34.1784 43.6122 33.4391 43.661 32.7116 43.5645C31.9842 43.4681 31.2831 43.2283 30.6489 42.859C29.9389 42.4185 29.3279 41.8357 28.8544 41.1472C28.3809 40.4587 28.0552 39.6796 27.8979 38.859C27.5626 37.2352 27.845 35.5447 28.6899 34.118M33.3749 34.284C32.7929 34.3671 32.2495 34.6239 31.8159 35.021C31.1744 35.6388 30.7956 36.4801 30.7584 37.3699C30.7211 38.2598 31.0283 39.1298 31.6159 39.799C32.2254 40.4054 33.046 40.752 33.9056 40.7662C34.7652 40.7804 35.5968 40.461 36.2259 39.875C36.5403 39.5479 36.7862 39.1613 36.9491 38.7379C37.112 38.3144 37.1886 37.8627 37.1746 37.4093C37.1605 36.9558 37.056 36.5097 36.8672 36.0972C36.6783 35.6847 36.409 35.314 36.0749 35.007C35.7071 34.6931 35.2738 34.4652 34.8067 34.3401C34.3396 34.215 33.8504 34.1959 33.3749 34.284Z" fill="white"/>
<path d="M47.0627 31.607C47.8863 31.3803 48.7467 31.3199 49.5938 31.4292C50.4409 31.5386 51.2578 31.8156 51.9967 32.244C52.848 32.7566 53.546 33.4884 54.0177 34.363C53.1677 34.877 52.3027 35.37 51.4447 35.877C51.2284 35.5009 50.9355 35.1744 50.585 34.9186C50.2346 34.6628 49.8343 34.4835 49.4101 34.3922C48.986 34.3008 48.5474 34.2995 48.1227 34.3884C47.698 34.4773 47.2967 34.6543 46.9447 34.908C46.5826 35.1974 46.2851 35.5596 46.0715 35.971C45.858 36.3825 45.733 36.8342 45.7047 37.2969C45.6765 37.7596 45.7455 38.2232 45.9074 38.6576C46.0693 39.092 46.3205 39.4876 46.6447 39.819C46.9884 40.1349 47.3981 40.3702 47.8442 40.5078C48.2903 40.6453 48.7615 40.6815 49.2233 40.6139C49.6852 40.5463 50.1262 40.3764 50.5141 40.1168C50.902 39.8571 51.2271 39.5142 51.4657 39.113C52.3297 39.608 53.1978 40.097 54.0658 40.599C53.6537 41.3239 53.0934 41.9537 52.4214 42.4472C51.7493 42.9407 50.9807 43.2869 50.1657 43.463C48.8515 43.7458 47.482 43.6155 46.2447 43.09C45.368 42.696 44.5995 42.0959 44.0049 41.3407C43.4102 40.5855 43.007 39.6977 42.8297 38.753C42.6047 37.5445 42.7115 36.2976 43.1387 35.145C43.4771 34.2935 44.0072 33.5314 44.6877 32.9178C45.3682 32.3043 46.1809 31.8557 47.0627 31.607Z" fill="white"/>
<path d="M58.8497 32.052C60.2394 31.3737 61.8217 31.1994 63.3257 31.559C64.099 31.761 64.821 32.1236 65.4448 32.6233C66.0685 33.1229 66.58 33.7484 66.9458 34.459C67.6134 35.774 67.8245 37.2738 67.5457 38.722H59.1117C59.0117 38.713 58.7597 38.705 58.8657 38.873C58.9878 39.2948 59.2114 39.6802 59.517 39.9954C59.8226 40.3106 60.2009 40.546 60.6187 40.681C61.3114 40.9486 62.0686 41.0016 62.7918 40.833C63.5149 40.6645 64.1707 40.2822 64.6737 39.736C65.4737 40.203 66.2887 40.655 67.0847 41.136C66.5336 41.9338 65.7876 42.5775 64.9177 43.006C63.501 43.6203 61.9277 43.7766 60.4177 43.453C59.6488 43.305 58.9177 43.0033 58.2682 42.566C57.6187 42.1287 57.0641 41.5648 56.6377 40.908C55.7746 39.5001 55.477 37.8175 55.8047 36.199C55.9689 35.3247 56.3273 34.4985 56.8537 33.7814C57.3801 33.0643 58.0608 32.4747 58.8457 32.056M60.3657 34.362C59.9587 34.5549 59.6022 34.84 59.3245 35.1946C59.0468 35.5492 58.8554 35.9636 58.7657 36.405H64.6657C64.528 35.7301 64.1652 35.1219 63.6367 34.68C63.1674 34.3468 62.619 34.1421 62.0461 34.0863C61.4731 34.0305 60.8956 34.1256 60.3707 34.362H60.3657Z" fill="white"/>
<path d="M6.32292 48.224C10.2979 48.224 14.2739 48.216 18.2479 48.224C18.2409 49.193 18.2479 50.162 18.2479 51.131C16.7889 51.138 15.3309 51.121 13.8719 51.139C13.8819 55.294 13.8629 59.449 13.8819 63.602C12.8129 63.628 11.7459 63.602 10.6819 63.613V51.133H6.32692C6.32359 50.165 6.32225 49.1953 6.32292 48.224Z" fill="white"/>
<path d="M22.319 51.777C23.7134 51.5744 25.1354 51.847 26.356 52.551C27.063 52.9701 27.6788 53.5269 28.1666 54.1884C28.6545 54.8499 29.0045 55.6027 29.196 56.402C29.5447 57.9247 29.32 59.5225 28.565 60.89C28.1537 61.6103 27.5989 62.2385 26.9349 62.7356C26.2709 63.2327 25.5119 63.5882 24.705 63.78C23.1487 64.1436 21.5129 63.9192 20.112 63.15C19.421 62.7505 18.8163 62.2177 18.3331 61.5825C17.8498 60.9474 17.4976 60.2225 17.297 59.45C17.0235 58.3331 17.0373 57.1651 17.337 56.055C17.6679 54.9381 18.3136 53.9402 19.1967 53.1807C20.0799 52.4211 21.1632 51.9321 22.317 51.772M22.3 54.755C21.8266 54.8871 21.3933 55.1345 21.039 55.475C20.7301 55.7933 20.487 56.1694 20.3236 56.5818C20.1603 56.9942 20.0798 57.4347 20.0868 57.8783C20.0939 58.3218 20.1884 58.7595 20.3648 59.1665C20.5412 59.5735 20.7961 59.9416 21.115 60.25C21.7357 60.7783 22.5334 61.0519 23.3476 61.0159C24.1619 60.9799 24.9323 60.637 25.504 60.056C25.8737 59.6459 26.136 59.1506 26.2674 58.6143C26.3988 58.078 26.3952 57.5175 26.257 56.983C26.1283 56.4495 25.8586 55.9605 25.4762 55.5669C25.0937 55.1734 24.6125 54.8898 24.083 54.746C23.4976 54.5996 22.8848 54.6027 22.301 54.755H22.3Z" fill="white"/>
<path d="M6.76807 68.702C7.88407 68.702 9.00107 68.709 10.1171 68.702C11.1701 72.696 12.1771 76.702 13.2271 80.702C14.3351 76.702 15.4731 72.71 16.5911 68.713C17.5091 68.713 18.4281 68.696 19.3441 68.723C20.4567 72.723 21.5864 76.7153 22.7331 80.7C23.7501 76.7 24.7981 72.712 25.8191 68.715C26.9411 68.708 28.0631 68.715 29.1841 68.715C27.6767 74.115 26.1667 79.515 24.6541 84.915C23.4431 84.924 22.2261 84.915 21.0121 84.915C20.0011 81.369 18.9791 77.825 17.9771 74.277C17.5231 75.677 17.1621 77.119 16.7431 78.538C16.1377 80.6633 15.5347 82.789 14.9341 84.915H11.2971C9.78907 79.505 8.2794 74.1007 6.76807 68.702Z" fill="white"/>
<path d="M51.938 68.705C52.938 68.705 53.938 68.705 54.938 68.705V78.397C56.278 76.712 57.581 74.997 58.926 73.32C60.107 73.334 61.289 73.32 62.469 73.325C60.94 75.246 59.369 77.135 57.831 79.044C59.4263 80.9967 61.023 82.949 62.621 84.901H59.14C57.734 83.16 56.356 81.401 54.94 79.679V84.901H51.94C51.94 79.5017 51.9393 74.103 51.938 68.705Z" fill="white"/>
<path d="M34.0028 73.075C35.4463 72.8394 36.9268 73.1149 38.1888 73.854C38.8842 74.2725 39.4897 74.8248 39.9703 75.4787C40.4509 76.1327 40.7971 76.8754 40.9888 77.664C41.3441 79.1988 41.1175 80.8107 40.3528 82.188C39.5815 83.5239 38.3327 84.518 36.8578 84.9701C35.7823 85.2712 34.6496 85.3055 33.5578 85.07C32.4623 84.8193 31.4594 84.2656 30.6637 83.4719C29.8679 82.6783 29.3114 81.6769 29.0578 80.5821C28.8692 79.7109 28.8499 78.8116 29.0008 77.9331C29.2306 76.7064 29.8347 75.5809 30.73 74.7114C31.6253 73.8419 32.7679 73.2709 34.0008 73.0771M34.1518 76.028C33.6751 76.1515 33.2369 76.3921 32.8768 76.7281C32.5532 77.0491 32.2983 77.4324 32.1273 77.8549C31.9564 78.2775 31.8731 78.7303 31.8824 79.186C31.8918 79.6417 31.9936 80.0907 32.1817 80.5058C32.3698 80.921 32.6404 81.2936 32.9768 81.601C33.3636 81.9119 33.8164 82.13 34.3006 82.2387C34.7847 82.3474 35.2873 82.3438 35.7698 82.2281C36.1887 82.1318 36.5826 81.9485 36.9259 81.6901C37.2693 81.4317 37.5545 81.1039 37.7628 80.7281C38.1362 80.0061 38.2472 79.1768 38.0768 78.382C37.9613 77.8158 37.6878 77.2938 37.2878 76.8766C36.8878 76.4595 36.3778 76.1642 35.8168 76.0251C35.2694 75.8989 34.7002 75.9013 34.1538 76.0321L34.1518 76.028Z" fill="white"/>
<path d="M47.5579 73.679C48.2214 73.2845 48.981 73.081 49.7529 73.091V76.431C49.2635 76.3593 48.7644 76.3937 48.2894 76.5317C47.8145 76.6697 47.3747 76.9082 46.9999 77.231C46.7423 77.5015 46.5421 77.8213 46.4113 78.1712C46.2805 78.5211 46.2219 78.8938 46.2389 79.267C46.2389 81.1443 46.2389 83.0223 46.2389 84.901H43.2389C43.2389 81.045 43.2439 77.189 43.2339 73.334C44.2339 73.314 45.2339 73.334 46.2339 73.324C46.2339 73.973 46.2389 74.624 46.2339 75.27C46.4986 74.6147 46.9615 74.0584 47.5579 73.679Z" fill="white"/>
<path d="M65.47 80.325C65.9092 80.1799 66.3785 80.1508 66.8323 80.2405C67.2861 80.3302 67.709 80.5357 68.06 80.837C68.4951 81.219 68.7921 81.7339 68.9049 82.3017C69.0178 82.8696 68.9403 83.4588 68.6843 83.9782C68.4284 84.4976 68.0084 84.918 67.4893 85.1745C66.9702 85.431 66.381 85.5091 65.813 85.3968C65.245 85.2846 64.7299 84.9881 64.3474 84.5534C63.965 84.1187 63.7365 83.5701 63.6974 82.9924C63.6583 82.4147 63.8108 81.8403 64.1313 81.3581C64.4518 80.8759 64.9223 80.5127 65.47 80.325ZM65.924 80.653C65.5061 80.7186 65.1182 80.9102 64.812 81.202C64.3977 81.6321 64.1668 82.2064 64.1683 82.8036C64.1698 83.4008 64.4035 83.9741 64.82 84.402C65.1993 84.7433 65.6839 84.9443 66.1934 84.9718C66.7028 84.9993 67.2063 84.8515 67.62 84.553C67.8656 84.3522 68.0667 84.1023 68.2105 83.8195C68.3543 83.5367 68.4377 83.227 68.4553 82.9102C68.4729 82.5934 68.4243 82.2764 68.3127 81.9794C68.2011 81.6823 68.0289 81.4118 67.807 81.185C67.5549 80.958 67.2539 80.7921 66.9274 80.6998C66.601 80.6076 66.2577 80.5916 65.924 80.653Z" fill="white"/>
<path d="M65.418 81.476C65.9634 81.403 66.5185 81.4641 67.035 81.654C67.1418 81.7415 67.2234 81.8558 67.2715 81.9853C67.3195 82.1148 67.3323 82.2548 67.3083 82.3908C67.2844 82.5268 67.2247 82.654 67.1354 82.7593C67.046 82.8646 66.9302 82.9442 66.7999 82.99C67.0319 83.342 67.254 83.703 67.475 84.062H66.8699C66.6699 83.73 66.461 83.404 66.265 83.074L65.999 83.047C65.985 83.386 65.985 83.728 65.988 84.066H65.421V81.479M65.988 81.916V82.673C66.1577 82.673 66.3273 82.6636 66.496 82.645C66.5647 82.6243 66.6261 82.5845 66.673 82.5302C66.72 82.4759 66.7505 82.4093 66.761 82.3383C66.7715 82.2673 66.7615 82.1947 66.7323 82.1291C66.7031 82.0635 66.6558 82.0077 66.5959 81.968C66.398 81.9184 66.1935 81.9002 65.9899 81.914L65.988 81.916Z" fill="white"/>
<path d="M54.687 100.632C55.6045 100.256 56.6072 100.137 57.587 100.289V102.664C57.2501 102.581 56.8976 102.583 56.5616 102.67C56.2256 102.757 55.9167 102.927 55.663 103.164C55.153 103.738 55.34 104.547 55.301 105.245C56.058 105.255 56.815 105.245 57.566 105.245V107.611H55.311V114.972C54.403 114.972 53.499 114.967 52.592 114.977C52.575 112.523 52.592 110.069 52.584 107.617H50.811V105.251H52.579C52.502 104.342 52.6039 103.427 52.879 102.558C53.2059 101.704 53.8547 101.013 54.686 100.633L54.687 100.632Z" fill="white"/>
<path d="M47.9829 100.474C48.3005 100.381 48.6386 100.386 48.9534 100.488C49.2682 100.59 49.545 100.784 49.7477 101.045C49.9505 101.307 50.0697 101.623 50.09 101.954C50.1103 102.284 50.0306 102.613 49.8614 102.897C49.6921 103.181 49.4412 103.408 49.1412 103.548C48.8412 103.687 48.5062 103.733 48.1796 103.68C47.8531 103.626 47.5503 103.476 47.3106 103.248C47.071 103.019 46.9055 102.725 46.8359 102.401C46.7537 101.995 46.8255 101.572 47.0376 101.216C47.2496 100.86 47.5866 100.595 47.9829 100.474Z" fill="white"/>
<path d="M60.1629 100.466C60.4812 100.378 60.8185 100.388 61.131 100.495C61.4435 100.601 61.7168 100.799 61.9155 101.063C62.1141 101.327 62.229 101.644 62.2451 101.973C62.2613 102.303 62.1779 102.63 62.0059 102.912C61.8339 103.194 61.5812 103.417 61.2805 103.554C60.9799 103.69 60.6452 103.733 60.3199 103.677C59.9946 103.621 59.6936 103.468 59.4561 103.239C59.2186 103.01 59.0555 102.714 58.9879 102.391C58.9066 101.981 58.9823 101.556 59.1999 101.199C59.4176 100.843 59.7613 100.581 60.1629 100.466Z" fill="white"/>
<path d="M81.1158 100.358H83.8398V114.964C82.9798 114.974 82.1207 114.964 81.2607 114.971C81.271 114.653 81.259 114.334 81.2247 114.018C80.7163 114.591 80.0246 114.97 79.2678 115.09C78.5504 115.234 77.8093 115.209 77.1033 115.017C76.3972 114.825 75.7456 114.471 75.1998 113.984C74.7004 113.482 74.309 112.883 74.0499 112.224C73.7907 111.565 73.6692 110.86 73.6927 110.152C73.6353 108.793 74.1005 107.464 74.9927 106.438C75.415 105.998 75.9223 105.648 76.4839 105.41C77.0456 105.172 77.6498 105.05 78.2598 105.053C78.7794 105.019 79.3006 105.091 79.7914 105.265C80.2823 105.439 80.7325 105.711 81.1147 106.065C81.1047 104.165 81.1147 102.259 81.1147 100.357M78.3148 107.457C77.7773 107.558 77.3003 107.864 76.9847 108.311C76.5956 108.921 76.422 109.643 76.4918 110.363C76.5009 111.041 76.7621 111.692 77.2247 112.188C77.5963 112.519 78.0605 112.729 78.5547 112.789C79.049 112.849 79.5498 112.756 79.9897 112.523C80.3088 112.335 80.5762 112.07 80.7681 111.753C80.9601 111.436 81.0706 111.077 81.0898 110.707C81.2391 109.855 81.0727 108.979 80.6218 108.241C80.3491 107.908 79.9883 107.657 79.5804 107.519C79.1726 107.381 78.734 107.358 78.3148 107.457Z" fill="white"/>
<path d="M8.95678 102.382C10.3255 101.248 12.061 100.652 13.8378 100.706C15.5751 100.669 17.2645 101.277 18.5788 102.414C19.6214 103.37 20.3002 104.658 20.4998 106.059L17.4688 106.322C17.3796 105.758 17.1579 105.223 16.8219 104.761C16.4859 104.299 16.0451 103.923 15.5358 103.664C14.7855 103.316 13.9496 103.197 13.1319 103.32C12.3142 103.443 11.5506 103.803 10.9358 104.356C10.0661 105.294 9.59927 106.536 9.63578 107.815C9.55326 109.115 9.97923 110.397 10.8238 111.389C11.45 111.999 12.2495 112.4 13.1127 112.538C13.976 112.676 14.8608 112.544 15.6458 112.159C16.1278 111.903 16.5436 111.538 16.8603 111.093C17.177 110.648 17.386 110.136 17.4708 109.597C18.4898 109.688 19.5078 109.765 20.5248 109.866C20.2815 111.411 19.4591 112.805 18.2248 113.766C17.3581 114.384 16.3716 114.813 15.3289 115.026C14.2861 115.239 13.2103 115.231 12.1708 115.003C10.4788 114.704 8.97022 113.756 7.96578 112.362C6.88043 110.692 6.4509 108.679 6.75978 106.711C6.93494 105.047 7.71839 103.507 8.95978 102.385L8.95678 102.382Z" fill="white"/>
<path d="M40.6069 102.039C41.5189 102.031 42.4319 102.053 43.3439 102.027C43.3629 103.097 43.3539 104.169 43.3269 105.239C44.0909 105.278 44.8579 105.246 45.6269 105.256V107.622H43.3269C43.3269 108.833 43.3099 110.051 43.3129 111.266C43.2965 111.51 43.347 111.754 43.4591 111.972C43.5712 112.189 43.7406 112.372 43.9489 112.5C44.4789 112.727 45.0708 112.764 45.6249 112.605V115.052C44.3457 115.342 43.0057 115.181 41.8309 114.598C41.42 114.313 41.088 113.929 40.8659 113.481C40.6438 113.033 40.5389 112.536 40.5609 112.036C40.5679 110.565 40.5679 109.094 40.5839 107.623C39.9939 107.612 39.4049 107.623 38.8159 107.618V105.252H40.5859C40.5979 104.176 40.5969 103.104 40.6069 102.039Z" fill="white"/>
<path d="M23.1629 106.082C24.1399 105.345 25.3477 104.982 26.569 105.056C27.6377 105.058 28.6725 105.431 29.4969 106.111C30.2441 106.787 30.738 107.697 30.897 108.692C30.9967 109.448 31.0302 110.212 30.9969 110.974C28.7729 110.984 26.549 110.974 24.326 110.974C24.3391 111.518 24.5549 112.037 24.931 112.43C25.2359 112.678 25.5989 112.845 25.9859 112.915C26.3729 112.985 26.7713 112.956 27.1439 112.83C27.3749 112.763 27.5863 112.641 27.7604 112.475C27.9344 112.309 28.066 112.104 28.1439 111.876C29.0569 111.937 29.991 111.917 30.89 112.036C30.7869 112.532 30.5809 113 30.2853 113.411C29.9897 113.822 29.611 114.166 29.1739 114.421C27.9518 115.133 26.5038 115.352 25.1259 115.032C23.9566 114.802 22.9241 114.123 22.25 113.14C21.5156 111.947 21.2411 110.528 21.4779 109.147C21.6236 107.947 22.226 106.849 23.16 106.082M25.2359 107.482C24.9601 107.667 24.7334 107.916 24.5752 108.208C24.417 108.5 24.3322 108.826 24.328 109.158H28.237C28.2431 108.839 28.1752 108.523 28.0386 108.235C27.9021 107.947 27.7006 107.695 27.4499 107.498C27.1148 107.303 26.7347 107.199 26.347 107.195C25.9593 107.192 25.5774 107.29 25.239 107.479L25.2359 107.482Z" fill="white"/>
<path d="M65.1487 105.996C65.7643 105.573 66.4604 105.281 67.1937 105.139C67.9269 104.997 68.6816 105.007 69.4107 105.169C70.0032 105.279 70.5642 105.518 71.054 105.869C71.5438 106.22 71.9503 106.674 72.2447 107.2C72.7917 108.377 73.0084 109.68 72.8717 110.97C70.6477 110.99 68.4227 110.97 66.1977 110.981C66.2146 111.522 66.4299 112.037 66.8027 112.429C67.1154 112.684 67.489 112.854 67.887 112.921C68.2849 112.988 68.6935 112.951 69.0727 112.813C69.2943 112.739 69.4961 112.616 69.6629 112.452C69.8297 112.289 69.9572 112.09 70.0357 111.87C70.9497 111.92 71.8647 111.96 72.7797 112.003C72.6779 112.508 72.4702 112.986 72.17 113.405C71.8699 113.824 71.4843 114.174 71.0388 114.433C69.7731 115.16 68.2729 115.363 66.8597 114.997C65.7409 114.741 64.7615 114.069 64.1207 113.117C63.3783 111.893 63.1151 110.437 63.3817 109.03C63.5535 107.827 64.1891 106.739 65.1527 105.999M67.2527 107.41C66.9376 107.581 66.6742 107.834 66.4902 108.141C66.3062 108.449 66.2083 108.801 66.2067 109.159H70.1157C70.1178 108.862 70.0579 108.567 69.9398 108.294C69.8217 108.021 69.648 107.776 69.4297 107.574C69.112 107.358 68.7432 107.229 68.36 107.199C67.9768 107.17 67.5926 107.242 67.2457 107.407L67.2527 107.41Z" fill="white"/>
<path d="M34.9947 106.311C35.3094 105.912 35.7174 105.596 36.1828 105.392C36.6483 105.187 37.1568 105.101 37.6637 105.139V107.79C37.0179 107.776 36.3854 107.974 35.8637 108.355C35.6162 108.558 35.4184 108.815 35.2853 109.107C35.1523 109.398 35.0874 109.716 35.0957 110.036C35.0957 111.675 35.0957 113.315 35.0957 114.955H32.3467C32.3513 111.716 32.3513 108.477 32.3467 105.239C33.2317 105.239 34.1177 105.239 35.0037 105.239C35.0027 105.59 35.0037 105.952 34.9947 106.311Z" fill="white"/>
<path d="M47.0691 105.235H49.8151V114.962C48.8961 114.955 47.9781 114.976 47.0601 114.951C47.0791 111.712 47.0631 108.472 47.0691 105.235Z" fill="white"/>
<path d="M59.224 105.249H61.97C61.97 108.49 61.978 111.732 61.965 114.973C61.057 114.966 60.143 114.964 59.231 114.973C59.213 111.734 59.229 108.491 59.224 105.249Z" fill="white"/>
<path d="M27.1581 121.7C27.3909 121.496 27.6697 121.352 27.9705 121.28C28.2712 121.207 28.5851 121.209 28.8851 121.284C29.1247 121.318 29.3511 121.414 29.5417 121.563C29.7323 121.712 29.8804 121.909 29.9711 122.133C30.0774 122.462 30.1069 122.812 30.0575 123.154C30.0081 123.497 29.8811 123.823 29.6861 124.109C29.2288 124.691 28.7394 125.247 28.2201 125.774C28.8501 125.783 29.4791 125.774 30.1121 125.774C30.1121 126.107 30.1171 126.443 30.1121 126.774C28.9851 126.774 27.8581 126.766 26.7321 126.781C26.7181 126.487 26.7181 126.191 26.7181 125.898C27.3231 125.212 27.9581 124.553 28.5581 123.863C28.7208 123.69 28.8376 123.48 28.8977 123.25C28.9578 123.021 28.9593 122.78 28.9021 122.55C28.8628 122.461 28.8 122.384 28.7205 122.327C28.6409 122.271 28.5476 122.237 28.4503 122.229C28.353 122.221 28.2555 122.24 28.168 122.283C28.0804 122.326 28.0062 122.392 27.9531 122.474C27.8851 122.644 27.8394 122.822 27.8171 123.004C27.4461 122.974 27.0761 122.954 26.7051 122.933C26.7016 122.48 26.8626 122.041 27.1581 121.697V121.7Z" fill="white"/>
<path d="M32.26 121.287C32.58 121.208 32.9151 121.214 33.2322 121.304C33.5494 121.393 33.8378 121.564 34.069 121.799C34.5711 122.414 34.8276 123.192 34.789 123.985C34.8497 124.816 34.5955 125.639 34.077 126.291C33.7351 126.638 33.274 126.842 32.7872 126.862C32.3005 126.881 31.8245 126.715 31.456 126.396C30.9679 125.897 30.6828 125.234 30.656 124.536C30.5646 123.779 30.6796 123.011 30.989 122.314C31.1096 122.058 31.2862 121.833 31.5057 121.655C31.7252 121.477 31.982 121.351 32.257 121.286M32.472 122.27C31.999 122.421 31.867 122.978 31.818 123.416C31.7049 124.108 31.7834 124.817 32.045 125.468C32.1047 125.574 32.1887 125.664 32.2901 125.73C32.3915 125.797 32.5074 125.838 32.6281 125.851C32.7487 125.864 32.8707 125.848 32.9839 125.804C33.0971 125.761 33.1983 125.691 33.279 125.6C33.5363 125.183 33.6598 124.697 33.633 124.208C33.6801 123.66 33.5865 123.109 33.361 122.608C33.2734 122.459 33.1375 122.344 32.9758 122.283C32.814 122.222 32.6363 122.218 32.472 122.272V122.27Z" fill="white"/>
<path d="M36.3571 121.377C36.6927 121.241 37.0586 121.197 37.4169 121.249C37.7753 121.302 38.113 121.45 38.3951 121.677C38.616 121.952 38.7559 122.282 38.799 122.632C38.8421 122.981 38.7867 123.336 38.6391 123.656C38.1819 124.446 37.6058 125.161 36.9311 125.775C37.5641 125.783 38.1971 125.775 38.8311 125.775V126.775C37.7011 126.78 36.5701 126.775 35.4391 126.775V125.887C36.0191 125.249 36.6021 124.615 37.1801 123.975C37.3724 123.797 37.5141 123.571 37.5909 123.32C37.6677 123.07 37.6767 122.803 37.6171 122.548C37.5801 122.466 37.5234 122.395 37.4521 122.34C37.3808 122.286 37.2971 122.25 37.2085 122.235C37.1199 122.221 37.0291 122.229 36.9442 122.258C36.8594 122.287 36.783 122.337 36.7221 122.403C36.6105 122.584 36.5484 122.791 36.5421 123.003C36.1711 122.981 35.7991 122.959 35.4281 122.941C35.4057 122.617 35.4825 122.294 35.6483 122.014C35.8141 121.735 36.0609 121.513 36.3561 121.377H36.3571Z" fill="white"/>
<path d="M40.3491 121.358C40.7182 121.205 41.1264 121.171 41.5155 121.263C41.9045 121.355 42.2547 121.568 42.5161 121.87C42.7011 122.227 42.7823 122.629 42.7507 123.031C42.7191 123.432 42.5758 123.816 42.3371 124.14C41.8847 124.712 41.3984 125.256 40.8811 125.769C41.5181 125.774 42.1551 125.764 42.7931 125.776C42.7931 126.111 42.7931 126.445 42.7791 126.776C41.6531 126.762 40.5261 126.776 39.4011 126.769C39.3795 126.466 39.3903 126.162 39.4331 125.861C40.0261 125.161 40.6761 124.519 41.2671 123.818C41.4254 123.644 41.5361 123.431 41.5886 123.202C41.6411 122.972 41.6337 122.733 41.5671 122.507C41.5205 122.421 41.4516 122.349 41.3675 122.299C41.2835 122.249 41.1874 122.223 41.0896 122.223C40.9918 122.223 40.8957 122.249 40.8117 122.299C40.7276 122.349 40.6587 122.421 40.6121 122.507C40.5585 122.663 40.5226 122.824 40.5051 122.988C40.1271 122.962 39.7481 122.962 39.3701 122.902C39.3623 122.575 39.4514 122.253 39.6261 121.977C39.8009 121.701 40.0535 121.482 40.3521 121.349L40.3491 121.358Z" fill="white"/>
<path d="M70.2308 121.377C70.5667 121.24 70.9329 121.196 71.2917 121.249C71.6504 121.302 71.9885 121.45 72.2708 121.677C72.4979 121.964 72.6384 122.309 72.6757 122.673C72.7131 123.036 72.6458 123.403 72.4818 123.73C72.0186 124.487 71.4514 125.174 70.7968 125.773H72.7058V126.773C71.5708 126.787 70.4418 126.773 69.3108 126.778V125.89C69.8918 125.252 70.4758 124.617 71.0518 123.977C71.2453 123.798 71.3874 123.57 71.4632 123.317C71.5389 123.064 71.5457 122.795 71.4828 122.539C71.4415 122.453 71.3782 122.379 71.2993 122.325C71.2203 122.271 71.1285 122.24 71.0332 122.233C70.9379 122.226 70.8425 122.245 70.7567 122.287C70.6709 122.329 70.5978 122.393 70.5448 122.472C70.4697 122.639 70.4247 122.819 70.4118 123.002C70.0388 122.98 69.6668 122.958 69.2948 122.938C69.2757 122.614 69.355 122.291 69.5222 122.013C69.6894 121.734 69.9357 121.513 70.2308 121.377Z" fill="white"/>
<path d="M74.8742 121.281C75.1941 121.206 75.5281 121.214 75.8436 121.307C76.1591 121.399 76.4453 121.571 76.6742 121.807C77.1688 122.42 77.4217 123.192 77.3852 123.979C77.4442 124.804 77.1947 125.622 76.6851 126.273C76.3387 126.634 75.8646 126.846 75.3642 126.862C74.8639 126.878 74.3771 126.697 74.0082 126.359C73.5242 125.828 73.2516 125.138 73.2422 124.419C73.1641 123.665 73.3 122.904 73.6342 122.224C73.7601 121.986 73.9363 121.778 74.1507 121.616C74.365 121.453 74.6112 121.339 74.8742 121.281ZM75.0972 122.265C74.6042 122.401 74.4652 122.971 74.4162 123.418C74.3009 124.117 74.3837 124.834 74.6552 125.488C74.7176 125.592 74.8038 125.679 74.9066 125.743C75.0094 125.807 75.126 125.845 75.2465 125.855C75.3671 125.864 75.4883 125.845 75.6001 125.799C75.7118 125.753 75.8109 125.68 75.8892 125.588C76.1401 125.169 76.2599 124.685 76.2332 124.198C76.2772 123.662 76.1882 123.123 75.9741 122.629C75.8917 122.477 75.7594 122.357 75.5995 122.291C75.4395 122.224 75.2615 122.214 75.0952 122.263L75.0972 122.265Z" fill="white"/>
<path d="M78.9828 121.358C79.3523 121.205 79.7607 121.173 80.1498 121.265C80.5389 121.358 80.8888 121.571 81.1498 121.874C81.3283 122.218 81.4102 122.603 81.3866 122.99C81.363 123.377 81.2349 123.75 81.0158 124.069C80.5563 124.67 80.0551 125.238 79.5158 125.769H81.4228C81.4228 126.104 81.4228 126.439 81.4128 126.775C80.2858 126.763 79.1588 126.775 78.0328 126.77C78.0758 126.414 77.8958 125.961 78.2028 125.692C78.7508 125.092 79.3028 124.499 79.8408 123.892C80.0165 123.715 80.1422 123.495 80.2053 123.254C80.2684 123.013 80.2664 122.759 80.1997 122.519C80.1603 122.443 80.1037 122.378 80.0343 122.328C79.965 122.278 79.8848 122.245 79.8004 122.231C79.7159 122.218 79.6295 122.225 79.5481 122.251C79.4667 122.277 79.3926 122.322 79.3318 122.382C79.2081 122.564 79.1387 122.777 79.1318 122.997C78.7538 122.974 78.3748 122.963 78.0028 122.918C77.9924 122.59 78.08 122.266 78.2546 121.988C78.4292 121.711 78.6827 121.491 78.9828 121.358Z" fill="white"/>
<path d="M82.8719 121.389C83.2048 121.249 83.5687 121.2 83.9267 121.246C84.2848 121.292 84.6243 121.432 84.9109 121.652C85.0675 121.803 85.1905 121.986 85.2718 122.188C85.353 122.39 85.3907 122.607 85.3824 122.824C85.3741 123.042 85.32 123.255 85.2235 123.45C85.1271 123.646 84.9906 123.818 84.8228 123.957C85.0409 124.112 85.2161 124.32 85.3323 124.562C85.4485 124.803 85.5018 125.07 85.4873 125.337C85.4729 125.604 85.3911 125.864 85.2495 126.091C85.108 126.318 84.9114 126.506 84.6778 126.637C84.3579 126.796 84.0047 126.875 83.6477 126.869C83.2907 126.863 82.9403 126.772 82.6258 126.603C82.3953 126.449 82.2069 126.239 82.0778 125.994C81.9488 125.748 81.8832 125.474 81.8869 125.197C82.2589 125.174 82.6315 125.151 83.0048 125.13C83.0276 125.327 83.0999 125.515 83.2149 125.676C83.2912 125.751 83.3841 125.806 83.486 125.838C83.5879 125.87 83.6959 125.877 83.8011 125.859C83.9063 125.841 84.0057 125.798 84.0912 125.734C84.1767 125.67 84.2458 125.587 84.2928 125.491C84.3711 125.326 84.3871 125.138 84.3379 124.962C84.2886 124.787 84.1775 124.634 84.0249 124.534C83.7149 124.445 83.3907 124.416 83.0698 124.449V123.489C83.3504 123.513 83.6329 123.491 83.9068 123.426C84.0584 123.339 84.1713 123.198 84.2227 123.031C84.2742 122.864 84.2603 122.683 84.1839 122.526C84.1418 122.452 84.0837 122.387 84.0138 122.338C83.9439 122.289 83.8639 122.256 83.7797 122.241C83.6954 122.227 83.609 122.232 83.5267 122.255C83.4444 122.278 83.3683 122.319 83.3039 122.375C83.1772 122.53 83.0984 122.719 83.0769 122.918C82.7069 122.896 82.3378 122.877 81.9698 122.859C81.9575 122.552 82.0365 122.248 82.1967 121.986C82.3569 121.724 82.5911 121.515 82.8698 121.386L82.8719 121.389Z" fill="white"/>
<path d="M7.22184 121.323C7.55284 121.318 7.88384 121.318 8.21584 121.314C8.89684 122.557 9.56184 123.814 10.2248 125.062C10.9058 123.832 11.5628 122.587 12.2098 121.337C12.5428 121.311 12.8788 121.317 13.2098 121.311C13.2398 123.136 13.2238 124.962 13.2178 126.787C12.8472 126.782 12.4758 126.782 12.1038 126.787V123.869C11.5738 124.807 11.1038 125.778 10.6038 126.728H9.86384C9.35484 125.774 8.87984 124.804 8.34984 123.861C8.35684 124.836 8.34984 125.81 8.34984 126.786H7.21484C7.22018 124.961 7.22251 123.14 7.22184 121.323Z" fill="white"/>
<path d="M16.1808 121.321H17.1338C17.9108 123.143 18.7078 124.957 19.4798 126.784H18.2458C18.0945 126.435 17.9465 126.085 17.8018 125.734C17.0448 125.727 16.2848 125.734 15.5258 125.734C15.3778 126.087 15.2265 126.437 15.0718 126.784H13.8418C14.6118 124.958 15.4028 123.142 16.1808 121.321ZM16.6548 123.085C16.4188 123.663 16.1648 124.232 15.9348 124.812H17.4018C17.1508 124.234 16.9308 123.644 16.6578 123.083L16.6548 123.085Z" fill="white"/>
<path d="M20.0851 121.342C20.8801 121.323 21.674 121.332 22.472 121.334C22.7599 121.322 23.046 121.385 23.3025 121.516C23.559 121.647 23.7772 121.843 23.9361 122.083C24.19 122.506 24.2676 123.012 24.1522 123.492C24.0368 123.971 23.7376 124.387 23.319 124.648C23.697 125.361 24.095 126.066 24.466 126.784C24.047 126.784 23.6341 126.784 23.2121 126.784C22.8341 126.133 22.5041 125.454 22.1181 124.806C21.8181 124.813 21.5181 124.814 21.2251 124.82C21.2301 125.471 21.2251 126.12 21.2251 126.776C20.8471 126.776 20.4741 126.776 20.0981 126.785C20.0701 124.969 20.1031 123.152 20.0811 121.336M21.216 122.32V123.806C21.6705 123.828 22.1259 123.813 22.578 123.763C22.7165 123.705 22.8346 123.608 22.9174 123.482C23.0003 123.357 23.0441 123.211 23.0434 123.061C23.0426 122.911 22.9973 122.764 22.9132 122.64C22.8291 122.516 22.71 122.419 22.571 122.363C22.1205 122.314 21.6668 122.3 21.2141 122.322L21.216 122.32Z" fill="white"/>
<path d="M49.8149 121.313H50.8149C51.4959 122.557 52.1369 123.824 52.8389 125.056C53.4879 123.803 54.1629 122.563 54.8199 121.315H55.8199V126.781H54.6979C54.6979 125.814 54.7099 124.846 54.6889 123.881C54.1709 124.816 53.6979 125.773 53.2019 126.723H52.4569C51.9509 125.766 51.4569 124.802 50.9519 123.847C50.9439 124.825 50.9519 125.803 50.9519 126.78H49.8149V121.313Z" fill="white"/>
<path d="M56.4297 126.777C57.2117 124.955 57.9887 123.131 58.7757 121.311C59.0837 121.311 59.3908 121.311 59.6988 121.303C60.5188 123.114 61.2777 124.954 62.0717 126.777C61.6627 126.777 61.2538 126.772 60.8448 126.785C60.6688 126.435 60.5447 126.065 60.3667 125.718C59.6157 125.735 58.8668 125.718 58.1118 125.729C57.9638 126.076 57.8117 126.423 57.6667 126.773C57.2527 126.78 56.8398 126.773 56.4268 126.773M59.2527 123.065C59.0017 123.641 58.7618 124.221 58.5168 124.8H59.9848C59.7498 124.227 59.5028 123.652 59.2558 123.077L59.2527 123.065Z" fill="white"/>
<path d="M62.6829 121.328C63.4829 121.328 64.2889 121.32 65.0929 121.328C65.3805 121.319 65.6656 121.385 65.9197 121.521C66.1739 121.656 66.3883 121.855 66.5419 122.098C66.7878 122.52 66.8595 123.022 66.7419 123.496C66.6243 123.971 66.3266 124.38 65.9119 124.639C66.2899 125.352 66.6849 126.058 67.0619 126.775C66.6319 126.775 66.2029 126.785 65.7749 126.763C65.4459 126.105 65.0749 125.471 64.7389 124.816C64.4319 124.807 64.1259 124.806 63.8189 124.809C63.8189 125.464 63.8269 126.121 63.8139 126.777C63.4429 126.77 63.0729 126.767 62.7049 126.786C62.6569 124.97 62.7049 123.145 62.6829 121.325M63.8139 122.318V123.804C64.2738 123.828 64.7349 123.812 65.1919 123.754C65.329 123.693 65.445 123.592 65.5249 123.465C65.6048 123.338 65.6451 123.19 65.6407 123.04C65.6363 122.89 65.5874 122.745 65.5002 122.623C65.413 122.5 65.2914 122.407 65.1509 122.354C64.7061 122.313 64.259 122.304 63.8129 122.325L63.8139 122.318Z" fill="white"/>
<path d="M44.9738 124.373C45.7458 124.383 46.5188 124.356 47.2898 124.387C47.2808 124.714 47.2808 125.042 47.2818 125.371C46.5178 125.378 45.7528 125.357 44.9878 125.383C44.9628 125.047 44.9698 124.707 44.9738 124.373Z" fill="white"/>
<path d="M35.2307 136.706H36.4077V142.413C36.0077 142.413 35.6157 142.413 35.2207 142.413C35.2347 140.513 35.2277 138.605 35.2307 136.706Z" fill="white"/>
<path d="M37.4997 136.709H38.5047C39.3354 137.888 40.1687 139.064 41.0047 140.239C40.9997 139.061 41.0047 137.885 41.0047 136.706H42.1797V142.414H41.1797C40.3477 141.249 39.5387 140.064 38.6867 138.914C38.6937 140.079 38.6867 141.246 38.6867 142.414C38.2914 142.417 37.8961 142.417 37.5007 142.414C37.5017 140.508 37.4987 138.609 37.4997 136.709Z" fill="white"/>
<path d="M43.271 136.713H45.721C46.192 136.703 46.6574 136.817 47.0709 137.043C47.4843 137.269 47.8316 137.598 48.078 138C48.3164 138.449 48.4493 138.946 48.4666 139.454C48.4839 139.963 48.3852 140.468 48.178 140.932C47.9585 141.37 47.6226 141.74 47.207 142C46.7914 142.26 46.3122 142.4 45.822 142.406C44.972 142.419 44.122 142.406 43.272 142.411V136.711M44.447 137.711V141.398C45.162 141.35 45.961 141.554 46.602 141.132C46.8699 140.907 47.0732 140.615 47.1909 140.285C47.3086 139.956 47.3366 139.601 47.272 139.257C47.2662 138.959 47.1768 138.669 47.0139 138.419C46.8511 138.17 46.6214 137.971 46.351 137.846C45.7283 137.704 45.0872 137.661 44.451 137.717L44.447 137.711Z" fill="white"/>
<path d="M49.3062 136.727C49.7062 136.691 50.1062 136.708 50.5002 136.707V142.415H49.3192C49.3062 140.518 49.3332 138.626 49.3062 136.727Z" fill="white"/>
<path d="M53.4771 136.701H54.4771C55.2997 138.602 56.1194 140.504 56.9361 142.409C56.5051 142.409 56.0751 142.409 55.6451 142.418C55.4701 142.054 55.3251 141.677 55.1641 141.309H52.8051C52.6471 141.673 52.4871 142.036 52.3381 142.409C51.9041 142.416 51.4701 142.409 51.0381 142.414C51.8381 140.507 52.6691 138.608 53.4821 136.706M53.9751 138.565C53.7291 139.165 53.4751 139.754 53.2261 140.35H54.7541C54.4881 139.755 54.2711 139.142 53.9751 138.567V138.565Z" fill="white"/>
<path d="M0 92.278C30.0353 92.2733 60.0707 92.2733 90.106 92.278C90.845 92.254 91.589 92.329 92.324 92.24V132.198C91.6907 132.607 91.035 132.981 90.36 133.317L48.336 155.942C47.664 156.274 47.036 156.699 46.336 156.968C46.269 157.044 46.202 157.119 46.136 157.202H46.075C46.011 157.118 45.946 157.036 45.881 156.958C45.089 156.628 44.362 156.158 43.597 155.771C29.0657 147.935 14.5333 140.106 0 132.284V92.278ZM54.687 100.631C53.8548 101.011 53.2051 101.703 52.878 102.557C52.6029 103.426 52.501 104.341 52.578 105.25C51.989 105.25 51.399 105.25 50.81 105.25V107.617H52.58C52.587 110.07 52.571 112.523 52.588 114.978C53.496 114.967 54.401 114.978 55.307 114.973V107.617H57.57V105.251C56.813 105.251 56.056 105.256 55.305 105.251C55.344 104.551 55.154 103.743 55.667 103.17C55.9207 102.933 56.2296 102.763 56.5656 102.676C56.9016 102.589 57.254 102.587 57.591 102.67C57.591 101.877 57.591 101.086 57.591 100.295C56.6111 100.143 55.6085 100.262 54.691 100.638M47.986 100.477C47.5899 100.598 47.253 100.863 47.041 101.219C46.829 101.575 46.757 101.997 46.839 102.403C46.9088 102.726 47.0741 103.02 47.3134 103.247C47.5527 103.475 47.8548 103.625 48.1806 103.678C48.5064 103.731 48.8406 103.685 49.1398 103.546C49.4391 103.406 49.6894 103.18 49.8583 102.897C50.0272 102.613 50.1068 102.285 50.0868 101.956C50.0668 101.626 49.948 101.31 49.746 101.049C49.544 100.788 49.2681 100.594 48.9542 100.492C48.6403 100.39 48.3029 100.385 47.986 100.477ZM60.163 100.469C59.7614 100.584 59.4176 100.846 59.1999 101.202C58.9823 101.559 58.9066 101.984 58.988 102.394C59.0559 102.716 59.219 103.011 59.4561 103.239C59.6932 103.467 59.9935 103.619 60.3179 103.675C60.6424 103.731 60.9762 103.688 61.2761 103.552C61.5759 103.416 61.8279 103.193 61.9996 102.912C62.1712 102.631 62.2546 102.305 62.2388 101.976C62.223 101.647 62.1088 101.331 61.911 101.068C61.7132 100.804 61.441 100.606 61.1295 100.5C60.818 100.393 60.4817 100.382 60.164 100.469M81.121 100.361C81.121 102.261 81.116 104.166 81.121 106.069C80.7388 105.715 80.2885 105.443 79.7977 105.269C79.3068 105.095 78.7857 105.023 78.266 105.057C77.6566 105.054 77.0529 105.175 76.4916 105.412C75.9302 105.649 75.4228 105.998 75 106.437C74.1078 107.463 73.6426 108.792 73.7 110.151C73.6764 110.859 73.798 111.564 74.0571 112.223C74.3163 112.882 74.7076 113.481 75.207 113.983C75.7528 114.47 76.4045 114.824 77.1105 115.016C77.8166 115.208 78.5576 115.233 79.275 115.089C80.0308 114.969 80.7213 114.59 81.229 114.017C81.2632 114.333 81.2752 114.652 81.265 114.97C82.125 114.961 82.984 114.97 83.844 114.963C83.8393 110.096 83.8393 105.228 83.844 100.357H81.119M8.961 102.384C7.71983 103.505 6.9364 105.046 6.761 106.709C6.45212 108.677 6.88165 110.69 7.967 112.36C8.97144 113.754 10.48 114.702 12.172 115.001C13.2115 115.229 14.2873 115.237 15.3301 115.024C16.3728 114.811 17.3593 114.382 18.226 113.764C19.4603 112.803 20.2827 111.409 20.526 109.864C19.509 109.764 18.49 109.685 17.472 109.595C17.3872 110.134 17.1782 110.646 16.8615 111.091C16.5448 111.536 16.129 111.901 15.647 112.157C14.862 112.542 13.9772 112.674 13.114 112.536C12.2507 112.398 11.4512 111.997 10.825 111.387C9.98072 110.396 9.55408 109.116 9.635 107.817C9.59849 106.538 10.0653 105.296 10.935 104.358C11.5499 103.805 12.3135 103.445 13.1312 103.322C13.9489 103.199 14.7847 103.319 15.535 103.666C16.0444 103.925 16.4851 104.3 16.8211 104.763C17.1571 105.225 17.3788 105.76 17.468 106.324C18.4773 106.238 19.4877 106.15 20.499 106.061C20.2995 104.66 19.6206 103.372 18.578 102.416C17.2637 101.279 15.5743 100.671 13.837 100.708C12.0602 100.654 10.3247 101.25 8.956 102.384M40.606 102.032C40.596 103.104 40.597 104.176 40.584 105.248H38.815V107.617C39.404 107.617 39.993 107.612 40.583 107.622C40.566 109.092 40.566 110.564 40.56 112.035C40.538 112.535 40.6429 113.032 40.865 113.48C41.0871 113.928 41.4191 114.312 41.83 114.597C43.0048 115.18 44.3448 115.341 45.624 115.051C45.624 114.235 45.624 113.419 45.624 112.604C45.0699 112.763 44.478 112.726 43.948 112.499C43.7398 112.371 43.5705 112.188 43.4585 111.971C43.3464 111.754 43.2957 111.51 43.312 111.266C43.312 110.051 43.327 108.836 43.326 107.622C44.092 107.622 44.858 107.622 45.626 107.622V105.256C44.861 105.245 44.094 105.277 43.326 105.239C43.354 104.17 43.362 103.098 43.343 102.027C42.431 102.053 41.518 102.027 40.606 102.039M23.162 106.089C22.2307 106.857 21.6306 107.954 21.486 109.152C21.2492 110.533 21.5236 111.952 22.258 113.145C22.9323 114.128 23.9647 114.807 25.134 115.037C26.5119 115.357 27.9598 115.138 29.182 114.426C29.6191 114.171 29.9977 113.827 30.2933 113.416C30.5889 113.005 30.7949 112.537 30.898 112.041C29.998 111.921 29.065 111.941 28.152 111.881C28.074 112.109 27.9425 112.314 27.7684 112.48C27.5944 112.646 27.383 112.768 27.152 112.835C26.7794 112.961 26.381 112.99 25.9939 112.92C25.6069 112.85 25.244 112.683 24.939 112.435C24.5629 112.042 24.3471 111.523 24.334 110.979C26.557 110.974 28.781 110.984 31.005 110.979C31.0383 110.217 31.0048 109.453 30.905 108.697C30.7463 107.702 30.2523 106.791 29.505 106.115C28.6805 105.435 27.6457 105.062 26.577 105.06C25.3557 104.986 24.148 105.349 23.171 106.086M65.157 106C64.1933 106.74 63.5576 107.828 63.386 109.031C63.1194 110.438 63.3826 111.894 64.125 113.118C64.7657 114.07 65.7452 114.742 66.864 114.998C68.2772 115.364 69.7774 115.161 71.043 114.434C71.4886 114.175 71.8743 113.825 72.1744 113.406C72.4745 112.987 72.6823 112.509 72.784 112.004C71.868 111.961 70.954 111.921 70.04 111.871C69.9615 112.091 69.834 112.29 69.6671 112.453C69.5003 112.617 69.2985 112.74 69.077 112.814C68.6978 112.952 68.2892 112.989 67.8913 112.922C67.4933 112.855 67.1197 112.685 66.807 112.43C66.4346 112.038 66.2193 111.523 66.202 110.982C68.427 110.968 70.652 110.991 72.876 110.971C73.0126 109.681 72.7959 108.378 72.249 107.201C71.9546 106.675 71.5481 106.221 71.0583 105.87C70.5685 105.519 70.0075 105.28 69.415 105.17C68.6859 105.008 67.9312 104.998 67.1979 105.14C66.4647 105.282 65.7686 105.574 65.153 105.997M35 106.311C35.009 105.952 35.008 105.594 35.005 105.236H32.342V114.952C33.258 114.959 34.174 114.952 35.091 114.952V110.033C35.0827 109.713 35.1476 109.395 35.2807 109.104C35.4137 108.812 35.6115 108.555 35.859 108.352C36.3807 107.971 37.0132 107.773 37.659 107.787V105.138C37.1522 105.099 36.6437 105.186 36.1783 105.39C35.7129 105.594 35.3048 105.91 34.99 106.309M47.063 105.234C47.058 108.473 47.073 111.711 47.054 114.95C47.973 114.976 48.891 114.95 49.809 114.961V105.235H47.066M59.222 105.249C59.222 108.491 59.211 111.734 59.23 114.975C60.138 114.965 61.052 114.967 61.964 114.975C61.978 111.734 61.964 108.492 61.969 105.251H59.222M27.157 121.697C26.8595 122.042 26.698 122.484 26.703 122.94C27.074 122.961 27.444 122.981 27.815 123.011C27.8372 122.829 27.883 122.651 27.951 122.481C28.0041 122.399 28.0783 122.333 28.1658 122.29C28.2533 122.247 28.3509 122.228 28.4482 122.236C28.5454 122.244 28.6388 122.278 28.7183 122.334C28.7979 122.391 28.8606 122.468 28.9 122.557C28.9572 122.787 28.9557 123.028 28.8956 123.257C28.8355 123.487 28.7187 123.697 28.556 123.87C27.956 124.559 27.322 125.219 26.716 125.905C26.716 126.199 26.716 126.494 26.73 126.788C27.856 126.774 28.983 126.788 30.11 126.781V125.781C29.48 125.781 28.851 125.786 28.218 125.781C28.7372 125.254 29.2267 124.698 29.684 124.116C29.879 123.83 30.006 123.503 30.0554 123.161C30.1048 122.819 30.0752 122.469 29.969 122.14C29.8783 121.916 29.7302 121.719 29.5396 121.57C29.349 121.421 29.1226 121.325 28.883 121.291C28.5829 121.216 28.2691 121.214 27.9683 121.287C27.6675 121.359 27.3888 121.503 27.156 121.707M32.256 121.296C31.9821 121.361 31.7262 121.486 31.5071 121.663C31.288 121.839 31.1113 122.063 30.99 122.317C30.6806 123.014 30.5656 123.782 30.657 124.539C30.6838 125.237 30.969 125.9 31.457 126.399C31.8255 126.718 32.3017 126.885 32.7888 126.865C33.2759 126.846 33.7372 126.642 34.079 126.294C34.5976 125.642 34.8517 124.819 34.791 123.988C34.8297 123.195 34.5732 122.416 34.071 121.802C33.8398 121.567 33.5514 121.396 33.2343 121.307C32.9171 121.217 32.582 121.211 32.262 121.29M36.362 121.379C36.0664 121.515 35.8193 121.738 35.6539 122.019C35.4884 122.299 35.4124 122.623 35.436 122.948C35.807 122.965 36.179 122.988 36.55 123.01C36.5563 122.798 36.6184 122.591 36.73 122.41C36.7909 122.344 36.8673 122.294 36.9521 122.265C37.037 122.236 37.1278 122.228 37.2164 122.242C37.305 122.257 37.3887 122.293 37.46 122.347C37.5313 122.402 37.588 122.473 37.625 122.555C37.6845 122.81 37.6754 123.077 37.5986 123.327C37.5219 123.578 37.3802 123.804 37.188 123.982C36.61 124.622 36.027 125.256 35.447 125.894V126.782H38.839V125.782C38.205 125.782 37.571 125.782 36.939 125.782C37.6137 125.168 38.1898 124.453 38.647 123.663C38.7946 123.343 38.85 122.988 38.8069 122.639C38.7638 122.289 38.6239 121.958 38.403 121.684C38.1209 121.457 37.7832 121.309 37.4249 121.256C37.0665 121.204 36.7006 121.248 36.365 121.384M40.356 121.37C40.0571 121.504 39.8045 121.723 39.6301 122C39.4556 122.277 39.3672 122.6 39.376 122.927C39.75 122.987 40.133 122.987 40.511 123.013C40.5284 122.849 40.5643 122.688 40.618 122.532C40.6646 122.446 40.7335 122.374 40.8176 122.324C40.9016 122.274 40.9977 122.248 41.0955 122.248C41.1933 122.248 41.2894 122.274 41.3734 122.324C41.4575 122.374 41.5264 122.446 41.573 122.532C41.6396 122.758 41.647 122.997 41.5945 123.227C41.542 123.456 41.4313 123.669 41.273 123.843C40.682 124.543 40.031 125.187 39.439 125.886C39.3962 126.187 39.3855 126.491 39.407 126.794C40.533 126.794 41.66 126.786 42.785 126.801C42.8 126.466 42.797 126.131 42.799 125.801C42.161 125.789 41.524 125.801 40.887 125.794C41.4044 125.281 41.8906 124.737 42.343 124.165C42.5817 123.841 42.725 123.457 42.7566 123.056C42.7883 122.654 42.707 122.252 42.522 121.895C42.2606 121.593 41.9104 121.38 41.5214 121.288C41.1323 121.196 40.7241 121.23 40.355 121.383M70.239 121.397C69.9442 121.534 69.6977 121.757 69.5317 122.037C69.3658 122.316 69.2881 122.64 69.309 122.964C69.681 122.984 70.053 123.006 70.426 123.028C70.4389 122.845 70.4839 122.666 70.559 122.498C70.612 122.419 70.6852 122.355 70.771 122.313C70.8568 122.27 70.9522 122.252 71.0475 122.259C71.1428 122.266 71.2346 122.297 71.3135 122.351C71.3925 122.405 71.4558 122.479 71.497 122.565C71.5599 122.821 71.5531 123.09 71.4774 123.343C71.4016 123.596 71.2595 123.824 71.066 124.003C70.487 124.643 69.904 125.278 69.325 125.916V126.805C70.456 126.805 71.588 126.814 72.72 126.8C72.7147 126.467 72.7147 126.133 72.72 125.8H70.807C71.4617 125.201 72.0289 124.514 72.492 123.757C72.6561 123.43 72.7234 123.063 72.686 122.7C72.6486 122.336 72.5081 121.991 72.281 121.704C71.9988 121.477 71.6609 121.329 71.3024 121.276C70.9438 121.223 70.5777 121.268 70.242 121.404M74.885 121.311C74.622 121.369 74.3748 121.483 74.1605 121.646C73.9461 121.808 73.7699 122.016 73.644 122.254C73.3098 122.934 73.1739 123.695 73.252 124.449C73.2616 125.168 73.5341 125.858 74.018 126.389C74.3869 126.727 74.8737 126.908 75.374 126.892C75.8744 126.876 76.3486 126.664 76.695 126.303C77.2046 125.652 77.454 124.834 77.395 124.009C77.4316 123.222 77.1787 122.45 76.684 121.837C76.4551 121.601 76.1689 121.429 75.8534 121.336C75.5379 121.244 75.2049 121.235 74.885 121.311ZM78.993 121.387C78.6925 121.521 78.4388 121.741 78.2646 122.02C78.0903 122.299 78.0034 122.623 78.015 122.952C78.389 122.997 78.766 123.009 79.144 123.031C79.151 122.811 79.2204 122.598 79.344 122.416C79.4049 122.356 79.479 122.311 79.5604 122.285C79.6417 122.259 79.7281 122.252 79.8126 122.265C79.897 122.279 79.9772 122.312 80.0465 122.362C80.1159 122.412 80.1726 122.477 80.212 122.553C80.2788 122.793 80.2807 123.047 80.2177 123.288C80.1546 123.529 80.0288 123.749 79.853 123.926C79.316 124.531 78.762 125.126 78.215 125.726C77.907 125.995 78.088 126.448 78.045 126.804C79.172 126.804 80.299 126.797 81.426 126.809C81.438 126.472 81.437 126.137 81.436 125.802C80.8 125.802 80.164 125.802 79.529 125.802C80.0683 125.271 80.5696 124.703 81.029 124.102C81.2481 123.783 81.3763 123.41 81.3998 123.023C81.4234 122.636 81.3416 122.251 81.163 121.907C80.9021 121.604 80.5521 121.391 80.163 121.298C79.7739 121.205 79.3655 121.238 78.996 121.391M82.886 121.417C82.6056 121.545 82.3696 121.753 82.2079 122.016C82.0462 122.278 81.9662 122.583 81.978 122.891C82.347 122.908 82.715 122.927 83.085 122.95C83.1065 122.751 83.1854 122.562 83.312 122.407C83.3764 122.351 83.4526 122.31 83.5349 122.287C83.6172 122.264 83.7036 122.259 83.7879 122.274C83.8721 122.288 83.9521 122.321 84.022 122.37C84.0919 122.419 84.15 122.484 84.192 122.558C84.2684 122.715 84.2823 122.896 84.2309 123.063C84.1795 123.23 84.0666 123.371 83.915 123.458C83.6411 123.523 83.3586 123.545 83.078 123.521V124.481C83.3989 124.448 83.7231 124.477 84.033 124.567C84.1856 124.667 84.2968 124.819 84.346 124.995C84.3953 125.171 84.3793 125.359 84.301 125.524C84.254 125.62 84.1849 125.703 84.0994 125.767C84.0139 125.831 83.9145 125.874 83.8092 125.892C83.704 125.91 83.596 125.903 83.4941 125.871C83.3922 125.839 83.2993 125.784 83.223 125.709C83.108 125.548 83.0357 125.36 83.013 125.163C82.6403 125.184 82.2677 125.207 81.895 125.23C81.8913 125.507 81.957 125.781 82.086 126.027C82.2151 126.272 82.4035 126.482 82.634 126.636C82.9485 126.805 83.2989 126.896 83.6559 126.902C84.0129 126.908 84.3661 126.829 84.686 126.67C84.9195 126.539 85.1162 126.351 85.2577 126.124C85.3992 125.897 85.481 125.637 85.4955 125.37C85.51 125.103 85.4566 124.836 85.3405 124.595C85.2243 124.353 85.049 124.145 84.831 123.99C84.9987 123.851 85.1353 123.678 85.2317 123.483C85.3281 123.288 85.3823 123.075 85.3906 122.857C85.3989 122.64 85.3612 122.423 85.2799 122.221C85.1987 122.019 85.0757 121.836 84.919 121.685C84.6324 121.465 84.2929 121.325 83.9349 121.279C83.5768 121.233 83.2129 121.282 82.88 121.422M7.229 121.355V126.814H8.362V123.889C8.892 124.832 9.362 125.803 9.876 126.756H10.618C11.126 125.806 11.591 124.834 12.118 123.897C12.113 124.87 12.118 125.842 12.118 126.815H13.232C13.237 124.99 13.254 123.163 13.224 121.339C12.889 121.346 12.553 121.339 12.224 121.365C11.578 122.614 10.924 123.865 10.239 125.09C9.576 123.837 8.911 122.585 8.23 121.342C7.898 121.342 7.567 121.342 7.236 121.351M16.195 121.351C15.417 123.172 14.626 124.989 13.856 126.815H15.086L15.54 125.765C16.297 125.765 17.057 125.765 17.816 125.765C17.96 126.118 18.108 126.468 18.26 126.815H19.494C18.724 124.988 17.927 123.174 17.148 121.352C16.83 121.352 16.512 121.352 16.195 121.352M20.095 121.373C20.117 123.189 20.084 125.006 20.112 126.822C20.49 126.814 20.863 126.817 21.239 126.813C21.234 126.16 21.239 125.508 21.239 124.857C21.539 124.852 21.839 124.85 22.132 124.843C22.519 125.489 22.845 126.169 23.226 126.82C23.645 126.811 24.058 126.82 24.48 126.82C24.109 126.102 23.714 125.397 23.333 124.684C23.7516 124.423 24.0508 124.007 24.1662 123.528C24.2816 123.048 24.2039 122.542 23.95 122.119C23.7911 121.879 23.5728 121.684 23.3163 121.553C23.0598 121.422 22.7738 121.359 22.486 121.371C21.686 121.371 20.897 121.36 20.099 121.379M49.829 121.357V126.823H50.964C50.964 125.845 50.964 124.867 50.964 123.89C51.472 124.845 51.964 125.809 52.469 126.766H53.214C53.714 125.819 54.183 124.86 54.701 123.924C54.722 124.89 54.701 125.858 54.71 126.824H55.824V121.358H54.824C54.166 122.607 53.491 123.846 52.843 125.1C52.143 123.868 51.5 122.6 50.819 121.357H49.819M56.435 126.82H57.675C57.819 126.47 57.975 126.12 58.12 125.776C58.871 125.764 59.62 125.783 60.375 125.765C60.55 126.112 60.675 126.482 60.853 126.832C61.262 126.818 61.67 126.824 62.08 126.824C61.286 125.001 60.527 123.161 59.707 121.35C59.399 121.362 59.092 121.361 58.784 121.358C57.995 123.174 57.217 125.001 56.438 126.824M62.689 121.375C62.708 123.191 62.663 125.017 62.711 126.836C63.08 126.817 63.45 126.82 63.82 126.827C63.834 126.171 63.82 125.514 63.825 124.859C64.131 124.859 64.438 124.859 64.745 124.866C65.078 125.521 65.453 126.153 65.781 126.812C66.209 126.834 66.638 126.821 67.068 126.824C66.69 126.107 66.298 125.4 65.918 124.688C66.3329 124.429 66.6308 124.019 66.7484 123.545C66.866 123.07 66.7942 122.568 66.548 122.146C66.3944 121.903 66.1799 121.704 65.9258 121.568C65.6717 121.433 65.3867 121.367 65.099 121.376C64.299 121.368 63.492 121.376 62.689 121.376M44.98 124.416C44.98 124.751 44.969 125.089 44.994 125.426C45.759 125.4 46.524 125.421 47.288 125.414C47.288 125.086 47.288 124.758 47.296 124.43C46.524 124.398 45.751 124.43 44.98 124.416ZM35.236 136.752C35.236 138.652 35.236 140.552 35.236 142.452C35.636 142.46 36.026 142.457 36.423 142.452V136.745H35.238M37.508 136.745V142.445C37.9033 142.45 38.2987 142.45 38.694 142.445C38.694 141.278 38.694 140.111 38.694 138.945C39.546 140.096 40.352 141.282 41.187 142.445H42.187V136.737H41.011V140.27C40.175 139.095 39.3417 137.919 38.511 136.74C38.1777 136.735 37.8427 136.735 37.506 136.74M43.277 136.747V142.447C44.126 142.447 44.977 142.455 45.827 142.442C46.3172 142.436 46.7964 142.296 47.212 142.036C47.6276 141.776 47.9635 141.406 48.183 140.968C48.3901 140.504 48.4887 139.999 48.4713 139.491C48.454 138.983 48.3212 138.486 48.083 138.037C47.8366 137.635 47.4893 137.305 47.0759 137.08C46.6624 136.854 46.197 136.74 45.726 136.75C44.909 136.75 44.092 136.75 43.276 136.75M49.311 136.764C49.337 138.656 49.311 140.556 49.325 142.453H50.51V136.745C50.11 136.745 49.71 136.729 49.316 136.765M53.487 136.739C52.673 138.639 51.848 140.539 51.043 142.447C51.476 142.447 51.91 142.447 52.343 142.442C52.494 142.073 52.652 141.71 52.81 141.342H55.17C55.332 141.711 55.476 142.087 55.651 142.451C56.081 142.437 56.511 142.443 56.942 142.442C56.1227 140.539 55.303 138.636 54.483 136.734C54.1443 136.71 53.809 136.698 53.477 136.699L53.487 136.739Z" fill="#002171"/>
<path d="M25.2391 107.481C25.5776 107.291 25.9598 107.193 26.3478 107.196C26.7359 107.199 27.1165 107.303 27.4521 107.498C27.7026 107.695 27.9041 107.947 28.0407 108.235C28.1772 108.524 28.2451 108.839 28.2391 109.158H24.3301C24.3344 108.826 24.4194 108.5 24.5778 108.208C24.7361 107.916 24.9631 107.666 25.2391 107.481Z" fill="#002171"/>
<path d="M67.2482 107.408C67.594 107.244 67.9768 107.172 68.3586 107.201C68.7404 107.23 69.108 107.358 69.4252 107.573C69.6432 107.775 69.8167 108.02 69.9347 108.293C70.0526 108.566 70.1124 108.861 70.1102 109.158H66.2012C66.2027 108.799 66.3007 108.447 66.4849 108.14C66.6691 107.832 66.9327 107.579 67.2482 107.408Z" fill="#002171"/>
<path d="M78.314 107.457C78.7334 107.358 79.1723 107.379 79.5806 107.517C79.9888 107.655 80.35 107.905 80.6229 108.239C81.0742 108.976 81.2409 109.853 81.0919 110.705C81.0726 111.075 80.9621 111.434 80.7702 111.751C80.5783 112.068 80.3109 112.333 79.9919 112.521C79.552 112.754 79.0512 112.847 78.5569 112.787C78.0627 112.727 77.5985 112.517 77.2269 112.186C76.7644 111.69 76.5032 111.039 76.4939 110.361C76.4245 109.641 76.5985 108.918 76.988 108.309C77.3039 107.863 77.7808 107.558 78.3179 107.457H78.314Z" fill="#002171"/>
<path d="M32.4731 122.277C32.6379 122.222 32.8165 122.226 32.9789 122.287C33.1413 122.349 33.2776 122.464 33.3651 122.614C33.5907 123.115 33.6843 123.666 33.6371 124.214C33.6642 124.704 33.5407 125.19 33.2831 125.607C33.2024 125.698 33.1013 125.768 32.9881 125.811C32.8748 125.855 32.7528 125.871 32.6322 125.858C32.5115 125.845 32.3957 125.804 32.2943 125.737C32.1929 125.67 32.1088 125.581 32.0491 125.475C31.7877 124.825 31.7092 124.116 31.8221 123.424C31.8661 122.98 32.0001 122.428 32.4731 122.277Z" fill="#002171"/>
<path d="M75.0968 122.264C75.2626 122.216 75.4397 122.226 75.5988 122.293C75.7579 122.359 75.8895 122.478 75.9718 122.63C76.186 123.124 76.275 123.663 76.2308 124.2C76.2575 124.687 76.1377 125.171 75.8868 125.59C75.8085 125.682 75.7094 125.755 75.5977 125.801C75.4859 125.847 75.3648 125.866 75.2442 125.857C75.1236 125.847 75.007 125.808 74.9042 125.745C74.8014 125.681 74.7152 125.594 74.6529 125.49C74.3814 124.836 74.2985 124.119 74.4138 123.42C74.4638 122.976 74.6028 122.401 75.0968 122.264Z" fill="#002171"/>
<path d="M21.2212 122.322C21.673 122.301 22.1257 122.315 22.5752 122.364C22.7142 122.42 22.8333 122.517 22.9174 122.641C23.0015 122.765 23.0468 122.912 23.0475 123.062C23.0483 123.212 23.0045 123.358 22.9216 123.483C22.8388 123.609 22.7206 123.706 22.5822 123.764C22.1301 123.814 21.6746 123.829 21.2202 123.807L21.2212 122.322Z" fill="#002171"/>
<path d="M63.813 122.327C64.259 122.308 64.7057 122.32 65.15 122.363C65.2905 122.416 65.4121 122.509 65.4993 122.632C65.5865 122.754 65.6355 122.899 65.6399 123.049C65.6443 123.199 65.6039 123.347 65.524 123.474C65.4441 123.601 65.3282 123.702 65.191 123.763C64.7341 123.82 64.2729 123.837 63.813 123.813C63.811 123.318 63.811 122.822 63.813 122.327Z" fill="#002171"/>
<path d="M16.6541 123.081C16.9271 123.645 17.1471 124.231 17.3981 124.806H15.9341C16.1641 124.224 16.4191 123.656 16.6541 123.081Z" fill="#002171"/>
<path d="M59.257 123.072C59.504 123.65 59.75 124.227 59.989 124.813H58.521C58.765 124.23 59.006 123.647 59.257 123.072Z" fill="#002171"/>
<path d="M86.0298 136.893C86.8458 136.882 87.6618 136.893 88.4778 136.893V137.52H87.6118V139.649H86.8998V137.519C86.6131 137.516 86.3275 137.516 86.0428 137.519C86.0378 137.309 86.0318 137.097 86.0298 136.893Z" fill="#002171"/>
<path d="M88.7822 136.89C88.9972 136.89 89.2132 136.89 89.4302 136.895C89.7302 137.447 90.0212 137.995 90.3302 138.543C90.6422 138 90.9302 137.443 91.2302 136.891H91.8742V139.651H91.1613V138.489C90.9613 138.863 90.7682 139.24 90.5682 139.616H90.0972C89.9224 139.253 89.7201 138.903 89.4922 138.571C89.4922 138.928 89.4922 139.287 89.4922 139.647H88.7822V136.89Z" fill="#002171"/>
<path d="M44.4458 137.714C45.0843 137.659 45.7275 137.705 46.3518 137.85C46.6221 137.975 46.8517 138.174 47.0146 138.423C47.1774 138.673 47.2669 138.963 47.2728 139.261C47.3373 139.605 47.3091 139.96 47.1912 140.289C47.0733 140.619 46.8699 140.911 46.6018 141.136C45.9628 141.558 45.1638 141.354 44.4468 141.402C44.4461 140.176 44.4458 138.947 44.4458 137.714Z" fill="#002171"/>
<path d="M53.9712 138.561C54.2712 139.138 54.4832 139.753 54.7492 140.346H53.2222C53.4722 139.749 53.7262 139.159 53.9712 138.561Z" fill="#002171"/>
</g>
<defs>
<clipPath id="clip0_7_484">
<rect width="92.328" height="157.202" fill="white"/>
</clipPath>
</defs>
</svg>
